<?xml version="1.0" encoding="utf-8"?>
<!-- Generator: Adobe Illustrator 22.0.0, SVG Export Plug-In . SVG Version: 6.00 Build 0)  -->
<svg version="1.1" id="Capa_1" xmlns="http://www.w3.org/2000/svg" xmlns:xlink="http://www.w3.org/1999/xlink" x="0px" y="0px"
	 viewBox="0 0 150 150" enable-background="new 0 0 150 150" xml:space="preserve">
<g id="BG">
	
		<radialGradient id="SVGID_1_" cx="72.8693" cy="20.1609" r="102.8698" gradientTransform="matrix(1 0 0 -1 0 150)" gradientUnits="userSpaceOnUse">
		<stop  offset="0" style="stop-color:#0095BB"/>
		<stop  offset="1" style="stop-color:#00CCFF"/>
	</radialGradient>
	<circle fill="url(#SVGID_1_)" cx="75" cy="75" r="60"/>
</g>
<g id="Left_Arm">
	<g>
		<g>
			<g>
				
					<radialGradient id="SVGID_2_" cx="84.3926" cy="108.3862" r="4.1175" gradientTransform="matrix(-0.8859 -0.4639 -0.4639 0.8859 240.6917 74.7214)" gradientUnits="userSpaceOnUse">
					<stop  offset="0" style="stop-color:#004A9C"/>
					<stop  offset="1" style="stop-color:#003979"/>
				</radialGradient>
				<path fill="url(#SVGID_2_)" d="M114,129.5c0.4-0.8,1-1.6,1.7-2.5c0.4-0.5,1-0.6,1.5-0.5c0.3,0.1,0.5,0.2,0.7,0.4
					c0.7,0.6,0.7,1.6,0.2,2.2c-0.4,0.4-0.7,0.9-1,1.4c0,0.1-0.1,0.1-0.1,0.2c-0.5,0.9-0.9,1.9-0.9,2.8v0.3c0,0.4,0,0.8,0.1,1.3
					c0.2,0.9-0.4,1.7-1.2,1.9c-0.9,0.2-1.7-0.4-1.9-1.2c-0.1-0.7-0.2-1.5-0.1-2.5v-0.2c0.1-0.9,0.4-2,0.9-3.1
					C113.9,129.7,114,129.6,114,129.5z"/>
			</g>
			<g opacity="0.6">
				<path fill="#FFFFFF" d="M113,132.9c1.5-0.2,2.6,0.3,3.1,0.5c0,0,0,0,0.1,0v0.3c-0.4-0.2-1.5-0.8-3.1-0.6L113,132.9z"/>
			</g>
			<g opacity="0.6">
				<path fill="#FFFFFF" d="M114,129.5c0.9-0.2,1.8,0.2,2.4,0.5c0.3,0.2,0.6,0.3,0.7,0.4c0,0.1-0.1,0.1-0.1,0.2
					c-0.5-0.3-1.9-1.2-3.1-0.8C113.9,129.7,114,129.6,114,129.5z"/>
			</g>
		</g>
		<g>
			<g>
				
					<radialGradient id="SVGID_3_" cx="81.1418" cy="103.6618" r="5.1524" gradientTransform="matrix(-0.9079 -0.4192 -0.4192 0.9079 237.9211 72.9327)" gradientUnits="userSpaceOnUse">
					<stop  offset="0" style="stop-color:#004A9C"/>
					<stop  offset="1" style="stop-color:#003979"/>
				</radialGradient>
				<path fill="url(#SVGID_3_)" d="M119.9,126.5c0.3-0.1,0.6-0.2,0.9-0.1c0.5,0.1,0.9,0.4,1.2,0.9c0.9,1.8,1.2,3.6,1.3,5.3
					c0,0.1,0,0.2,0,0.3c0,1.3-0.1,2.6-0.3,3.5l0,0c0,0.1,0,0.2,0,0.2c-0.2,1.2-0.5,2-0.5,2.1c-0.3,0.8-1.2,1.3-2,1s-1.3-1.2-1-2
					c0,0,0.2-0.6,0.3-1.4l0.1-0.3c0.1-0.9,0.3-1.9,0.2-3.1c0-0.1,0-0.2,0-0.2c-0.1-1.3-0.3-2.7-0.9-4
					C118.8,127.8,119.1,126.9,119.9,126.5z"/>
			</g>
			<g opacity="0.6">
				<path fill="#FFFFFF" d="M123,136.6c-0.3-0.2-1.7-1-3.2-0.3l0.1-0.3c1.1-0.4,2.1-0.2,2.7,0.1c0.2,0.1,0.3,0.2,0.4,0.2V136.6z"/>
				<path fill="none" d="M123,136.3L123,136.3L123,136.3"/>
			</g>
			<g opacity="0.6">
				<path fill="#FFFFFF" d="M120.1,132.6c1.5-0.6,2.6-0.3,3.1-0.1h0.1c0,0.1,0,0.2,0,0.3c-0.3-0.1-1.4-0.7-3.2,0.1
					C120.1,132.7,120.1,132.7,120.1,132.6z"/>
			</g>
		</g>
		<g>
			<g>
				
					<radialGradient id="SVGID_4_" cx="168.9126" cy="-12.1039" r="5.1524" gradientTransform="matrix(-0.9896 -0.1435 -0.1435 0.9896 290.9035 167.4197)" gradientUnits="userSpaceOnUse">
					<stop  offset="0" style="stop-color:#004A9C"/>
					<stop  offset="1" style="stop-color:#003979"/>
				</radialGradient>
				<path fill="url(#SVGID_4_)" d="M122.8,125.2c0.3-0.2,0.6-0.4,0.9-0.4c0.5-0.1,1,0.1,1.4,0.5c1.3,1.4,2.2,3.1,2.7,4.7
					c0,0.1,0.1,0.2,0.1,0.2c0.4,1.3,0.6,2.5,0.8,3.5l0,0c0,0.1,0,0.2,0,0.2c0.1,1.2,0.1,2.1,0.1,2.1c0,0.9-0.8,1.6-1.6,1.5
					c-0.9,0-1.6-0.8-1.5-1.6c0,0,0-0.6-0.1-1.5v-0.3c-0.1-0.9-0.3-1.9-0.7-3.1c0-0.1,0-0.2-0.1-0.2c-0.4-1.2-1.1-2.5-2-3.6
					C122.1,126.8,122.1,125.7,122.8,125.2z"/>
			</g>
			<g opacity="0.6">
				<path fill="#FFFFFF" d="M128.6,134c-0.3-0.1-1.9-0.5-3.1,0.6v-0.3c0.9-0.7,2-0.7,2.6-0.7c0.2,0,0.4,0.1,0.5,0.1V134z"/>
				<path fill="none" d="M128.6,133.7L128.6,133.7L128.6,133.7"/>
			</g>
			<g opacity="0.6">
				<path fill="#FFFFFF" d="M124.7,131c1.3-1,2.4-1.1,2.9-1h0.1c0,0.1,0.1,0.2,0.1,0.2C127.5,130.1,126.3,129.9,124.7,131
					C124.8,131.1,124.7,131,124.7,131z"/>
			</g>
		</g>
		<g>
			<g>
				
					<radialGradient id="SVGID_5_" cx="236.0864" cy="-226.6619" r="5.1522" gradientTransform="matrix(-0.9563 0.2923 0.2923 0.9563 420.7231 274.8008)" gradientUnits="userSpaceOnUse">
					<stop  offset="0" style="stop-color:#004A9C"/>
					<stop  offset="1" style="stop-color:#003979"/>
				</radialGradient>
				<path fill="url(#SVGID_5_)" d="M123.7,122.7c0.1-0.3,0.3-0.6,0.6-0.7c0.4-0.3,1-0.3,1.5-0.1c1.8,0.7,3.3,1.9,4.5,3.1
					c0.1,0.1,0.1,0.1,0.2,0.2c0.9,1,1.6,2,2.2,2.8l0,0c0,0.1,0.1,0.1,0.1,0.2c0.6,1.1,1,1.8,1,1.9c0.3,0.8,0,1.7-0.8,2.1
					c-0.8,0.3-1.7,0-2.1-0.8c0,0-0.2-0.5-0.7-1.3l-0.1-0.2c-0.5-0.7-1.1-1.6-1.9-2.5c0-0.1-0.1-0.1-0.2-0.2c-0.9-0.9-2-1.8-3.4-2.3
					C123.7,124.5,123.3,123.6,123.7,122.7z"/>
			</g>
			<g opacity="0.6">
				<path fill="#FFFFFF" d="M132.7,128.2c-0.4,0.1-2,0.4-2.6,1.9l-0.1-0.2c0.5-1,1.5-1.5,2.1-1.7c0.2-0.1,0.3-0.1,0.5-0.1
					L132.7,128.2z"/>
				<path fill="none" d="M132.6,128L132.6,128L132.6,128"/>
			</g>
			<g opacity="0.6">
				<path fill="#FFFFFF" d="M127.9,127.2c0.7-1.5,1.7-2,2.2-2.1h0.1c0.1,0.1,0.1,0.1,0.2,0.2c-0.3,0.1-1.5,0.4-2.3,2.1
					C128,127.3,128,127.2,127.9,127.2z"/>
			</g>
		</g>
		
			<radialGradient id="SVGID_6_" cx="169.376" cy="-1.9557" r="9.9386" gradientTransform="matrix(-0.9871 -0.1603 -0.1603 0.9871 288.633 161.1772)" gradientUnits="userSpaceOnUse">
			<stop  offset="0" style="stop-color:#002855"/>
			<stop  offset="0.4671" style="stop-color:#002753"/>
			<stop  offset="0.7099" style="stop-color:#00234B"/>
			<stop  offset="0.9004" style="stop-color:#001D3E"/>
			<stop  offset="1" style="stop-color:#001833"/>
		</radialGradient>
		<path fill="url(#SVGID_6_)" d="M116.3,129.5c-1.9-2.2-1.1-5.9,1.8-8.4s6.7-2.7,8.6-0.6s1.1,5.9-1.8,8.4
			C122,131.4,118.1,131.7,116.3,129.5z"/>
		<g>
			
				<radialGradient id="SVGID_7_" cx="136.3345" cy="52.0873" r="10.6239" gradientTransform="matrix(-1 0 0 -1 236.3807 150)" gradientUnits="userSpaceOnUse">
				<stop  offset="0" style="stop-color:#003978"/>
				<stop  offset="1" style="stop-color:#002855"/>
			</radialGradient>
			<path fill="url(#SVGID_7_)" d="M90.1,99.6c0.1,1.1,0.5,2.1,0.9,2.9c0,0.1,0.1,0.2,0.1,0.2c0.2,0.3,0.3,0.6,0.5,0.8
				c1.2-0.3,2.3-0.4,3.3-0.5c0.8-0.1,1.5-0.1,2.1,0c1.8,0.1,3.2,0.4,4.5,0.9c2.4,1,3.9,2.5,5,3.8c1.6,1.9,4.4,2.2,6.3,0.6
				s2.2-4.4,0.6-6.3c-1.6-2-3.5-3.6-5.5-4.9c-0.7-0.5-1.5-0.9-2.3-1.2c-2.5-1.1-5.2-1.8-8.1-1.9c-0.7,0-1.4,0-2,0
				c-0.9,0-1.9,0.1-2.8,0.2c0,0-0.8,0.1-1.9,0.3C90.2,95.8,89.9,97.7,90.1,99.6z"/>
		</g>
		<g>
			
				<linearGradient id="SVGID_8_" gradientUnits="userSpaceOnUse" x1="91.9234" y1="76.7411" x2="104.1956" y2="94.7003" gradientTransform="matrix(-0.9079 -0.4192 -0.4192 0.9079 237.9211 72.9327)">
				<stop  offset="0" style="stop-color:#8BB2C5"/>
				<stop  offset="0.1547" style="stop-color:#9DBECE"/>
				<stop  offset="0.5233" style="stop-color:#C4D7E0"/>
				<stop  offset="0.818" style="stop-color:#DCE6EC"/>
				<stop  offset="1" style="stop-color:#E5ECF0"/>
			</linearGradient>
			<path fill="url(#SVGID_8_)" d="M109.2,97.4c12.2,6.1,14.9,13.6,15.4,17.2c0.2,1.3-0.2,2.6-1,3.6c-1.3,1.5-3.7,3.7-7.8,5.2
				c-1.7,0.6-3.6,0.1-4.8-1.2c-1.6-1.7-3.8-4.6-5.1-9c-0.9-3.4-3.1-6.6-4.1-8c-0.3-0.5-0.4-1.1-0.2-1.7c0.6-1.7,2.3-5.2,6.3-6.4
				C108.4,97.2,108.9,97.2,109.2,97.4z"/>
			<g>
				<path fill="#FFFFFF" d="M107.1,110.4c0.3,0.3,0.4,0.7,0.6,1s0.3,0.6,0.5,0.9s0.1,0.7-0.2,0.9c-0.3,0.2-0.7,0.1-0.9-0.2v-0.1l0,0
					c-0.2-0.4-0.3-0.7-0.4-1.1s-0.2-0.7-0.4-0.9l0,0c-0.1-0.3-0.1-0.6,0.2-0.7C106.7,110.1,107,110.2,107.1,110.4z"/>
			</g>
			<g>
				<path fill="#FFFFFF" d="M110.9,120.7c-0.3-0.5-0.5-0.9-0.8-1.3c-0.2-0.4-0.5-0.9-0.7-1.3c-0.4-0.9-0.8-1.8-1.1-2.8
					c-0.1-0.3,0.1-0.7,0.4-0.8c0.3-0.1,0.6,0,0.7,0.3l0,0c0.4,0.8,0.9,1.7,1.4,2.5c0.3,0.4,0.5,0.8,0.8,1.2c0.3,0.4,0.6,0.8,0.9,1.1
					l0,0c0.4,0.4,0.3,1.1-0.1,1.4c-0.4,0.4-1.1,0.3-1.4-0.1C111,120.8,110.9,120.7,110.9,120.7z"/>
			</g>
		</g>
		
			<linearGradient id="SVGID_9_" gradientUnits="userSpaceOnUse" x1="109.9986" y1="40.3332" x2="113.3912" y2="40.3332" gradientTransform="matrix(-0.9685 0.2489 -0.2489 -0.9685 239.6606 141.9002)">
			<stop  offset="0" style="stop-color:#8BB2C5"/>
			<stop  offset="0.1547" style="stop-color:#9DBECE"/>
			<stop  offset="0.5233" style="stop-color:#C4D7E0"/>
			<stop  offset="0.818" style="stop-color:#DCE6EC"/>
			<stop  offset="1" style="stop-color:#E5ECF0"/>
		</linearGradient>
		<path fill="url(#SVGID_9_)" d="M119.8,131.1c0.2,0.6,1,1,1.9,0.7s1.5-0.9,1.3-1.6c-0.2-0.6-1-1-1.9-0.7S119.6,130.4,119.8,131.1z"
			/>
		
			<linearGradient id="SVGID_10_" gradientUnits="userSpaceOnUse" x1="80.6416" y1="-47.738" x2="84.1211" y2="-47.738" gradientTransform="matrix(-0.6085 -0.8484 0.8126 -0.5828 205.3834 170.9175)">
			<stop  offset="0" style="stop-color:#8BB2C5"/>
			<stop  offset="0.1547" style="stop-color:#9DBECE"/>
			<stop  offset="0.5233" style="stop-color:#C4D7E0"/>
			<stop  offset="0.818" style="stop-color:#DCE6EC"/>
			<stop  offset="1" style="stop-color:#E5ECF0"/>
		</linearGradient>
		<path fill="url(#SVGID_10_)" d="M115.4,127.4c-0.5,0.4-0.5,1.4,0.1,2.2s1.5,1.2,2.1,0.8c0.5-0.4,0.5-1.4-0.1-2.2
			C116.9,127.3,115.9,127,115.4,127.4z"/>
		
			<linearGradient id="SVGID_11_" gradientUnits="userSpaceOnUse" x1="81.1779" y1="82.7647" x2="84.5705" y2="82.7647" gradientTransform="matrix(-0.6896 0.7242 -0.7242 -0.6896 242.3135 125.4331)">
			<stop  offset="0" style="stop-color:#8BB2C5"/>
			<stop  offset="0.1547" style="stop-color:#9DBECE"/>
			<stop  offset="0.5233" style="stop-color:#C4D7E0"/>
			<stop  offset="0.818" style="stop-color:#DCE6EC"/>
			<stop  offset="1" style="stop-color:#E5ECF0"/>
		</linearGradient>
		<path fill="url(#SVGID_11_)" d="M124.1,129.6c0.5,0.5,1.4,0.3,2-0.4s0.8-1.6,0.3-2.1s-1.4-0.3-2,0.4
			C123.7,128.2,123.6,129.1,124.1,129.6z"/>
		
			<linearGradient id="SVGID_12_" gradientUnits="userSpaceOnUse" x1="34.5674" y1="103.9745" x2="37.9601" y2="103.9745" gradientTransform="matrix(-0.2035 0.9791 -0.9791 -0.2035 236.4429 110.2462)">
			<stop  offset="0" style="stop-color:#8BB2C5"/>
			<stop  offset="0.1547" style="stop-color:#9DBECE"/>
			<stop  offset="0.5233" style="stop-color:#C4D7E0"/>
			<stop  offset="0.818" style="stop-color:#DCE6EC"/>
			<stop  offset="1" style="stop-color:#E5ECF0"/>
		</linearGradient>
		<path fill="url(#SVGID_12_)" d="M126.9,126.3c0.6,0.1,1.3-0.5,1.5-1.4s-0.2-1.8-0.8-1.9c-0.6-0.1-1.3,0.5-1.5,1.4
			C125.9,125.3,126.3,126.1,126.9,126.3z"/>
	</g>
</g>
<g id="Body">
	<g>
		<g>
			<defs>
				<circle id="SVGID_13_" cx="75" cy="75" r="60"/>
			</defs>
			<clipPath id="SVGID_14_">
				<use xlink:href="#SVGID_13_"  overflow="visible"/>
			</clipPath>
			<g clip-path="url(#SVGID_14_)">
				
					<radialGradient id="SVGID_15_" cx="84.4376" cy="51.1469" r="40.314" gradientTransform="matrix(1 0 0 -1 0 150)" gradientUnits="userSpaceOnUse">
					<stop  offset="0" style="stop-color:#E5ECF0"/>
					<stop  offset="0.3988" style="stop-color:#E3EBEF"/>
					<stop  offset="0.5758" style="stop-color:#DCE6EC"/>
					<stop  offset="0.7091" style="stop-color:#CFDEE5"/>
					<stop  offset="0.8203" style="stop-color:#BDD2DD"/>
					<stop  offset="0.9168" style="stop-color:#A6C3D2"/>
					<stop  offset="1" style="stop-color:#8BB2C5"/>
				</radialGradient>
				<path fill="url(#SVGID_15_)" d="M101.2,113.2c0,13.4-11.7,24.3-26.1,24.3S49,126.6,49,113.2s3.7-29.7,26.1-29.7
					c19.2,0,24.6,11.9,25.8,23.8c0.1,0.7,0.1,1.4,0.2,2.1C101.2,110.6,101.2,111.9,101.2,113.2z"/>
				<path fill="#00CCFF" d="M82.4,105.6c-3.9,0.7-6.9,4.7-6.7,9c0.1,4.3,3.4,7.2,7.2,6.5s6.9-4.7,6.7-9
					C89.5,107.8,86.3,104.9,82.4,105.6"/>
				<path fill="#002855" d="M82.4,106.9c-3.2,0.6-5.7,3.9-5.6,7.5s2.8,6,6,5.5c3.2-0.6,5.7-3.9,5.6-7.5
					C88.3,108.7,85.6,106.3,82.4,106.9"/>
				<polyline fill="#FFFFFF" points="85.1,109.2 83.9,109.4 82.5,112.7 81.8,112.8 81.7,109.8 79.5,110.2 79.5,110.9 80.4,110.8 
					80.6,117.4 81.9,117.1 81.8,113.7 82.3,113.6 84.2,116.7 85.8,116.5 83.4,112.4 84.4,110.1 85.1,110 85.1,109.2 				"/>
				<path fill="#FFFFFF" d="M96.4,102.1l0.3,1c0.1,0.3-0.1,0.5-0.3,0.6c-0.3,0.1-0.5-0.1-0.6-0.3v-0.1l0,0v-1l0,0
					c0-0.2,0.2-0.4,0.4-0.4C96.2,101.8,96.4,102,96.4,102.1z"/>
				<path fill="#FFFFFF" d="M93.1,92.5c0.4,0.6,0.7,1.2,1,1.8c0.3,0.6,0.6,1.2,0.8,1.9c0.5,1.3,0.9,2.6,1.2,3.9
					c0,0.2-0.1,0.4-0.3,0.4c-0.2,0-0.3-0.1-0.4-0.2c-0.5-1.2-1.1-2.4-1.8-3.5c-0.3-0.6-0.7-1.1-1.1-1.6s-0.8-1-1.2-1.5l0,0
					c-0.4-0.4-0.4-1,0-1.4s1-0.4,1.4,0C93,92.4,93,92.5,93.1,92.5z"/>
				<g>
					<path fill="#002855" d="M101.1,109.4c-2.2,1.5-4.8,2.8-7.6,3.7c-0.1,0-0.2,0-0.3,0c-0.4,0-0.7-0.2-0.9-0.6
						c-0.2-0.5,0.1-1,0.6-1.1c3.1-1,5.7-2.4,8-4.1C101,108,101,108.7,101.1,109.4z"/>
				</g>
				<g>
					<path fill="#002855" d="M71.2,115.1C71.1,115.1,71.1,115.1,71.2,115.1c-5.1-0.2-10.5-0.9-16.1-2.1c-0.5-0.1-0.8-0.6-0.7-1.1
						s0.6-0.8,1.1-0.7c5.5,1.2,10.9,1.9,15.8,2.1c0.5,0,0.9,0.4,0.9,0.9C72,114.7,71.6,115.1,71.2,115.1z"/>
				</g>
				
					<radialGradient id="SVGID_16_" cx="79.4288" cy="58.9399" r="8.2418" gradientTransform="matrix(1 0 0 -1 0 150)" gradientUnits="userSpaceOnUse">
					<stop  offset="0" style="stop-color:#003978"/>
					<stop  offset="1" style="stop-color:#002855"/>
				</radialGradient>
				<ellipse fill="url(#SVGID_16_)" cx="79.4" cy="91.1" rx="8.9" ry="7.6"/>
			</g>
		</g>
	</g>
</g>
<g id="Right_Arm">
	<g>
		<g>
			<g>
				
					<radialGradient id="SVGID_17_" cx="7.4564" cy="70.2315" r="4.1175" gradientTransform="matrix(0.8859 -0.4639 0.4639 0.8859 -4.311 74.7214)" gradientUnits="userSpaceOnUse">
					<stop  offset="0" style="stop-color:#004A9C"/>
					<stop  offset="1" style="stop-color:#003979"/>
				</radialGradient>
				<path fill="url(#SVGID_17_)" d="M36.5,131.4c-0.4-0.8-1-1.6-1.7-2.5c-0.4-0.5-1-0.6-1.5-0.5c-0.3,0.1-0.5,0.2-0.7,0.4
					c-0.7,0.6-0.7,1.6-0.2,2.2c0.4,0.4,0.7,0.9,1,1.4c0,0.1,0.1,0.1,0.1,0.2c0.5,0.9,0.9,1.9,0.9,2.8v0.3c0,0.4,0,0.8-0.1,1.3
					c-0.2,0.9,0.4,1.7,1.2,1.9c0.9,0.2,1.7-0.4,1.9-1.2c0.1-0.7,0.2-1.5,0.1-2.5V135c-0.1-0.9-0.4-2-0.9-3.1
					C36.6,131.6,36.5,131.5,36.5,131.4z"/>
			</g>
			<g opacity="0.6">
				<path fill="#FFFFFF" d="M37.6,135c-1.7-0.2-2.8,0.4-3.1,0.6v-0.3c0,0,0,0,0.1,0c0.5-0.3,1.6-0.7,3.1-0.5L37.6,135z"/>
			</g>
			<g opacity="0.6">
				<path fill="#FFFFFF" d="M36.5,131.4c-0.9-0.2-1.8,0.2-2.4,0.5c-0.3,0.2-0.6,0.3-0.7,0.4c0,0.1,0.1,0.1,0.1,0.2
					c0.5-0.3,1.9-1.2,3.1-0.8C36.6,131.6,36.5,131.5,36.5,131.4z"/>
			</g>
		</g>
		<path opacity="7.000000e-02" fill="#01060A" enable-background="new    " d="M56.1,108.1c-0.1,0-0.3,0-0.4,0
			c-0.3,0-0.4-0.1-0.6-0.2c-0.1,0-0.3-0.1-0.4-0.2c-2-1-3.1-4-2.7-7.3c0.2-1.2,0.5-2.3,1-3.3c0-0.1,0.1-0.2,0.1-0.3
			c1-1.8,2.5-2.9,4-2.9c0.1,0,0.3,0,0.4,0c0.1,0,0.2,0,0.3,0.1c0.5,0.1,1,0.3,1.4,0.6c1.6,1.3,2.5,4,2.1,6.9c-0.2,1.2-0.5,2.2-1,3.2
			c0,0.1-0.1,0.1-0.1,0.2C59.2,107,57.7,108.1,56.1,108.1z"/>
		<path d="M60.4,101.5c-0.1,1.1-0.5,2.1-0.9,2.9c0,0.1-0.1,0.2-0.1,0.2c-0.2,0.3-0.3,0.6-0.5,0.8c-0.8,1.1-1.9,1.8-3,1.6
			c-0.2,0-0.3,0-0.4-0.1c-0.1,0-0.2-0.1-0.3-0.1c-0.7-0.3-1.3-1-1.7-1.9c-0.5-1.2-0.8-2.8-0.5-4.5c0.1-1.1,0.5-2.1,0.9-3
			c0-0.1,0.1-0.2,0.1-0.2c0.3-0.5,0.6-1,1-1.4c0.8-0.8,1.7-1.2,2.6-1.1c0.1,0,0.1,0,0.2,0c0.4,0.1,0.7,0.2,1,0.5s0.6,0.6,0.9,1
			C60.3,97.7,60.7,99.5,60.4,101.5z"/>
		<g>
			<g>
				
					<radialGradient id="SVGID_18_" cx="2.4023" cy="69.3825" r="5.1524" gradientTransform="matrix(0.9079 -0.4192 0.4192 0.9079 -1.5404 72.9327)" gradientUnits="userSpaceOnUse">
					<stop  offset="0" style="stop-color:#004A9C"/>
					<stop  offset="1" style="stop-color:#003979"/>
				</radialGradient>
				<path fill="url(#SVGID_18_)" d="M30.6,128.4c-0.3-0.1-0.6-0.2-0.9-0.1c-0.5,0.1-0.9,0.4-1.2,0.9c-0.9,1.8-1.2,3.6-1.3,5.3
					c0,0.1,0,0.2,0,0.3c0,1.3,0.1,2.6,0.3,3.5l0,0c0,0.1,0,0.2,0,0.2c0.2,1.2,0.5,2,0.5,2.1c0.3,0.8,1.2,1.3,2,1s1.3-1.2,1-2
					c0,0-0.2-0.6-0.3-1.4l-0.1-0.3c-0.1-0.9-0.3-1.9-0.2-3.1c0-0.1,0-0.2,0-0.2c0.1-1.3,0.3-2.7,0.9-4
					C31.7,129.7,31.4,128.8,30.6,128.4z"/>
			</g>
			<g opacity="0.6">
				<path fill="#FFFFFF" d="M27.5,138.2c0.1-0.1,0.2-0.1,0.4-0.2c0.6-0.3,1.6-0.6,2.7-0.1l0.1,0.3c-1.4-0.7-2.9,0.1-3.2,0.3V138.2z"
					/>
				<path fill="none" d="M27.5,138.2L27.5,138.2L27.5,138.2"/>
			</g>
			<g opacity="0.6">
				<path fill="#FFFFFF" d="M30.4,134.5c-1.5-0.6-2.6-0.3-3.1-0.1h-0.1c0,0.1,0,0.2,0,0.3c0.3-0.1,1.4-0.7,3.2,0.1
					C30.4,134.6,30.4,134.6,30.4,134.5z"/>
			</g>
		</g>
		<g>
			<g>
				
					<radialGradient id="SVGID_19_" cx="83.6741" cy="-22.5619" r="5.1524" gradientTransform="matrix(0.9896 -0.1435 0.1435 0.9896 -54.5228 167.4197)" gradientUnits="userSpaceOnUse">
					<stop  offset="0" style="stop-color:#004A9C"/>
					<stop  offset="1" style="stop-color:#003979"/>
				</radialGradient>
				<path fill="url(#SVGID_19_)" d="M27.7,127c-0.3-0.2-0.6-0.4-0.9-0.4c-0.5-0.1-1,0.1-1.4,0.5c-1.3,1.4-2.2,3.1-2.7,4.7
					c0,0.1-0.1,0.2-0.1,0.2c-0.4,1.3-0.6,2.5-0.8,3.5l0,0c0,0.1,0,0.2,0,0.2c-0.1,1.2-0.1,2.1-0.1,2.1c0,0.9,0.8,1.6,1.6,1.5
					c0.9,0,1.6-0.8,1.5-1.6c0,0,0-0.6,0.1-1.5v-0.3c0.1-0.9,0.3-1.9,0.7-3.1c0-0.1,0-0.2,0.1-0.2c0.4-1.2,1.1-2.5,2-3.6
					C28.4,128.6,28.4,127.6,27.7,127z"/>
			</g>
			<g opacity="0.6">
				<path fill="#FFFFFF" d="M22,135.6c0.1,0,0.3-0.1,0.5-0.1c0.7-0.1,1.7-0.1,2.6,0.7v0.3c-1.2-1.1-2.8-0.7-3.1-0.6V135.6z"/>
				<path fill="none" d="M22,135.6L22,135.6L22,135.6"/>
			</g>
			<g opacity="0.6">
				<path fill="#FFFFFF" d="M25.8,132.8c-1.3-1-2.4-1.1-2.9-1h-0.1c0,0.1-0.1,0.2-0.1,0.2c0.3-0.1,1.5-0.3,3,0.9
					C25.8,133,25.8,132.9,25.8,132.8z"/>
			</g>
		</g>
		<g>
			<g>
				
					<radialGradient id="SVGID_20_" cx="154.5303" cy="-199.7632" r="5.1524" gradientTransform="matrix(0.9563 0.2923 -0.2923 0.9563 -184.3424 274.8008)" gradientUnits="userSpaceOnUse">
					<stop  offset="0" style="stop-color:#004A9C"/>
					<stop  offset="1" style="stop-color:#003979"/>
				</radialGradient>
				<path fill="url(#SVGID_20_)" d="M26.8,124.6c-0.1-0.3-0.3-0.6-0.6-0.7c-0.4-0.3-1-0.3-1.5-0.1c-1.8,0.7-3.3,1.9-4.5,3.1
					c-0.1,0.1-0.1,0.1-0.2,0.2c-0.9,1-1.6,2-2.2,2.8l0,0c0,0.1-0.1,0.1-0.1,0.2c-0.6,1.1-1,1.8-1,1.9c-0.3,0.8,0,1.7,0.8,2.1
					c0.8,0.3,1.7,0,2.1-0.8c0,0,0.2-0.5,0.7-1.3l0.1-0.2c0.5-0.7,1.1-1.6,1.9-2.5c0-0.1,0.1-0.1,0.2-0.2c0.9-0.9,2-1.8,3.4-2.3
					C26.8,126.4,27.2,125.4,26.8,124.6z"/>
			</g>
			<g opacity="0.6">
				<path fill="#FFFFFF" d="M18,129.9c0.1,0,0.3,0.1,0.5,0.1c0.6,0.2,1.6,0.7,2.1,1.7l-0.1,0.2c-0.6-1.5-2.2-1.8-2.6-1.9L18,129.9z"
					/>
				<path fill="none" d="M18,129.9L18,129.9L18,129.9"/>
			</g>
			<g opacity="0.6">
				<path fill="#FFFFFF" d="M22.6,129c-0.7-1.5-1.7-2-2.2-2.1h-0.1c-0.1,0.1-0.1,0.1-0.2,0.2c0.3,0.1,1.5,0.4,2.3,2.1
					C22.5,129.2,22.6,129.1,22.6,129z"/>
			</g>
		</g>
		
			<radialGradient id="SVGID_21_" cx="84.3277" cy="-13.8617" r="9.9386" gradientTransform="matrix(0.9871 -0.1603 0.1603 0.9871 -52.2523 161.1772)" gradientUnits="userSpaceOnUse">
			<stop  offset="0" style="stop-color:#002855"/>
			<stop  offset="0.4671" style="stop-color:#002753"/>
			<stop  offset="0.7099" style="stop-color:#00234B"/>
			<stop  offset="0.9004" style="stop-color:#001D3E"/>
			<stop  offset="1" style="stop-color:#001833"/>
		</radialGradient>
		<path fill="url(#SVGID_21_)" d="M34.3,131.4c1.9-2.2,1.1-5.9-1.8-8.4s-6.7-2.7-8.6-0.6c-1.9,2.2-1.1,5.9,1.8,8.4
			S32.4,133.6,34.3,131.4z"/>
		<g>
			
				<radialGradient id="SVGID_22_" cx="50.4776" cy="50.2017" r="10.6239" gradientTransform="matrix(1 0 0 -1 0 150)" gradientUnits="userSpaceOnUse">
				<stop  offset="0" style="stop-color:#003978"/>
				<stop  offset="1" style="stop-color:#002855"/>
			</radialGradient>
			<path fill="url(#SVGID_22_)" d="M60.4,101.5c-0.1,1.1-0.5,2.1-0.9,2.9c0,0.1-0.1,0.2-0.1,0.2c-0.2,0.3-0.3,0.6-0.5,0.8
				c-1.2-0.3-2.3-0.4-3.3-0.5c-0.8-0.1-1.5-0.1-2.1,0c-1.8,0.1-3.2,0.4-4.5,0.9c-2.4,1-3.9,2.5-5,3.8c-1.6,1.9-4.4,2.2-6.3,0.6
				c-1.9-1.6-2.2-4.4-0.6-6.3c1.6-2,3.5-3.6,5.5-4.9c0.7-0.5,1.5-0.9,2.3-1.2c2.5-1.1,5.2-1.8,8.1-1.9c0.7,0,1.4,0,2,0
				c0.9,0,1.9,0.1,2.8,0.2c0,0,0.8,0.1,1.9,0.3C60.3,97.7,60.7,99.5,60.4,101.5z"/>
		</g>
		<g>
			
				<linearGradient id="SVGID_23_" gradientUnits="userSpaceOnUse" x1="13.1638" y1="42.4757" x2="25.4359" y2="60.4349" gradientTransform="matrix(0.9079 -0.4192 0.4192 0.9079 -1.5404 72.9327)">
				<stop  offset="0" style="stop-color:#8BB2C5"/>
				<stop  offset="0.1547" style="stop-color:#9DBECE"/>
				<stop  offset="0.5233" style="stop-color:#C4D7E0"/>
				<stop  offset="0.818" style="stop-color:#DCE6EC"/>
				<stop  offset="1" style="stop-color:#E5ECF0"/>
			</linearGradient>
			<path fill="url(#SVGID_23_)" d="M41.3,99.3c-12.2,6.1-14.9,13.6-15.4,17.2c-0.2,1.3,0.2,2.6,1,3.6c1.3,1.5,3.7,3.7,7.8,5.2
				c1.7,0.6,3.6,0.1,4.8-1.2c1.6-1.7,3.8-4.6,5.1-9c0.9-3.4,3.1-6.6,4.1-8c0.3-0.5,0.4-1.1,0.2-1.7c-0.6-1.7-2.3-5.2-6.3-6.4
				C42.1,99.1,41.7,99.1,41.3,99.3z"/>
			<g>
				<path fill="#FFFFFF" d="M44.2,112.9c-0.1,0.2-0.2,0.5-0.4,0.9c-0.1,0.4-0.3,0.7-0.4,1.1l0,0c-0.2,0.3-0.6,0.5-0.9,0.3
					s-0.5-0.6-0.3-0.9v-0.1c0.2-0.3,0.3-0.6,0.5-0.9s0.3-0.7,0.6-1c0.2-0.2,0.5-0.3,0.7-0.1C44.3,112.3,44.4,112.6,44.2,112.9
					L44.2,112.9z"/>
			</g>
			<g>
				<path fill="#FFFFFF" d="M38,121.4c0.3-0.3,0.6-0.7,0.9-1.1c0.3-0.4,0.5-0.8,0.8-1.2c0.5-0.8,1-1.6,1.4-2.5l0,0
					c0.2-0.3,0.5-0.4,0.8-0.3s0.4,0.5,0.3,0.7c-0.3,1-0.7,1.9-1.1,2.8c-0.2,0.5-0.4,0.9-0.7,1.3c-0.2,0.4-0.5,0.9-0.8,1.3
					c-0.3,0.5-0.9,0.6-1.4,0.3C37.7,122.4,37.6,121.8,38,121.4C37.9,121.5,38,121.4,38,121.4L38,121.4z"/>
			</g>
		</g>
		
			<linearGradient id="SVGID_24_" gradientUnits="userSpaceOnUse" x1="27.3122" y1="17.2133" x2="30.7048" y2="17.2133" gradientTransform="matrix(0.9685 0.2489 0.2489 -0.9685 -3.2799 141.9002)">
			<stop  offset="0" style="stop-color:#8BB2C5"/>
			<stop  offset="0.1547" style="stop-color:#9DBECE"/>
			<stop  offset="0.5233" style="stop-color:#C4D7E0"/>
			<stop  offset="0.818" style="stop-color:#DCE6EC"/>
			<stop  offset="1" style="stop-color:#E5ECF0"/>
		</linearGradient>
		<path fill="url(#SVGID_24_)" d="M30.7,132.9c-0.2,0.6-1,1-1.9,0.7c-0.9-0.2-1.5-0.9-1.3-1.6s1-1,1.9-0.7
			C30.3,131.6,30.9,132.3,30.7,132.9z"/>
		
			<linearGradient id="SVGID_25_" gradientUnits="userSpaceOnUse" x1="31.2502" y1="20.9417" x2="34.7297" y2="20.9417" gradientTransform="matrix(0.6085 -0.8484 -0.8126 -0.5828 30.9973 170.9175)">
			<stop  offset="0" style="stop-color:#8BB2C5"/>
			<stop  offset="0.1547" style="stop-color:#9DBECE"/>
			<stop  offset="0.5233" style="stop-color:#C4D7E0"/>
			<stop  offset="0.818" style="stop-color:#DCE6EC"/>
			<stop  offset="1" style="stop-color:#E5ECF0"/>
		</linearGradient>
		<path fill="url(#SVGID_25_)" d="M35.1,129.3c0.5,0.4,0.5,1.4-0.1,2.2s-1.5,1.2-2.1,0.8c-0.5-0.4-0.5-1.4,0.1-2.2
			C33.7,129.2,34.6,128.9,35.1,129.3z"/>
		
			<linearGradient id="SVGID_26_" gradientUnits="userSpaceOnUse" x1="23.3404" y1="19.333" x2="26.7331" y2="19.333" gradientTransform="matrix(0.6896 0.7242 0.7242 -0.6896 -5.9328 125.4331)">
			<stop  offset="0" style="stop-color:#8BB2C5"/>
			<stop  offset="0.1547" style="stop-color:#9DBECE"/>
			<stop  offset="0.5233" style="stop-color:#C4D7E0"/>
			<stop  offset="0.818" style="stop-color:#DCE6EC"/>
			<stop  offset="1" style="stop-color:#E5ECF0"/>
		</linearGradient>
		<path fill="url(#SVGID_26_)" d="M26.5,131.5c-0.5,0.5-1.4,0.3-2-0.4s-0.8-1.6-0.3-2.1s1.4-0.3,2,0.4S27,131,26.5,131.5z"/>
		
			<linearGradient id="SVGID_27_" gradientUnits="userSpaceOnUse" x1="18.9384" y1="19.5263" x2="22.331" y2="19.5263" gradientTransform="matrix(0.2035 0.9791 0.9791 -0.2035 -6.209612e-02 110.2462)">
			<stop  offset="0" style="stop-color:#8BB2C5"/>
			<stop  offset="0.1547" style="stop-color:#9DBECE"/>
			<stop  offset="0.5233" style="stop-color:#C4D7E0"/>
			<stop  offset="0.818" style="stop-color:#DCE6EC"/>
			<stop  offset="1" style="stop-color:#E5ECF0"/>
		</linearGradient>
		<path fill="url(#SVGID_27_)" d="M23.6,128.1c-0.6,0.1-1.3-0.5-1.5-1.4s0.2-1.8,0.8-1.9s1.3,0.5,1.5,1.4
			C24.6,127.2,24.2,128,23.6,128.1z"/>
	</g>
</g>
<g id="Head">
	<g>
		<g>
			
				<radialGradient id="SVGID_28_" cx="-85.5522" cy="178.9792" r="9.9806" gradientTransform="matrix(0.9848 0.1736 0.1912 -1.0845 78.031 241.5048)" gradientUnits="userSpaceOnUse">
				<stop  offset="0" style="stop-color:#002855"/>
				<stop  offset="0.4671" style="stop-color:#002753"/>
				<stop  offset="0.7099" style="stop-color:#00234B"/>
				<stop  offset="0.9004" style="stop-color:#001D3E"/>
				<stop  offset="1" style="stop-color:#001833"/>
			</radialGradient>
			<polygon fill="url(#SVGID_28_)" points="27.4,48 23.2,47.3 30.9,17.5 32.8,17.8 			"/>
			<g>
				
					<linearGradient id="SVGID_29_" gradientUnits="userSpaceOnUse" x1="-87.0812" y1="240.0604" x2="-81.9259" y2="248.5726" gradientTransform="matrix(0.9848 0.1736 0.1736 -0.9848 73.0189 269.9473)">
					<stop  offset="0" style="stop-color:#8BB2C5"/>
					<stop  offset="0.1599" style="stop-color:#A6C3D2"/>
					<stop  offset="0.3675" style="stop-color:#C1D5DF"/>
					<stop  offset="0.5769" style="stop-color:#D5E2E8"/>
					<stop  offset="0.7872" style="stop-color:#E1E9EE"/>
					<stop  offset="1" style="stop-color:#E5ECF0"/>
				</linearGradient>
				<path fill="url(#SVGID_29_)" d="M31.3,20.4L31.3,20.4c-1.8-0.3-3-2-2.7-3.8l0.9-5.2c0.3-1.8,2-3,3.8-2.7l0,0
					c1.8,0.3,3,2,2.7,3.8l-0.9,5.2C34.9,19.5,33.1,20.7,31.3,20.4z"/>
				<g>
					<path fill="#FFFFFF" d="M34.9,16.1l-0.2,1.5c0,0.2-0.3,0.4-0.5,0.4s-0.4-0.3-0.4-0.5l0,0l0.3-1.5c0-0.2,0.2-0.3,0.4-0.3
						C34.8,15.8,34.9,15.9,34.9,16.1z"/>
				</g>
				<g>
					<path fill="#FFFFFF" d="M34.8,10.3c0.5,0.5,0.8,1.2,0.7,2c0,0.4-0.1,0.7-0.1,1s-0.1,0.6-0.2,1c0,0.2-0.3,0.4-0.5,0.3
						c-0.2,0-0.3-0.2-0.3-0.4c0-0.3,0.1-0.6,0.2-1l0.2-0.9c0.1-0.5,0-1.1-0.3-1.6c-0.1-0.1,0-0.2,0.1-0.3
						C34.6,10.3,34.7,10.3,34.8,10.3z"/>
				</g>
			</g>
			<g>
				
					<linearGradient id="SVGID_30_" gradientUnits="userSpaceOnUse" x1="-883.6331" y1="81.2633" x2="-867.1938" y2="115.6066" gradientTransform="matrix(-0.9962 8.715574e-02 -8.715574e-02 -0.9962 -742.0275 219.9901)">
					<stop  offset="0" style="stop-color:#8BB2C5"/>
					<stop  offset="0.1599" style="stop-color:#A6C3D2"/>
					<stop  offset="0.3675" style="stop-color:#C1D5DF"/>
					<stop  offset="0.5769" style="stop-color:#D5E2E8"/>
					<stop  offset="0.7872" style="stop-color:#E1E9EE"/>
					<stop  offset="1" style="stop-color:#E5ECF0"/>
				</linearGradient>
				<path fill="url(#SVGID_30_)" d="M114.8,51c0.7,8.3,5.5,14.7,10.7,14.2s8.8-7.6,8-15.9c-0.7-8.3-5.5-14.7-10.7-14.2
					C117.6,35.6,114,42.7,114.8,51z"/>
				
					<radialGradient id="SVGID_31_" cx="-876.6298" cy="93.6415" r="12.8408" gradientTransform="matrix(-0.9962 8.715574e-02 -8.715574e-02 -0.9962 -742.0275 219.9901)" gradientUnits="userSpaceOnUse">
					<stop  offset="0" style="stop-color:#003978"/>
					<stop  offset="1" style="stop-color:#002855"/>
				</radialGradient>
				<path fill="url(#SVGID_31_)" d="M123.2,50.3c-0.6-6.5-2.7-12.2-6.2-17.1c3-0.2,5.8,1.2,7,3.5c2,4,3.2,8.5,3.6,13.2
					s0,9.3-1.3,13.6c-0.7,2.5-3.2,4.4-6.2,4.7C122.7,62.8,123.8,56.7,123.2,50.3z"/>
				<g>
					<path fill="#FFFFFF" d="M127,37.5c0.4,0.3,0.6,0.6,0.9,0.9c0.3,0.3,0.6,0.6,0.8,1c0.5,0.7,1,1.4,1.5,2.1l0,0
						c0.3,0.5,0.1,1.1-0.3,1.4c-0.5,0.3-1.1,0.1-1.4-0.3c0,0-0.1-0.1-0.1-0.2c-0.3-0.7-0.6-1.4-1-2.1c-0.2-0.3-0.4-0.7-0.6-1
						s-0.4-0.7-0.7-0.9l0,0c-0.2-0.3-0.2-0.6,0.1-0.8C126.5,37.3,126.8,37.4,127,37.5z"/>
				</g>
				
					<linearGradient id="SVGID_32_" gradientUnits="userSpaceOnUse" x1="17.6948" y1="81.2401" x2="34.134" y2="115.5833" gradientTransform="matrix(0.9962 -8.715574e-02 -8.715574e-02 -0.9962 11.0453 154.1047)">
					<stop  offset="0" style="stop-color:#8BB2C5"/>
					<stop  offset="0.1599" style="stop-color:#A6C3D2"/>
					<stop  offset="0.3675" style="stop-color:#C1D5DF"/>
					<stop  offset="0.5769" style="stop-color:#D5E2E8"/>
					<stop  offset="0.7872" style="stop-color:#E1E9EE"/>
					<stop  offset="1" style="stop-color:#E5ECF0"/>
				</linearGradient>
				<path fill="url(#SVGID_32_)" d="M35.8,57.9c0.7,8.3-2.9,15.4-8,15.9s-9.9-5.9-10.7-14.2s2.9-15.4,8-15.9S35,49.6,35.8,57.9z"/>
				
					<radialGradient id="SVGID_33_" cx="24.6417" cy="93.6633" r="12.8264" gradientTransform="matrix(0.9962 -8.715574e-02 -8.715574e-02 -0.9962 11.0453 154.1047)" gradientUnits="userSpaceOnUse">
					<stop  offset="0" style="stop-color:#003978"/>
					<stop  offset="1" style="stop-color:#002855"/>
				</radialGradient>
				<path fill="url(#SVGID_33_)" d="M27.3,58.7c-0.6-6.5,0.5-12.5,3.1-17.9c-3,0.3-5.5,2.2-6.2,4.7c-1.2,4.3-1.7,8.9-1.3,13.6
					c0.4,4.7,1.6,9.1,3.6,13.2c1.1,2.3,3.9,3.8,7,3.5C30,70.9,27.9,65.1,27.3,58.7z"/>
				<g>
					<path fill="#FFFFFF" d="M22.4,47.5c-0.2,0.3-0.3,0.7-0.5,1c-0.2,0.4-0.3,0.7-0.4,1.1c-0.3,0.7-0.5,1.5-0.6,2.3
						c-0.1,0.5-0.6,0.9-1.2,0.8s-0.9-0.6-0.8-1.2c0-0.1,0-0.1,0-0.2l0,0c0.3-0.8,0.7-1.6,1.1-2.3c0.2-0.4,0.4-0.7,0.7-1.1
						c0.2-0.4,0.5-0.7,0.8-1.1c0.2-0.3,0.6-0.3,0.8-0.1C22.5,46.9,22.5,47.2,22.4,47.5L22.4,47.5z"/>
				</g>
			</g>
			
				<radialGradient id="SVGID_34_" cx="73.5921" cy="103.8524" r="54.833" gradientTransform="matrix(0.9063 0.4226 0.3973 -0.8519 -32.6534 101.6019)" gradientUnits="userSpaceOnUse">
				<stop  offset="0" style="stop-color:#E5ECF0"/>
				<stop  offset="0.3988" style="stop-color:#E3EBEF"/>
				<stop  offset="0.5758" style="stop-color:#DCE6EC"/>
				<stop  offset="0.7091" style="stop-color:#CFDEE5"/>
				<stop  offset="0.8203" style="stop-color:#BDD2DD"/>
				<stop  offset="0.9168" style="stop-color:#A6C3D2"/>
				<stop  offset="1" style="stop-color:#8BB2C5"/>
			</radialGradient>
			<path fill="url(#SVGID_34_)" d="M78.5,91.8c-13.1,1.1-24.7-0.6-33.5-5.1C33.9,81,27.2,71.1,26.1,58.8C25,46.4,29.9,35.5,39.9,28
				c7.9-6,19-9.7,32.1-10.9c13.1-1.1,24.7,0.6,33.5,5.1c11.1,5.6,17.8,15.6,18.9,27.9s-3.8,23.3-13.8,30.8
				C102.7,86.9,91.6,90.6,78.5,91.8z"/>
			<polygon fill="#A2CFE5" points="74.3,19.9 75,19.8 75,19.1 73.7,19.2 72.3,22.3 71.5,22.3 71.3,19.4 68.9,19.6 69,20.4 
				69.9,20.3 70.4,26.6 71.9,26.5 71.6,23.1 72.1,23.1 74.4,26.3 76.1,26.1 73.3,22 			"/>
			<g>
				<path fill="#FFFFFF" d="M87.1,20.1c5.8,0.8,11.6,2.4,16.8,5.3c0.4,0.2,0.6,0.8,0.4,1.2c-0.2,0.4-0.8,0.6-1.2,0.4l0,0
					c-5.1-2.4-10.7-3.5-16.3-3.9c-0.8-0.1-1.4-0.8-1.4-1.6C85.5,20.7,86.2,20.1,87.1,20.1C87.1,20.1,87.1,20.1,87.1,20.1z"/>
			</g>
			<g>
				<path fill="#FFFFFF" d="M109.3,28.8l2,1.3c0.5,0.4,0.7,1.1,0.3,1.6c-0.4,0.5-1.1,0.7-1.6,0.3c-0.1,0-0.1-0.1-0.2-0.2l-0.1-0.1
					l-1.6-1.6L108,30c-0.3-0.4-0.3-0.9,0-1.3C108.5,28.6,109,28.6,109.3,28.8z"/>
			</g>
		</g>
		
			<linearGradient id="SVGID_35_" gradientUnits="userSpaceOnUse" x1="72.6413" y1="67.717" x2="72.6413" y2="119.5737" gradientTransform="matrix(0.9962 -8.715574e-02 -8.715574e-02 -0.9962 11.0453 154.1047)">
			<stop  offset="0" style="stop-color:#04070A"/>
			<stop  offset="1" style="stop-color:#102B41"/>
		</linearGradient>
		<path fill="url(#SVGID_35_)" d="M106.4,68c3.5-4.3,5.3-9.9,4.7-16.6C109.6,33.3,92.8,26.9,73,28.6s-35.2,10.9-33.6,29
			S57.7,82,77.5,80.3c6.2-0.5,12-1.8,17-3.9l10.6,1.5L106.4,68z"/>
	</g>
</g>
<g>
	<g class="eyes2" id="eyes2">
		
			<rect x="63.7" y="41.9" transform="matrix(0.9962 -8.715574e-02 8.715574e-02 0.9962 -3.4709 5.7813)" fill="#00CCFF" width="1.5" height="1.5"/>
		
			<rect x="65.2" y="41.8" transform="matrix(0.9962 -8.715574e-02 8.715574e-02 0.9962 -3.4539 5.9107)" fill="#00CCFF" width="1.5" height="1.5"/>
		
			<rect x="63.9" y="43.4" transform="matrix(0.9962 -8.715574e-02 8.715574e-02 0.9962 -3.6004 5.7983)" fill="#00CCFF" width="1.5" height="1.5"/>
		
			<rect x="65.3" y="43.3" transform="matrix(0.9962 -8.715574e-02 8.715574e-02 0.9962 -3.5833 5.9278)" fill="#00CCFF" width="1.5" height="1.5"/>
		
			<rect x="61" y="45.1" transform="matrix(0.9962 -8.715574e-02 8.715574e-02 0.9962 -3.7639 5.5565)" fill="#00CCFF" width="1.5" height="1.5"/>
		
			<rect x="68.5" y="44.5" transform="matrix(0.9962 -8.715574e-02 8.715574e-02 0.9962 -3.6787 6.2037)" fill="#00CCFF" width="1.5" height="1.5"/>
		
			<rect x="61.1" y="46.6" transform="matrix(0.9962 -8.715574e-02 8.715574e-02 0.9962 -3.8933 5.5735)" fill="#00CCFF" width="1.5" height="1.5"/>
		
			<rect x="68.6" y="46" transform="matrix(0.9962 -8.715574e-02 8.715574e-02 0.9962 -3.8081 6.2207)" fill="#00CCFF" width="1.5" height="1.5"/>
		
			<rect x="64.2" y="47.9" transform="matrix(0.9962 -8.715574e-02 8.715574e-02 0.9962 -3.9887 5.8494)" fill="#00CCFF" width="1.5" height="1.5"/>
		
			<rect x="65.7" y="47.7" transform="matrix(0.9962 -8.715574e-02 8.715574e-02 0.9962 -3.9717 5.9789)" fill="#00CCFF" width="1.5" height="1.5"/>
		
			<rect x="64.4" y="49.3" transform="matrix(0.9962 -8.715574e-02 8.715574e-02 0.9962 -4.1181 5.8665)" fill="#00CCFF" width="1.5" height="1.5"/>
		
			<rect x="65.9" y="49.2" transform="matrix(0.9962 -8.715574e-02 8.715574e-02 0.9962 -4.1011 5.9959)" fill="#00CCFF" width="1.5" height="1.5"/>
		
			<rect x="83.1" y="40.2" transform="matrix(-0.9962 8.715574e-02 -8.715574e-02 -0.9962 170.9548 74.423)" fill="#00CCFF" width="1.5" height="1.5"/>
		
			<rect x="81.6" y="40.3" transform="matrix(-0.9962 8.715574e-02 -8.715574e-02 -0.9962 167.99 74.8133)" fill="#00CCFF" width="1.5" height="1.5"/>
		
			<rect x="83.2" y="41.7" transform="matrix(-0.9962 8.715574e-02 -8.715574e-02 -0.9962 171.3451 77.3878)" fill="#00CCFF" width="1.5" height="1.5"/>
		
			<rect x="81.7" y="41.8" transform="matrix(-0.9962 8.715574e-02 -8.715574e-02 -0.9962 168.3803 77.7781)" fill="#00CCFF" width="1.5" height="1.5"/>
		
			<rect x="86.3" y="42.9" transform="matrix(-0.9962 8.715574e-02 -8.715574e-02 -0.9962 177.665 79.5719)" fill="#00CCFF" width="1.5" height="1.5"/>
		
			<rect x="78.9" y="43.6" transform="matrix(-0.9962 8.715574e-02 -8.715574e-02 -0.9962 162.8411 81.5235)" fill="#00CCFF" width="1.5" height="1.5"/>
		
			<rect x="86.5" y="44.4" transform="matrix(-0.9962 8.715574e-02 -8.715574e-02 -0.9962 178.0553 82.5367)" fill="#00CCFF" width="1.5" height="1.5"/>
		
			<rect x="79" y="45.1" transform="matrix(-0.9962 8.715574e-02 -8.715574e-02 -0.9962 163.2314 84.4883)" fill="#00CCFF" width="1.5" height="1.5"/>
		
			<rect x="83.6" y="46.2" transform="matrix(-0.9962 8.715574e-02 -8.715574e-02 -0.9962 172.5161 86.2821)" fill="#00CCFF" width="1.5" height="1.5"/>
		
			<rect x="82.1" y="46.3" transform="matrix(-0.9962 8.715574e-02 -8.715574e-02 -0.9962 169.5513 86.6724)" fill="#00CCFF" width="1.5" height="1.5"/>
		
			<rect x="83.8" y="47.6" transform="matrix(-0.9962 8.715574e-02 -8.715574e-02 -0.9962 172.9064 89.2468)" fill="#00CCFF" width="1.5" height="1.5"/>
		
			<rect x="82.3" y="47.8" transform="matrix(-0.9962 8.715574e-02 -8.715574e-02 -0.9962 169.9416 89.6372)" fill="#00CCFF" width="1.5" height="1.5"/>
		
			<rect x="62.5" y="45" transform="matrix(0.9962 -8.715574e-02 8.715574e-02 0.9962 -3.7469 5.6859)" fill="#00CCFF" width="1.5" height="1.5"/>
		
			<rect x="64" y="44.9" transform="matrix(0.9962 -8.715574e-02 8.715574e-02 0.9962 -3.7298 5.8154)" fill="#00CCFF" width="1.5" height="1.5"/>
		
			<rect x="65.5" y="44.7" transform="matrix(0.9962 -8.715574e-02 8.715574e-02 0.9962 -3.7128 5.9448)" fill="#00CCFF" width="1.5" height="1.5"/>
		
			<rect x="67" y="44.6" transform="matrix(0.9962 -8.715574e-02 8.715574e-02 0.9962 -3.6957 6.0742)" fill="#00CCFF" width="1.5" height="1.5"/>
		
			<rect x="62.6" y="46.5" transform="matrix(0.9962 -8.715574e-02 8.715574e-02 0.9962 -3.8763 5.7029)" fill="#00CCFF" width="1.5" height="1.5"/>
		
			<rect x="64.1" y="46.4" transform="matrix(0.9962 -8.715574e-02 8.715574e-02 0.9962 -3.8593 5.8324)" fill="#00CCFF" width="1.5" height="1.5"/>
		
			<rect x="65.6" y="46.2" transform="matrix(0.9962 -8.715574e-02 8.715574e-02 0.9962 -3.8422 5.9618)" fill="#00CCFF" width="1.5" height="1.5"/>
		
			<rect x="67.1" y="46.1" transform="matrix(0.9962 -8.715574e-02 8.715574e-02 0.9962 -3.8252 6.0913)" fill="#00CCFF" width="1.5" height="1.5"/>
		
			<rect x="80.4" y="43.4" transform="matrix(0.9962 -8.715574e-02 8.715574e-02 0.9962 -3.5424 7.2392)" fill="#00CCFF" width="1.5" height="1.5"/>
		
			<rect x="81.9" y="43.3" transform="matrix(0.9962 -8.715574e-02 8.715574e-02 0.9962 -3.5253 7.3687)" fill="#00CCFF" width="1.5" height="1.5"/>
		
			<rect x="83.4" y="43.2" transform="matrix(0.9962 -8.715574e-02 8.715574e-02 0.9962 -3.5083 7.4981)" fill="#00CCFF" width="1.5" height="1.5"/>
		
			<rect x="84.9" y="43" transform="matrix(0.9962 -8.715574e-02 8.715574e-02 0.9962 -3.4912 7.6276)" fill="#00CCFF" width="1.5" height="1.5"/>
		
			<rect x="80.5" y="44.9" transform="matrix(0.9962 -8.715574e-02 8.715574e-02 0.9962 -3.6718 7.2563)" fill="#00CCFF" width="1.5" height="1.5"/>
		
			<rect x="82" y="44.8" transform="matrix(0.9962 -8.715574e-02 8.715574e-02 0.9962 -3.6548 7.3857)" fill="#00CCFF" width="1.5" height="1.5"/>
		
			<rect x="83.5" y="44.7" transform="matrix(0.9962 -8.715574e-02 8.715574e-02 0.9962 -3.6377 7.5152)" fill="#00CCFF" width="1.5" height="1.5"/>
		
			<rect x="85" y="44.5" transform="matrix(0.9962 -8.715574e-02 8.715574e-02 0.9962 -3.6207 7.6446)" fill="#00CCFF" width="1.5" height="1.5"/>
	</g>
	<g>
		
			<rect x="60.8" y="60.2" transform="matrix(0.9962 -8.715574e-02 8.715574e-02 0.9962 -5.0754 5.5974)" fill="#00CCFF" width="1.5" height="1.5"/>
		
			<rect x="62.3" y="60" transform="matrix(0.9962 -8.715574e-02 8.715574e-02 0.9962 -5.0583 5.7269)" fill="#00CCFF" width="1.5" height="1.5"/>
		
			<rect x="60.9" y="61.7" transform="matrix(0.9962 -8.715574e-02 8.715574e-02 0.9962 -5.2048 5.6145)" fill="#00CCFF" width="1.5" height="1.5"/>
		
			<rect x="62.4" y="61.5" transform="matrix(0.9962 -8.715574e-02 8.715574e-02 0.9962 -5.1878 5.7439)" fill="#00CCFF" width="1.5" height="1.5"/>
		
			<rect x="64.1" y="62.9" transform="matrix(0.9962 -8.715574e-02 8.715574e-02 0.9962 -5.3002 5.8904)" fill="#00CCFF" width="1.5" height="1.5"/>
		
			<rect x="65.5" y="62.8" transform="matrix(0.9962 -8.715574e-02 8.715574e-02 0.9962 -5.2831 6.0199)" fill="#00CCFF" width="1.5" height="1.5"/>
		
			<rect x="64.2" y="64.4" transform="matrix(0.9962 -8.715574e-02 8.715574e-02 0.9962 -5.4296 5.9074)" fill="#00CCFF" width="1.5" height="1.5"/>
		
			<rect x="65.7" y="64.3" transform="matrix(0.9962 -8.715574e-02 8.715574e-02 0.9962 -5.4126 6.0369)" fill="#00CCFF" width="1.5" height="1.5"/>
		
			<rect x="67.3" y="65.6" transform="matrix(0.9962 -8.715574e-02 8.715574e-02 0.9962 -5.525 6.1834)" fill="#00CCFF" width="1.5" height="1.5"/>
		
			<rect x="68.8" y="65.5" transform="matrix(0.9962 -8.715574e-02 8.715574e-02 0.9962 -5.5079 6.3128)" fill="#00CCFF" width="1.5" height="1.5"/>
		
			<rect x="70.3" y="65.4" transform="matrix(0.9962 -8.715574e-02 8.715574e-02 0.9962 -5.4909 6.4423)" fill="#00CCFF" width="1.5" height="1.5"/>
		
			<rect x="71.8" y="65.2" transform="matrix(0.9962 -8.715574e-02 8.715574e-02 0.9962 -5.4739 6.5717)" fill="#00CCFF" width="1.5" height="1.5"/>
		<g>
			
				<rect x="89.1" y="57.7" transform="matrix(-0.9962 8.715574e-02 -8.715574e-02 -0.9962 184.5329 108.8293)" fill="#00CCFF" width="1.5" height="1.5"/>
			
				<rect x="87.7" y="57.8" transform="matrix(-0.9962 8.715574e-02 -8.715574e-02 -0.9962 181.5682 109.2196)" fill="#00CCFF" width="1.5" height="1.5"/>
			
				<rect x="89.3" y="59.2" transform="matrix(-0.9962 8.715574e-02 -8.715574e-02 -0.9962 184.9232 111.794)" fill="#00CCFF" width="1.5" height="1.5"/>
			
				<rect x="87.8" y="59.3" transform="matrix(-0.9962 8.715574e-02 -8.715574e-02 -0.9962 181.9585 112.1843)" fill="#00CCFF" width="1.5" height="1.5"/>
			
				<rect x="86.4" y="60.9" transform="matrix(-0.9962 8.715574e-02 -8.715574e-02 -0.9962 179.384 115.5394)" fill="#00CCFF" width="1.5" height="1.5"/>
			
				<rect x="84.9" y="61.1" transform="matrix(-0.9962 8.715574e-02 -8.715574e-02 -0.9962 176.4193 115.9297)" fill="#00CCFF" width="1.5" height="1.5"/>
			
				<rect x="86.6" y="62.4" transform="matrix(-0.9962 8.715574e-02 -8.715574e-02 -0.9962 179.7744 118.5042)" fill="#00CCFF" width="1.5" height="1.5"/>
			
				<rect x="85.1" y="62.6" transform="matrix(-0.9962 8.715574e-02 -8.715574e-02 -0.9962 176.8096 118.8945)" fill="#00CCFF" width="1.5" height="1.5"/>
		</g>
		
			<rect x="77.7" y="64.7" transform="matrix(-0.9962 8.715574e-02 -8.715574e-02 -0.9962 162.3761 123.8109)" fill="#00CCFF" width="1.5" height="1.5"/>
		
			<rect x="76.2" y="64.8" transform="matrix(-0.9962 8.715574e-02 -8.715574e-02 -0.9962 159.4113 124.2012)" fill="#00CCFF" width="1.5" height="1.5"/>
		
			<rect x="74.8" y="65" transform="matrix(-0.9962 8.715574e-02 -8.715574e-02 -0.9962 156.4465 124.5915)" fill="#00CCFF" width="1.5" height="1.5"/>
		
			<rect x="73.3" y="65.1" transform="matrix(-0.9962 8.715574e-02 -8.715574e-02 -0.9962 153.4818 124.9818)" fill="#00CCFF" width="1.5" height="1.5"/>
		
			<rect x="67.4" y="67.1" transform="matrix(0.9962 -8.715574e-02 8.715574e-02 0.9962 -5.6544 6.2004)" fill="#00CCFF" width="1.5" height="1.5"/>
		
			<rect x="68.9" y="67" transform="matrix(0.9962 -8.715574e-02 8.715574e-02 0.9962 -5.6374 6.3299)" fill="#00CCFF" width="1.5" height="1.5"/>
		
			<rect x="70.4" y="66.8" transform="matrix(0.9962 -8.715574e-02 8.715574e-02 0.9962 -5.6204 6.4593)" fill="#00CCFF" width="1.5" height="1.5"/>
		
			<rect x="71.9" y="66.7" transform="matrix(0.9962 -8.715574e-02 8.715574e-02 0.9962 -5.6033 6.5888)" fill="#00CCFF" width="1.5" height="1.5"/>
		
			<rect x="77.9" y="66.2" transform="matrix(-0.9962 8.715574e-02 -8.715574e-02 -0.9962 162.7664 126.7757)" fill="#00CCFF" width="1.5" height="1.5"/>
		
			<rect x="76.4" y="66.3" transform="matrix(-0.9962 8.715574e-02 -8.715574e-02 -0.9962 159.8016 127.166)" fill="#00CCFF" width="1.5" height="1.5"/>
		
			<rect x="74.9" y="66.5" transform="matrix(-0.9962 8.715574e-02 -8.715574e-02 -0.9962 156.8368 127.5563)" fill="#00CCFF" width="1.5" height="1.5"/>
		
			<rect x="73.4" y="66.6" transform="matrix(-0.9962 8.715574e-02 -8.715574e-02 -0.9962 153.8721 127.9466)" fill="#00CCFF" width="1.5" height="1.5"/>
		<g>
			
				<rect x="83.7" y="64.2" transform="matrix(-0.9962 8.715574e-02 -8.715574e-02 -0.9962 174.2351 122.2496)" fill="#00CCFF" width="1.5" height="1.5"/>
			
				<rect x="82.2" y="64.3" transform="matrix(-0.9962 8.715574e-02 -8.715574e-02 -0.9962 171.2704 122.6399)" fill="#00CCFF" width="1.5" height="1.5"/>
			
				<rect x="80.7" y="64.4" transform="matrix(-0.9962 8.715574e-02 -8.715574e-02 -0.9962 168.3056 123.0302)" fill="#00CCFF" width="1.5" height="1.5"/>
			
				<rect x="79.2" y="64.6" transform="matrix(-0.9962 8.715574e-02 -8.715574e-02 -0.9962 165.3408 123.4206)" fill="#00CCFF" width="1.5" height="1.5"/>
			
				<rect x="83.8" y="65.7" transform="matrix(-0.9962 8.715574e-02 -8.715574e-02 -0.9962 174.6255 125.2144)" fill="#00CCFF" width="1.5" height="1.5"/>
			
				<rect x="82.3" y="65.8" transform="matrix(-0.9962 8.715574e-02 -8.715574e-02 -0.9962 171.6607 125.6047)" fill="#00CCFF" width="1.5" height="1.5"/>
			
				<rect x="80.8" y="65.9" transform="matrix(-0.9962 8.715574e-02 -8.715574e-02 -0.9962 168.6959 125.995)" fill="#00CCFF" width="1.5" height="1.5"/>
			
				<rect x="79.4" y="66.1" transform="matrix(-0.9962 8.715574e-02 -8.715574e-02 -0.9962 165.7311 126.3853)" fill="#00CCFF" width="1.5" height="1.5"/>
		</g>
	</g>
</g>
</svg>
