<?xml version="1.0" encoding="utf-8"?>
<!-- Generator: Adobe Illustrator 22.0.0, SVG Export Plug-In . SVG Version: 6.00 Build 0)  -->
<svg version="1.1" xmlns="http://www.w3.org/2000/svg" xmlns:xlink="http://www.w3.org/1999/xlink" x="0px" y="0px"
	 viewBox="0 0 150 150" enable-background="new 0 0 150 150" xml:space="preserve">
<g id="BG">
	<radialGradient id="SVGID_1_" cx="72.8693" cy="129.8391" r="102.8698" gradientUnits="userSpaceOnUse">
		<stop  offset="0" style="stop-color:#0095BB"/>
		<stop  offset="1" style="stop-color:#00CCFF"/>
	</radialGradient>
	<circle fill="url(#SVGID_1_)" cx="75" cy="75" r="60"/>
</g>
<g id="Left_Arm">
	<g>
		<g>
			<g>
				<g>
					
						<radialGradient id="SVGID_2_" cx="-1394.024" cy="161.7037" r="5.1524" gradientTransform="matrix(-0.9852 0.1716 0.1716 0.9852 -1272.9996 152.234)" gradientUnits="userSpaceOnUse">
						<stop  offset="0" style="stop-color:#004A9C"/>
						<stop  offset="1" style="stop-color:#003979"/>
					</radialGradient>
					<path fill="url(#SVGID_2_)" d="M125.6,78.4c0.3,0.2,0.6,0.3,0.9,0.4c0.5,0.1,1-0.1,1.4-0.5c1.3-1.5,2.1-3.2,2.6-4.8
						c0-0.1,0.1-0.2,0.1-0.3c0.4-1.3,0.6-2.5,0.7-3.5c0,0,0,0,0,0c0-0.1,0-0.2,0-0.2c0.1-1.2,0.1-2.1,0-2.1
						c-0.1-0.9-0.8-1.5-1.7-1.5c-0.9,0.1-1.5,0.8-1.5,1.7c0,0,0,0.6,0,1.5l0,0.3c-0.1,0.9-0.2,2-0.6,3.1c0,0.1,0,0.2-0.1,0.2
						c-0.4,1.2-1,2.5-1.9,3.6C124.8,76.9,124.9,77.9,125.6,78.4z"/>
				</g>
				<g opacity="0.6">
					<path fill="#FFFFFF" d="M131.1,69.7c-0.1,0-0.3,0.1-0.5,0.1c-0.7,0.1-1.7,0.1-2.7-0.6l0-0.3c1.2,1.1,2.8,0.6,3.1,0.5
						L131.1,69.7z"/>
					<path fill="none" d="M131.1,69.7C131.1,69.7,131.1,69.7,131.1,69.7L131.1,69.7"/>
				</g>
				<g opacity="0.6">
					<path fill="#FFFFFF" d="M127.3,72.6c1.3,1,2.4,1,2.9,0.9l0.1,0c0-0.1,0.1-0.2,0.1-0.3c-0.3,0.1-1.5,0.3-3-0.9
						C127.4,72.4,127.4,72.5,127.3,72.6z"/>
				</g>
			</g>
			<g>
				<g>
					
						<radialGradient id="SVGID_3_" cx="-1297.9438" cy="-10.461" r="5.1524" gradientTransform="matrix(-0.9933 -0.1158 -0.1158 0.9933 -1158.2729 -64.6116)" gradientUnits="userSpaceOnUse">
						<stop  offset="0" style="stop-color:#004A9C"/>
						<stop  offset="1" style="stop-color:#003979"/>
					</radialGradient>
					<path fill="url(#SVGID_3_)" d="M128,80.4c0.2,0.3,0.4,0.5,0.7,0.6c0.5,0.2,1,0.2,1.5-0.1c1.6-1.1,2.9-2.5,3.8-3.9
						c0-0.1,0.1-0.1,0.1-0.2c0.7-1.1,1.3-2.2,1.6-3.2c0,0,0,0,0,0c0-0.1,0.1-0.2,0.1-0.2c0.4-1.2,0.6-2,0.7-2
						c0.2-0.9-0.3-1.7-1.2-1.9c-0.8-0.2-1.7,0.3-1.9,1.2c0,0-0.1,0.6-0.4,1.4l-0.1,0.3c-0.3,0.8-0.8,1.8-1.4,2.8
						c0,0.1-0.1,0.1-0.1,0.2c-0.7,1.1-1.7,2.1-2.9,2.9C127.7,78.7,127.5,79.7,128,80.4z"/>
				</g>
				<g opacity="0.6">
					<path fill="#FFFFFF" d="M135.8,73.7c-0.1,0-0.3,0-0.5,0c-0.7-0.1-1.7-0.4-2.4-1.3l0.1-0.3c0.9,1.4,2.5,1.4,2.9,1.4L135.8,73.7z
						"/>
					<path fill="none" d="M135.8,73.7C135.8,73.7,135.8,73.7,135.8,73.7L135.8,73.7"/>
				</g>
				<g opacity="0.6">
					<path fill="#FFFFFF" d="M131.3,75.3c1,1.3,2,1.6,2.6,1.7l0.1,0c0-0.1,0.1-0.1,0.1-0.2c-0.3,0-1.6-0.1-2.7-1.7
						C131.4,75.2,131.4,75.3,131.3,75.3z"/>
				</g>
			</g>
			<g>
				<g>
					
						<radialGradient id="SVGID_4_" cx="-1062.8859" cy="-200.3548" r="5.1524" gradientTransform="matrix(-0.849 -0.5284 -0.5284 0.849 -874.0581 -311.406)" gradientUnits="userSpaceOnUse">
						<stop  offset="0" style="stop-color:#004A9C"/>
						<stop  offset="1" style="stop-color:#003979"/>
					</radialGradient>
					<path fill="url(#SVGID_4_)" d="M128.2,83c0,0.3,0.2,0.6,0.4,0.9c0.3,0.4,0.8,0.6,1.4,0.5c1.9-0.3,3.7-1,5.1-1.9
						c0.1,0,0.1-0.1,0.2-0.1c1.1-0.7,2.1-1.5,2.8-2.2c0,0,0,0,0,0c0.1-0.1,0.1-0.1,0.2-0.2c0.9-0.9,1.4-1.5,1.5-1.6
						c0.5-0.7,0.4-1.7-0.3-2.2c-0.7-0.5-1.7-0.4-2.2,0.3c0,0-0.4,0.5-1,1.1l-0.2,0.2c-0.6,0.6-1.5,1.3-2.5,1.9
						c-0.1,0-0.1,0.1-0.2,0.1c-1.1,0.7-2.4,1.2-3.8,1.4C128.7,81.3,128.1,82.1,128.2,83z"/>
				</g>
				<g opacity="0.6">
					<path fill="#FFFFFF" d="M138.2,80.2c-0.1-0.1-0.3-0.1-0.4-0.2c-0.6-0.4-1.4-1.1-1.6-2.2l0.2-0.2c0.2,1.6,1.7,2.3,2,2.5
						L138.2,80.2z"/>
					<path fill="none" d="M138.2,80.2C138.2,80.2,138.2,80.2,138.2,80.2L138.2,80.2"/>
				</g>
				<g opacity="0.6">
					<path fill="#FFFFFF" d="M133.4,79.8c0.3,1.6,1.1,2.3,1.6,2.6l0.1,0.1c0.1,0,0.1-0.1,0.2-0.1c-0.3-0.1-1.4-0.8-1.7-2.7
						C133.6,79.7,133.5,79.8,133.4,79.8z"/>
				</g>
			</g>
			
				<radialGradient id="SVGID_5_" cx="-1300.272" cy="-3.8039" r="9.9386" gradientTransform="matrix(-0.9951 -9.890470e-02 -9.890470e-02 0.9951 -1165.4806 -51.3338)" gradientUnits="userSpaceOnUse">
				<stop  offset="0" style="stop-color:#002855"/>
				<stop  offset="0.4671" style="stop-color:#002753"/>
				<stop  offset="0.7099" style="stop-color:#00234B"/>
				<stop  offset="0.9004" style="stop-color:#001D3E"/>
				<stop  offset="1" style="stop-color:#001833"/>
			</radialGradient>
			<path fill="url(#SVGID_5_)" d="M122.8,74.6c-2.4,1.6-2.6,5.5-0.4,8.6s5.8,4.4,8.2,2.8c2.4-1.6,2.6-5.5,0.4-8.6
				S125.2,72.9,122.8,74.6z"/>
			<g>
				<g>
					
						<radialGradient id="SVGID_6_" cx="-1389.0066" cy="162.9216" r="4.1175" gradientTransform="matrix(-0.9852 0.1716 0.1716 0.9852 -1272.9996 152.234)" gradientUnits="userSpaceOnUse">
						<stop  offset="0" style="stop-color:#004A9C"/>
						<stop  offset="1" style="stop-color:#003979"/>
					</radialGradient>
					<path fill="url(#SVGID_6_)" d="M121.2,75.9c0.2,0.9,0.4,1.9,0.9,2.9c0.2,0.6,0.7,0.9,1.3,1c0.3,0,0.5,0,0.8-0.1
						c0.8-0.3,1.2-1.3,0.8-2.1c-0.2-0.5-0.4-1.1-0.5-1.6c0-0.1,0-0.1-0.1-0.2c-0.2-1.1-0.2-2,0-2.9l0.1-0.2c0.1-0.4,0.3-0.8,0.5-1.2
						c0.4-0.8,0.2-1.7-0.6-2.2c-0.8-0.4-1.7-0.2-2.2,0.6c-0.3,0.6-0.7,1.4-0.9,2.3l0,0.2c-0.2,0.9-0.2,2,0,3.2
						C121.2,75.7,121.2,75.8,121.2,75.9z"/>
				</g>
				<g opacity="0.6">
					<path fill="#FFFFFF" d="M121.2,72.1c1.5,0.7,2.7,0.5,3.2,0.4l-0.1,0.2c0,0,0,0-0.1,0c-0.5,0.1-1.7,0.2-3.1-0.4L121.2,72.1z"/>
				</g>
				<g opacity="0.6">
					<path fill="#FFFFFF" d="M121.2,75.9c0.8,0.4,1.7,0.4,2.4,0.3c0.3-0.1,0.6-0.1,0.8-0.2c0-0.1,0-0.1-0.1-0.2
						c-0.6,0.2-2.2,0.6-3.2-0.1C121.2,75.7,121.2,75.8,121.2,75.9z"/>
				</g>
			</g>
		</g>
		<g>
			
				<radialGradient id="SVGID_7_" cx="-1361.816" cy="178.7723" r="10.1615" gradientTransform="matrix(-0.9852 0.1716 0.1716 0.9852 -1272.9996 152.234)" gradientUnits="userSpaceOnUse">
				<stop  offset="0" style="stop-color:#003978"/>
				<stop  offset="1" style="stop-color:#002855"/>
			</radialGradient>
			<path fill="url(#SVGID_7_)" d="M89.6,99.6c0.3,1,0.8,2,1.4,2.7c0,0.1,0.1,0.1,0.2,0.2c1.6,0.6,3.1,1.1,4.7,1.4
				c2.9,0.6,5.7,0.7,8.3,0.2c3.2-0.6,6.2-1.8,9-3.9c2-1.4,2.5-4.2,1.1-6.3c-1.4-2-4.2-2.5-6.3-1.1c-2.5,1.8-6.4,3.7-12.5,1.6
				c-1.3-0.4-2.7-1-4.1-1.9c0,0-0.1,0-0.1-0.1c-0.4,0.1-0.7,0.4-0.9,0.7C89.1,94.6,88.8,97.1,89.6,99.6z"/>
		</g>
		<g>
			
				<linearGradient id="SVGID_8_" gradientUnits="userSpaceOnUse" x1="-1383.3729" y1="188.5352" x2="-1371.1007" y2="170.576" gradientTransform="matrix(-0.9852 0.1716 0.1716 0.9852 -1272.9996 152.234)">
				<stop  offset="0" style="stop-color:#8BB2C5"/>
				<stop  offset="0.1547" style="stop-color:#9DBECE"/>
				<stop  offset="0.5233" style="stop-color:#C4D7E0"/>
				<stop  offset="0.818" style="stop-color:#DCE6EC"/>
				<stop  offset="1" style="stop-color:#E5ECF0"/>
			</linearGradient>
			<path fill="url(#SVGID_8_)" d="M107.8,103.8c13.4-2.7,17.9-9.3,19.3-12.6c0.5-1.2,0.5-2.6-0.1-3.8c-0.8-1.8-2.6-4.6-6.2-7
				c-1.5-1-3.4-1.1-4.9-0.1c-2,1.2-4.8,3.5-7.3,7.4c-1.8,3-4.7,5.6-6,6.6c-0.5,0.4-0.7,0.9-0.7,1.5c0.2,1.8,0.9,5.6,4.4,7.8
				C106.9,103.8,107.3,103.9,107.8,103.8z"/>
			<g>
				<path fill="#FFFFFF" d="M108.4,89.9c0.2-0.2,0.4-0.5,0.6-0.8c0.2-0.3,0.4-0.6,0.7-0.9l0,0c0.2-0.3,0.7-0.3,1-0.1
					c0.3,0.2,0.3,0.7,0.1,1c0,0,0,0-0.1,0.1c-0.3,0.2-0.5,0.4-0.7,0.7c-0.2,0.3-0.5,0.6-0.9,0.9c-0.2,0.2-0.6,0.1-0.7-0.1
					C108.2,90.4,108.2,90.1,108.4,89.9L108.4,89.9z"/>
			</g>
			<g>
				<path fill="#FFFFFF" d="M116.6,83.3c-0.4,0.3-0.7,0.5-1.1,0.8c-0.4,0.3-0.7,0.6-1.1,0.9c-0.7,0.6-1.4,1.3-2,2l0,0
					c-0.2,0.3-0.6,0.3-0.9,0.1c-0.2-0.2-0.3-0.5-0.1-0.8c0.6-0.8,1.2-1.6,1.8-2.4c0.3-0.4,0.7-0.8,1-1.1c0.4-0.4,0.7-0.7,1.1-1.1
					c0.4-0.4,1-0.3,1.4,0.1c0.4,0.4,0.3,1-0.1,1.4C116.7,83.2,116.7,83.2,116.6,83.3L116.6,83.3z"/>
			</g>
		</g>
	</g>
</g>
<g id="Body">
	<g>
		<defs>
			<circle id="SVGID_189_" cx="75" cy="75" r="60"/>
		</defs>
		<clipPath id="SVGID_9_">
			<use xlink:href="#SVGID_189_"  overflow="visible"/>
		</clipPath>
		<g clip-path="url(#SVGID_9_)">
			<radialGradient id="SVGID_10_" cx="84.4376" cy="98.8531" r="40.314" gradientUnits="userSpaceOnUse">
				<stop  offset="0" style="stop-color:#E5ECF0"/>
				<stop  offset="0.3988" style="stop-color:#E3EBEF"/>
				<stop  offset="0.5758" style="stop-color:#DCE6EC"/>
				<stop  offset="0.7091" style="stop-color:#CFDEE5"/>
				<stop  offset="0.8203" style="stop-color:#BDD2DD"/>
				<stop  offset="0.9168" style="stop-color:#A6C3D2"/>
				<stop  offset="1" style="stop-color:#8BB2C5"/>
			</radialGradient>
			<path fill="url(#SVGID_10_)" d="M101.2,113.2c0,13.4-11.7,24.3-26.1,24.3c-14.4,0-26.1-10.9-26.1-24.3s3.7-29.7,26.1-29.7
				c19.2,0,24.6,11.9,25.8,23.8c0.1,0.7,0.1,1.4,0.2,2.1C101.2,110.6,101.2,111.9,101.2,113.2z"/>
			<path fill="#00CCFF" d="M82.4,105.6c-3.9,0.7-6.9,4.7-6.7,9c0.1,4.3,3.4,7.2,7.2,6.5s6.9-4.7,6.7-9
				C89.5,107.8,86.3,104.9,82.4,105.6"/>
			<path fill="#002855" d="M82.4,106.9c-3.2,0.6-5.7,3.9-5.6,7.5c0.1,3.6,2.8,6,6,5.5c3.2-0.6,5.7-3.9,5.6-7.5
				C88.3,108.7,85.6,106.3,82.4,106.9"/>
			<polyline fill="#FFFFFF" points="85.1,109.2 83.9,109.4 82.5,112.7 81.8,112.8 81.7,109.8 79.5,110.2 79.5,110.9 80.4,110.8 
				80.6,117.4 81.9,117.1 81.8,113.7 82.3,113.6 84.2,116.7 85.8,116.5 83.4,112.4 84.4,110.1 85.1,110 85.1,109.2 			"/>
			<path fill="#FFFFFF" d="M96.4,102.1l0.3,1c0.1,0.3-0.1,0.5-0.3,0.6c-0.3,0.1-0.5-0.1-0.6-0.3c0,0,0-0.1,0-0.1l0,0l0-1l0,0
				c0-0.2,0.2-0.4,0.4-0.4C96.2,101.8,96.4,102,96.4,102.1z"/>
			<path fill="#FFFFFF" d="M93.1,92.5c0.4,0.6,0.7,1.2,1,1.8c0.3,0.6,0.6,1.2,0.8,1.9c0.5,1.3,0.9,2.6,1.2,3.9
				c0,0.2-0.1,0.4-0.3,0.4c-0.2,0-0.3-0.1-0.4-0.2c-0.5-1.2-1.1-2.4-1.8-3.5c-0.3-0.6-0.7-1.1-1.1-1.6c-0.4-0.5-0.8-1-1.2-1.5l0,0
				c-0.4-0.4-0.4-1,0-1.4c0.4-0.4,1-0.4,1.4,0C93,92.4,93,92.5,93.1,92.5z"/>
			<g>
				<path fill="#002855" d="M101.1,109.4c-2.2,1.5-4.8,2.8-7.6,3.7c-0.1,0-0.2,0-0.3,0c-0.4,0-0.7-0.2-0.9-0.6
					c-0.2-0.5,0.1-1,0.6-1.1c3.1-1,5.7-2.4,8-4.1C101,108,101,108.7,101.1,109.4z"/>
			</g>
			<g>
				<path fill="#002855" d="M71.2,115.1C71.1,115.1,71.1,115.1,71.2,115.1c-5.1-0.2-10.5-0.9-16.1-2.1c-0.5-0.1-0.8-0.6-0.7-1.1
					c0.1-0.5,0.6-0.8,1.1-0.7c5.5,1.2,10.9,1.9,15.8,2.1c0.5,0,0.9,0.4,0.9,0.9C72,114.7,71.6,115.1,71.2,115.1z"/>
			</g>
			<radialGradient id="SVGID_11_" cx="79.4288" cy="91.0601" r="8.2444" gradientUnits="userSpaceOnUse">
				<stop  offset="0" style="stop-color:#003978"/>
				<stop  offset="1" style="stop-color:#002855"/>
			</radialGradient>
			<ellipse fill="url(#SVGID_11_)" cx="79.4" cy="91.1" rx="8.9" ry="7.6"/>
		</g>
	</g>
</g>
<g id="Right_Arm">
	<g>
		<g>
			<g>
				<g>
					<radialGradient id="SVGID_12_" cx="17.7961" cy="81.2484" r="5.1524" gradientUnits="userSpaceOnUse">
						<stop  offset="0" style="stop-color:#004A9C"/>
						<stop  offset="1" style="stop-color:#003979"/>
					</radialGradient>
					<path fill="url(#SVGID_12_)" d="M21.3,86.8c-0.2,0.3-0.5,0.4-0.8,0.5c-0.5,0.1-1,0-1.4-0.3c-1.5-1.2-2.6-2.8-3.4-4.3
						c0-0.1-0.1-0.2-0.1-0.2c-0.6-1.2-1-2.4-1.2-3.3c0,0,0,0,0,0c0-0.1,0-0.2-0.1-0.2c-0.3-1.2-0.4-2-0.4-2.1
						c-0.1-0.9,0.5-1.7,1.4-1.7c0.9-0.1,1.6,0.5,1.7,1.4c0,0,0.1,0.6,0.3,1.4l0.1,0.3c0.2,0.8,0.6,1.9,1.1,3c0,0.1,0.1,0.1,0.1,0.2
						c0.6,1.1,1.4,2.3,2.5,3.2C21.8,85.2,21.9,86.1,21.3,86.8z"/>
				</g>
				<g opacity="0.6">
					<path fill="#FFFFFF" d="M14.3,79c0.4,0.1,2,0.2,3-1l0.1,0.3c-0.8,0.9-1.8,1-2.5,1c-0.2,0-0.4,0-0.5,0L14.3,79z"/>
					<path fill="none" d="M14.4,79.2L14.4,79.2C14.4,79.2,14.4,79.2,14.4,79.2"/>
				</g>
				<g opacity="0.6">
					<path fill="#FFFFFF" d="M18.6,81.4c-1.1,1.2-2.2,1.4-2.7,1.4h-0.1c0-0.1-0.1-0.2-0.1-0.2c0.3,0,1.6,0.1,2.9-1.4
						C18.5,81.2,18.6,81.3,18.6,81.4z"/>
				</g>
			</g>
			<g>
				<g>
					
						<radialGradient id="SVGID_13_" cx="78.4112" cy="314.1248" r="5.1524" gradientTransform="matrix(0.9587 -0.2845 0.2845 0.9587 -150.2354 -193.9421)" gradientUnits="userSpaceOnUse">
						<stop  offset="0" style="stop-color:#004A9C"/>
						<stop  offset="1" style="stop-color:#003979"/>
					</radialGradient>
					<path fill="url(#SVGID_13_)" d="M19.3,89.2c-0.1,0.3-0.3,0.6-0.6,0.7c-0.4,0.3-1,0.3-1.5,0.1c-1.8-0.8-3.3-1.9-4.4-3.2
						c-0.1-0.1-0.1-0.1-0.2-0.2c-0.9-1-1.6-2-2.1-2.8c0,0,0,0,0,0c0-0.1-0.1-0.1-0.1-0.2c-0.6-1.1-1-1.8-1-1.9
						C9,81,9.4,80,10.2,79.7c0.8-0.3,1.7,0,2.1,0.8c0,0,0.2,0.5,0.7,1.3l0.1,0.2c0.5,0.7,1.1,1.6,1.9,2.5c0,0.1,0.1,0.1,0.2,0.2
						c0.9,0.9,2,1.8,3.3,2.4C19.3,87.5,19.6,88.4,19.3,89.2z"/>
				</g>
				<g opacity="0.6">
					<path fill="#FFFFFF" d="M10.3,83.7c0.4,0,2-0.3,2.6-1.8l0.1,0.2c-0.5,1-1.5,1.5-2.1,1.7c-0.2,0.1-0.3,0.1-0.5,0.1L10.3,83.7z"
						/>
					<path fill="none" d="M10.5,83.9L10.5,83.9C10.5,83.9,10.5,83.9,10.5,83.9"/>
				</g>
				<g opacity="0.6">
					<path fill="#FFFFFF" d="M15.1,84.8c-0.7,1.5-1.7,2-2.2,2.1l-0.1,0c-0.1-0.1-0.1-0.1-0.2-0.2c0.3-0.1,1.5-0.4,2.3-2.1
						C15,84.7,15.1,84.7,15.1,84.8z"/>
				</g>
			</g>
			<g>
				<g>
					
						<radialGradient id="SVGID_14_" cx="43.5314" cy="680.2985" r="5.1524" gradientTransform="matrix(0.7457 -0.6663 0.6663 0.7457 -472.584 -388.3048)" gradientUnits="userSpaceOnUse">
						<stop  offset="0" style="stop-color:#004A9C"/>
						<stop  offset="1" style="stop-color:#003979"/>
					</radialGradient>
					<path fill="url(#SVGID_14_)" d="M19.5,91.8c0,0.3-0.1,0.7-0.2,0.9c-0.3,0.4-0.7,0.7-1.3,0.7c-2,0.1-3.8-0.3-5.4-1
						c-0.1,0-0.2-0.1-0.2-0.1c-1.2-0.5-2.3-1.1-3.2-1.7c0,0,0,0,0,0c-0.1,0-0.1-0.1-0.2-0.1c-1-0.7-1.6-1.2-1.7-1.3
						c-0.6-0.6-0.7-1.6-0.1-2.2c0.6-0.6,1.6-0.7,2.2-0.1c0,0,0.4,0.4,1.2,0.9l0.2,0.2c0.7,0.5,1.7,1,2.8,1.5c0.1,0,0.1,0.1,0.2,0.1
						c1.2,0.5,2.6,0.8,4,0.7C18.7,90.2,19.5,90.9,19.5,91.8z"/>
				</g>
				<g opacity="0.6">
					<path fill="#FFFFFF" d="M9,90.6c0.3-0.2,1.6-1.2,1.6-2.8l0.2,0.2c0,1.2-0.7,2-1.2,2.4c-0.1,0.1-0.3,0.2-0.4,0.3L9,90.6z"/>
					<path fill="none" d="M9.2,90.7L9.2,90.7C9.2,90.7,9.2,90.7,9.2,90.7"/>
				</g>
				<g opacity="0.6">
					<path fill="#FFFFFF" d="M13.8,89.6c0,1.6-0.7,2.5-1.1,2.9l-0.1,0.1c-0.1,0-0.2-0.1-0.2-0.1c0.2-0.2,1.2-1,1.2-2.9
						C13.7,89.5,13.7,89.5,13.8,89.6z"/>
				</g>
			</g>
			
				<radialGradient id="SVGID_15_" cx="81.4033" cy="297.3318" r="9.9386" gradientTransform="matrix(0.9634 -0.2682 0.2682 0.9634 -140.8562 -182.0981)" gradientUnits="userSpaceOnUse">
				<stop  offset="0" style="stop-color:#002855"/>
				<stop  offset="0.4671" style="stop-color:#002753"/>
				<stop  offset="0.7099" style="stop-color:#00234B"/>
				<stop  offset="0.9004" style="stop-color:#001D3E"/>
				<stop  offset="1" style="stop-color:#001833"/>
			</radialGradient>
			<path fill="url(#SVGID_15_)" d="M23.4,82.5c2.6,1.2,3.5,4.9,1.9,8.4c-1.6,3.5-4.9,5.3-7.6,4.1s-3.5-4.9-1.9-8.4
				C17.4,83.2,20.8,81.4,23.4,82.5z"/>
			<g>
				<g>
					<radialGradient id="SVGID_16_" cx="22.8136" cy="82.4664" r="4.1175" gradientUnits="userSpaceOnUse">
						<stop  offset="0" style="stop-color:#004A9C"/>
						<stop  offset="1" style="stop-color:#003979"/>
					</radialGradient>
					<path fill="url(#SVGID_16_)" d="M25.2,83.6c0,0.9-0.1,1.9-0.4,3c-0.1,0.6-0.6,1-1.1,1.2c-0.3,0.1-0.5,0.1-0.8,0
						c-0.8-0.2-1.4-1.1-1.2-1.9c0.1-0.6,0.2-1.1,0.3-1.7c0-0.1,0-0.2,0-0.2c0.1-1.1-0.1-2.1-0.5-2.9l-0.1-0.2
						c-0.2-0.4-0.4-0.7-0.7-1.1c-0.5-0.7-0.4-1.7,0.2-2.2c0.7-0.5,1.7-0.4,2.2,0.2c0.4,0.6,0.9,1.3,1.3,2.1l0.1,0.2
						c0.3,0.9,0.6,1.9,0.6,3.2C25.2,83.3,25.2,83.4,25.2,83.6z"/>
				</g>
				<g opacity="0.6">
					<path fill="#FFFFFF" d="M24.6,80.1c-1.3,0.8-2.4,1-3,1c0,0,0,0-0.1,0l-0.1-0.2c0.4,0,1.7,0,3.1-0.9L24.6,80.1z"/>
				</g>
				<g opacity="0.6">
					<path fill="#FFFFFF" d="M25.2,83.6c-0.7,0.5-1.6,0.7-2.4,0.7c-0.4,0-0.6,0-0.8-0.1c0-0.1,0-0.2,0-0.2c0.6,0.1,2.3,0.2,3.2-0.7
						C25.2,83.3,25.2,83.4,25.2,83.6z"/>
				</g>
			</g>
		</g>
		<path opacity="7.000000e-02" fill="#01060A" d="M56.1,108.1c-0.1,0-0.3,0-0.4,0c-0.3,0-0.4-0.1-0.6-0.2c-0.1,0-0.3-0.1-0.4-0.2
			c-2-1-3.1-4-2.7-7.3c0.2-1.2,0.5-2.3,1-3.3c0-0.1,0.1-0.2,0.1-0.3c1-1.8,2.5-2.9,4-2.9c0.1,0,0.3,0,0.4,0c0.1,0,0.2,0,0.3,0.1
			c0.5,0.1,1,0.3,1.4,0.6c1.6,1.3,2.5,4,2.1,6.9c-0.2,1.2-0.5,2.2-1,3.2c0,0.1-0.1,0.1-0.1,0.2C59.2,107,57.7,108.1,56.1,108.1z"/>
		<path d="M60.4,101.5c-0.1,1.1-0.4,2.1-0.9,2.9c0,0.1-0.1,0.2-0.1,0.2c-0.9,1.6-2.2,2.6-3.6,2.5c-0.2,0-0.3-0.1-0.4-0.1
			c-0.1,0-0.2-0.1-0.3-0.1c-1.6-0.8-2.6-3.4-2.2-6.4c0.1-1.1,0.5-2.1,0.9-3c0-0.1,0.1-0.2,0.1-0.2c0.9-1.6,2.2-2.6,3.6-2.4
			c0.1,0,0.1,0,0.2,0c0.4,0.1,0.7,0.2,1,0.5C60,96.5,60.7,98.9,60.4,101.5z"/>
		<g>
			<radialGradient id="SVGID_17_" cx="50.0041" cy="98.3171" r="10.1615" gradientUnits="userSpaceOnUse">
				<stop  offset="0" style="stop-color:#003978"/>
				<stop  offset="1" style="stop-color:#002855"/>
			</radialGradient>
			<path fill="url(#SVGID_17_)" d="M60.4,101.5c-0.1,1.1-0.4,2.1-0.9,2.9c0,0.1-0.1,0.2-0.1,0.2c-1.4,0.9-2.9,1.6-4.3,2.2
				c-2.7,1.1-5.5,1.6-8.2,1.6c-3.2,0-6.4-0.8-9.6-2.3c-2.2-1.1-3.2-3.7-2.1-6c1.1-2.2,3.7-3.2,6-2.1c2.8,1.3,6.9,2.5,12.6-0.6
				c1.2-0.6,2.4-1.5,3.8-2.6c0,0,0.1-0.1,0.1-0.1c0.4,0.1,0.7,0.2,1,0.5C60,96.5,60.7,98.9,60.4,101.5z"/>
		</g>
		<g>
			<linearGradient id="SVGID_18_" gradientUnits="userSpaceOnUse" x1="28.4473" y1="108.08" x2="40.7194" y2="90.1208">
				<stop  offset="0" style="stop-color:#8BB2C5"/>
				<stop  offset="0.1547" style="stop-color:#9DBECE"/>
				<stop  offset="0.5233" style="stop-color:#C4D7E0"/>
				<stop  offset="0.818" style="stop-color:#DCE6EC"/>
				<stop  offset="1" style="stop-color:#E5ECF0"/>
			</linearGradient>
			<path fill="url(#SVGID_18_)" d="M43.2,108.7c-13.7-0.4-19.2-6.1-21.2-9.1c-0.7-1.1-0.9-2.5-0.6-3.7c0.5-1.9,1.8-5,4.9-8
				c1.3-1.3,3.2-1.6,4.8-1c2.2,0.9,5.4,2.6,8.4,6c2.3,2.7,5.5,4.7,7,5.5c0.5,0.3,0.9,0.8,0.9,1.4c0.1,1.8,0,5.7-3,8.4
				C44.1,108.6,43.7,108.8,43.2,108.7z"/>
			<g>
				<path fill="#FFFFFF" d="M39.7,96.1c-0.4-0.2-0.7-0.5-1-0.7c-0.3-0.2-0.5-0.4-0.8-0.6c-0.3-0.2-0.4-0.6-0.2-0.9
					c0.2-0.3,0.6-0.4,0.9-0.2c0,0,0,0,0.1,0.1l0,0c0.3,0.2,0.6,0.5,0.9,0.8c0.3,0.3,0.5,0.5,0.7,0.7l0,0c0.2,0.2,0.3,0.5,0.1,0.7
					C40.2,96.1,39.9,96.2,39.7,96.1z"/>
			</g>
			<g>
				<path fill="#FFFFFF" d="M31.9,88.3c0.5,0.3,0.8,0.6,1.3,0.9c0.4,0.3,0.8,0.6,1.2,0.9c0.8,0.6,1.5,1.3,2.2,2
					c0.2,0.2,0.2,0.6,0,0.9c-0.2,0.2-0.6,0.2-0.8,0l0,0c-0.7-0.6-1.5-1.1-2.3-1.6c-0.4-0.3-0.8-0.5-1.2-0.7
					c-0.4-0.2-0.8-0.5-1.2-0.6l0,0c-0.5-0.2-0.7-0.8-0.5-1.3c0.2-0.5,0.8-0.7,1.3-0.5C31.9,88.2,31.9,88.3,31.9,88.3z"/>
			</g>
		</g>
	</g>
</g>
<g id="Head">
	<g>
		<g>
			
				<radialGradient id="SVGID_19_" cx="-106.3341" cy="-151.8816" r="9.9703" gradientTransform="matrix(0.9397 0.342 -0.3766 1.0348 74.3732 218.1614)" gradientUnits="userSpaceOnUse">
				<stop  offset="0" style="stop-color:#002855"/>
				<stop  offset="0.4671" style="stop-color:#002753"/>
				<stop  offset="0.7099" style="stop-color:#00234B"/>
				<stop  offset="0.9004" style="stop-color:#001D3E"/>
				<stop  offset="1" style="stop-color:#001833"/>
			</radialGradient>
			<polygon fill="url(#SVGID_19_)" points="28.4,39.8 24.4,38.3 37.1,10.3 38.9,10.9 			"/>
			<g>
				
					<linearGradient id="SVGID_20_" gradientUnits="userSpaceOnUse" x1="-107.8309" y1="-225.3734" x2="-102.6756" y2="-233.8856" gradientTransform="matrix(0.9397 0.342 -0.342 0.9397 59.3014 259.5708)">
					<stop  offset="0" style="stop-color:#8BB2C5"/>
					<stop  offset="0.1599" style="stop-color:#A6C3D2"/>
					<stop  offset="0.3675" style="stop-color:#C1D5DF"/>
					<stop  offset="0.5769" style="stop-color:#D5E2E8"/>
					<stop  offset="0.7872" style="stop-color:#E1E9EE"/>
					<stop  offset="1" style="stop-color:#E5ECF0"/>
				</linearGradient>
				<path fill="url(#SVGID_20_)" d="M37,13.3L37,13.3c-1.7-0.6-2.6-2.5-2-4.2l1.8-4.9c0.6-1.7,2.5-2.6,4.2-2l0,0
					c1.7,0.6,2.6,2.5,2,4.2l-1.8,4.9C40.7,13,38.8,13.9,37,13.3z"/>
				<g>
					<path fill="#FFFFFF" d="M41.2,9.6l-0.5,1.4c-0.1,0.2-0.3,0.4-0.6,0.3c-0.2-0.1-0.4-0.3-0.3-0.6c0,0,0,0,0,0l0.6-1.4
						c0.1-0.2,0.3-0.3,0.5-0.2C41.2,9.3,41.3,9.5,41.2,9.6z"/>
				</g>
				<g>
					<path fill="#FFFFFF" d="M42.2,3.9c0.4,0.6,0.6,1.3,0.4,2.1c-0.1,0.3-0.2,0.6-0.3,0.9c-0.1,0.3-0.2,0.6-0.3,0.9
						c-0.1,0.2-0.3,0.3-0.5,0.2c-0.2-0.1-0.3-0.3-0.2-0.5c0.1-0.3,0.2-0.6,0.3-0.9l0.4-0.9c0.2-0.5,0.2-1.1-0.1-1.7
						c0-0.1,0-0.2,0.1-0.3C42,3.8,42.1,3.9,42.2,3.9z"/>
				</g>
			</g>
			<g>
				
					<linearGradient id="SVGID_21_" gradientUnits="userSpaceOnUse" x1="-1842.186" y1="56.8892" x2="-1825.7468" y2="22.5459" gradientTransform="matrix(-0.9962 -8.715574e-02 -8.715574e-02 0.9962 -1702.1356 -145.6392)">
					<stop  offset="0" style="stop-color:#8BB2C5"/>
					<stop  offset="0.1599" style="stop-color:#A6C3D2"/>
					<stop  offset="0.3675" style="stop-color:#C1D5DF"/>
					<stop  offset="0.5769" style="stop-color:#D5E2E8"/>
					<stop  offset="0.7872" style="stop-color:#E1E9EE"/>
					<stop  offset="1" style="stop-color:#E5ECF0"/>
				</linearGradient>
				<path fill="url(#SVGID_21_)" d="M113.9,57.9c-0.7,8.3,2.9,15.4,8,15.9c5.2,0.5,9.9-5.9,10.7-14.2c0.7-8.3-2.9-15.4-8-15.9
					C119.4,43.2,114.6,49.6,113.9,57.9z"/>
				
					<radialGradient id="SVGID_22_" cx="-1835.2257" cy="44.4685" r="12.825" gradientTransform="matrix(-0.9962 -8.715574e-02 -8.715574e-02 0.9962 -1702.1356 -145.6392)" gradientUnits="userSpaceOnUse">
					<stop  offset="0" style="stop-color:#003978"/>
					<stop  offset="1" style="stop-color:#002855"/>
				</radialGradient>
				<path fill="url(#SVGID_22_)" d="M122.3,58.6c0.6-6.5-0.5-12.5-3.1-17.9c3,0.3,5.5,2.2,6.2,4.7c1.2,4.3,1.7,8.9,1.3,13.6
					c-0.4,4.7-1.6,9.1-3.6,13.2c-1.1,2.3-3.9,3.8-7,3.5C119.7,70.9,121.8,65.1,122.3,58.6z"/>
				<g>
					<path fill="#FFFFFF" d="M128.3,46.7c0.3,0.4,0.5,0.7,0.8,1.1c0.2,0.4,0.4,0.7,0.7,1.1c0.4,0.8,0.8,1.5,1.1,2.3l0,0
						c0.2,0.5-0.1,1.1-0.6,1.3c-0.5,0.2-1.1-0.1-1.3-0.6c0-0.1,0-0.1,0-0.2c-0.2-0.8-0.4-1.5-0.6-2.3c-0.1-0.4-0.3-0.7-0.4-1.1
						c-0.1-0.4-0.3-0.7-0.5-1l0,0c-0.2-0.3-0.1-0.6,0.2-0.8C127.8,46.5,128.1,46.5,128.3,46.7z"/>
				</g>
				
					<linearGradient id="SVGID_23_" gradientUnits="userSpaceOnUse" x1="16.2852" y1="56.8892" x2="32.7244" y2="22.5459" gradientTransform="matrix(0.9962 8.715574e-02 -8.715574e-02 0.9962 7.284 3.9156)">
					<stop  offset="0" style="stop-color:#8BB2C5"/>
					<stop  offset="0.1599" style="stop-color:#A6C3D2"/>
					<stop  offset="0.3675" style="stop-color:#C1D5DF"/>
					<stop  offset="0.5769" style="stop-color:#D5E2E8"/>
					<stop  offset="0.7872" style="stop-color:#E1E9EE"/>
					<stop  offset="1" style="stop-color:#E5ECF0"/>
				</linearGradient>
				<path fill="url(#SVGID_23_)" d="M34.9,51c-0.7,8.3-5.5,14.7-10.7,14.2s-8.8-7.6-8-15.9c0.7-8.3,5.5-14.7,10.7-14.2
					C32,35.5,35.6,42.6,34.9,51z"/>
				
					<radialGradient id="SVGID_24_" cx="23.2455" cy="44.4685" r="12.825" gradientTransform="matrix(0.9962 8.715574e-02 -8.715574e-02 0.9962 7.284 3.9156)" gradientUnits="userSpaceOnUse">
					<stop  offset="0" style="stop-color:#003978"/>
					<stop  offset="1" style="stop-color:#002855"/>
				</radialGradient>
				<path fill="url(#SVGID_24_)" d="M26.5,50.2c0.6-6.5,2.7-12.2,6.2-17.1c-3-0.2-5.8,1.2-7,3.5c-2,4-3.2,8.5-3.6,13.2
					c-0.4,4.7,0,9.3,1.3,13.6c0.7,2.5,3.2,4.4,6.2,4.7C27,62.7,25.9,56.7,26.5,50.2z"/>
				<g>
					<path fill="#FFFFFF" d="M23.5,38.4c-0.2,0.3-0.5,0.6-0.7,0.9c-0.2,0.3-0.4,0.7-0.6,1c-0.4,0.7-0.7,1.4-1,2.1
						C21,43,20.4,43.2,19.9,43c-0.5-0.2-0.8-0.8-0.6-1.3c0-0.1,0-0.1,0.1-0.1l0,0c0.4-0.7,0.9-1.4,1.5-2.1c0.3-0.3,0.5-0.7,0.8-1
						c0.3-0.3,0.6-0.6,0.9-0.9c0.2-0.2,0.6-0.2,0.8,0.1C23.7,37.8,23.7,38.1,23.5,38.4L23.5,38.4z"/>
				</g>
			</g>
			
				<radialGradient id="SVGID_25_" cx="72.188" cy="34.2794" r="54.833" gradientTransform="matrix(0.8192 0.5736 -0.5392 0.77 35.5588 -23.4444)" gradientUnits="userSpaceOnUse">
				<stop  offset="0" style="stop-color:#E5ECF0"/>
				<stop  offset="0.3988" style="stop-color:#E3EBEF"/>
				<stop  offset="0.5758" style="stop-color:#DCE6EC"/>
				<stop  offset="0.7091" style="stop-color:#CFDEE5"/>
				<stop  offset="0.8203" style="stop-color:#BDD2DD"/>
				<stop  offset="0.9168" style="stop-color:#A6C3D2"/>
				<stop  offset="1" style="stop-color:#8BB2C5"/>
			</radialGradient>
			<path fill="url(#SVGID_25_)" d="M71.1,91.7C58,90.6,46.9,86.8,39,80.9c-10-7.5-14.9-18.4-13.8-30.8c1.1-12.3,7.8-22.3,18.9-27.9
				c8.8-4.5,20.4-6.3,33.5-5.1S101.9,22,109.8,28c10,7.5,14.9,18.4,13.8,30.8c-1.1,12.3-7.8,22.3-18.9,27.9
				C95.8,91.1,84.2,92.9,71.1,91.7z"/>
			<polygon fill="#A2CFE5" points="79.4,20.2 80.2,20.3 80.3,19.6 78.9,19.4 77.1,22.2 76.3,22.1 76.6,19.2 74.2,19 74.1,19.8 
				75,19.8 74.5,26.2 75.9,26.3 76.2,22.9 76.8,23 78.4,26.5 80.1,26.7 78.1,22.2 			"/>
			<g>
				<path fill="#FFFFFF" d="M92.1,22.7c5.6,1.8,11,4.4,15.6,8.1c0.4,0.3,0.5,0.9,0.1,1.3c-0.3,0.4-0.8,0.5-1.2,0.2l0,0
					c-4.6-3.2-9.9-5.3-15.4-6.7c-0.8-0.2-1.3-1-1.1-1.8C90.3,22.9,91.2,22.4,92.1,22.7C92,22.7,92,22.7,92.1,22.7z"/>
			</g>
			<g>
				<path fill="#FFFFFF" d="M112.4,35.1l1.7,1.7c0.5,0.4,0.5,1.2,0,1.6s-1.2,0.5-1.6,0c-0.1-0.1-0.1-0.1-0.2-0.2l0-0.1l-1.2-1.9
					l0-0.1c-0.3-0.4-0.2-1,0.2-1.3C111.6,34.7,112.1,34.8,112.4,35.1z"/>
			</g>
		</g>
		
			<linearGradient id="SVGID_26_" gradientUnits="userSpaceOnUse" x1="71.261" y1="70.3971" x2="71.261" y2="18.5404" gradientTransform="matrix(0.9962 8.715574e-02 -8.715574e-02 0.9962 7.284 3.9156)">
			<stop  offset="0" style="stop-color:#04070A"/>
			<stop  offset="1" style="stop-color:#102B41"/>
		</linearGradient>
		<path fill="url(#SVGID_26_)" d="M102.8,73.1c4.2-3.7,6.9-8.8,7.5-15.6c1.6-18.1-13.8-27.2-33.6-29c-19.8-1.7-36.6,4.6-38.1,22.7
			s13.8,27.2,33.6,29c6.2,0.5,12.1,0.3,17.4-0.9l10.1,3.3L102.8,73.1z"/>
	</g>
</g>
<g id="Face">
	<g id="eyes2">
		<g>
			
				<rect x="72.7" y="39.3" transform="matrix(0.9962 8.715574e-02 -8.715574e-02 0.9962 3.7714 -6.2448)" fill="#00CCFF" width="1.5" height="1.5"/>
			
				<rect x="74.1" y="39.4" transform="matrix(0.9962 8.715574e-02 -8.715574e-02 0.9962 3.7884 -6.3743)" fill="#00CCFF" width="1.5" height="1.5"/>
			
				<rect x="75.6" y="39.6" transform="matrix(0.9962 8.715574e-02 -8.715574e-02 0.9962 3.8054 -6.5037)" fill="#00CCFF" width="1.5" height="1.5"/>
			<g>
				
					<rect x="74.3" y="38" transform="matrix(0.9962 8.715574e-02 -8.715574e-02 0.9962 3.659 -6.3913)" fill="#00CCFF" width="1.5" height="1.5"/>
				
					<rect x="75.8" y="38.1" transform="matrix(0.9962 8.715574e-02 -8.715574e-02 0.9962 3.676 -6.5208)" fill="#00CCFF" width="1.5" height="1.5"/>
			</g>
			<g>
				
					<rect x="74.4" y="36.5" transform="matrix(0.9962 8.715574e-02 -8.715574e-02 0.9962 3.5295 -6.4084)" fill="#00CCFF" width="1.5" height="1.5"/>
				
					<rect x="75.9" y="36.6" transform="matrix(0.9962 8.715574e-02 -8.715574e-02 0.9962 3.5466 -6.5378)" fill="#00CCFF" width="1.5" height="1.5"/>
			</g>
			
				<rect x="77.1" y="39.7" transform="matrix(0.9962 8.715574e-02 -8.715574e-02 0.9962 3.8225 -6.6332)" fill="#00CCFF" width="1.5" height="1.5"/>
			
				<rect x="72.5" y="40.8" transform="matrix(0.9962 8.715574e-02 -8.715574e-02 0.9962 3.9008 -6.2278)" fill="#00CCFF" width="1.5" height="1.5"/>
			
				<rect x="74" y="40.9" transform="matrix(0.9962 8.715574e-02 -8.715574e-02 0.9962 3.9178 -6.3572)" fill="#00CCFF" width="1.5" height="1.5"/>
			
				<rect x="75.5" y="41.1" transform="matrix(0.9962 8.715574e-02 -8.715574e-02 0.9962 3.9349 -6.4867)" fill="#00CCFF" width="1.5" height="1.5"/>
			
				<rect x="77" y="41.2" transform="matrix(0.9962 8.715574e-02 -8.715574e-02 0.9962 3.9519 -6.6161)" fill="#00CCFF" width="1.5" height="1.5"/>
			
				<rect x="72.4" y="42.3" transform="matrix(0.9962 8.715574e-02 -8.715574e-02 0.9962 4.0302 -6.2108)" fill="#00CCFF" width="1.5" height="1.5"/>
			
				<rect x="73.9" y="42.4" transform="matrix(0.9962 8.715574e-02 -8.715574e-02 0.9962 4.0473 -6.3402)" fill="#00CCFF" width="1.5" height="1.5"/>
			
				<rect x="75.4" y="42.6" transform="matrix(0.9962 8.715574e-02 -8.715574e-02 0.9962 4.0643 -6.4696)" fill="#00CCFF" width="1.5" height="1.5"/>
			
				<rect x="76.9" y="42.7" transform="matrix(0.9962 8.715574e-02 -8.715574e-02 0.9962 4.0814 -6.5991)" fill="#00CCFF" width="1.5" height="1.5"/>
			
				<rect x="72.3" y="43.8" transform="matrix(0.9962 8.715574e-02 -8.715574e-02 0.9962 4.1597 -6.1937)" fill="#00CCFF" width="1.5" height="1.5"/>
			
				<rect x="73.8" y="43.9" transform="matrix(0.9962 8.715574e-02 -8.715574e-02 0.9962 4.1767 -6.3232)" fill="#00CCFF" width="1.5" height="1.5"/>
			
				<rect x="75.2" y="44.1" transform="matrix(0.9962 8.715574e-02 -8.715574e-02 0.9962 4.1938 -6.4526)" fill="#00CCFF" width="1.5" height="1.5"/>
			
				<rect x="76.7" y="44.2" transform="matrix(0.9962 8.715574e-02 -8.715574e-02 0.9962 4.2108 -6.582)" fill="#00CCFF" width="1.5" height="1.5"/>
			
				<rect x="70.9" y="42.2" transform="matrix(0.9962 8.715574e-02 -8.715574e-02 0.9962 4.0132 -6.0813)" fill="#00CCFF" width="1.5" height="1.5"/>
			
				<rect x="78.4" y="42.8" transform="matrix(0.9962 8.715574e-02 -8.715574e-02 0.9962 4.0984 -6.7285)" fill="#00CCFF" width="1.5" height="1.5"/>
			
				<rect x="70.8" y="43.7" transform="matrix(0.9962 8.715574e-02 -8.715574e-02 0.9962 4.1426 -6.0643)" fill="#00CCFF" width="1.5" height="1.5"/>
			
				<rect x="78.2" y="44.3" transform="matrix(0.9962 8.715574e-02 -8.715574e-02 0.9962 4.2279 -6.7115)" fill="#00CCFF" width="1.5" height="1.5"/>
			
				<rect x="72.1" y="45.3" transform="matrix(0.9962 8.715574e-02 -8.715574e-02 0.9962 4.2891 -6.1767)" fill="#00CCFF" width="1.5" height="1.5"/>
			
				<rect x="73.6" y="45.4" transform="matrix(0.9962 8.715574e-02 -8.715574e-02 0.9962 4.3062 -6.3061)" fill="#00CCFF" width="1.5" height="1.5"/>
			
				<rect x="75.1" y="45.5" transform="matrix(0.9962 8.715574e-02 -8.715574e-02 0.9962 4.3232 -6.4356)" fill="#00CCFF" width="1.5" height="1.5"/>
			
				<rect x="76.6" y="45.7" transform="matrix(0.9962 8.715574e-02 -8.715574e-02 0.9962 4.3403 -6.565)" fill="#00CCFF" width="1.5" height="1.5"/>
			
				<rect x="72" y="46.8" transform="matrix(0.9962 8.715574e-02 -8.715574e-02 0.9962 4.4186 -6.1596)" fill="#00CCFF" width="1.5" height="1.5"/>
			
				<rect x="73.5" y="46.9" transform="matrix(0.9962 8.715574e-02 -8.715574e-02 0.9962 4.4356 -6.2891)" fill="#00CCFF" width="1.5" height="1.5"/>
			
				<rect x="75" y="47" transform="matrix(0.9962 8.715574e-02 -8.715574e-02 0.9962 4.4527 -6.4185)" fill="#00CCFF" width="1.5" height="1.5"/>
			
				<rect x="76.5" y="47.2" transform="matrix(0.9962 8.715574e-02 -8.715574e-02 0.9962 4.4697 -6.548)" fill="#00CCFF" width="1.5" height="1.5"/>
			
				<rect x="71.9" y="48.3" transform="matrix(0.9962 8.715574e-02 -8.715574e-02 0.9962 4.548 -6.1426)" fill="#00CCFF" width="1.5" height="1.5"/>
			
				<rect x="73.4" y="48.4" transform="matrix(0.9962 8.715574e-02 -8.715574e-02 0.9962 4.5651 -6.272)" fill="#00CCFF" width="1.5" height="1.5"/>
			
				<rect x="74.9" y="48.5" transform="matrix(0.9962 8.715574e-02 -8.715574e-02 0.9962 4.5821 -6.4015)" fill="#00CCFF" width="1.5" height="1.5"/>
			
				<rect x="76.3" y="48.7" transform="matrix(0.9962 8.715574e-02 -8.715574e-02 0.9962 4.5991 -6.5309)" fill="#00CCFF" width="1.5" height="1.5"/>
			
				<rect x="71.7" y="49.8" transform="matrix(0.9962 8.715574e-02 -8.715574e-02 0.9962 4.6775 -6.1255)" fill="#00CCFF" width="1.5" height="1.5"/>
			
				<rect x="73.2" y="49.9" transform="matrix(0.9962 8.715574e-02 -8.715574e-02 0.9962 4.6945 -6.255)" fill="#00CCFF" width="1.5" height="1.5"/>
			
				<rect x="74.7" y="50" transform="matrix(0.9962 8.715574e-02 -8.715574e-02 0.9962 4.7116 -6.3844)" fill="#00CCFF" width="1.5" height="1.5"/>
			
				<rect x="76.2" y="50.1" transform="matrix(0.9962 8.715574e-02 -8.715574e-02 0.9962 4.7286 -6.5139)" fill="#00CCFF" width="1.5" height="1.5"/>
			
				<rect x="71.6" y="51.2" transform="matrix(0.9962 8.715574e-02 -8.715574e-02 0.9962 4.8069 -6.1085)" fill="#00CCFF" width="1.5" height="1.5"/>
			
				<rect x="73.1" y="51.4" transform="matrix(0.9962 8.715574e-02 -8.715574e-02 0.9962 4.824 -6.2379)" fill="#00CCFF" width="1.5" height="1.5"/>
			
				<rect x="74.6" y="51.5" transform="matrix(0.9962 8.715574e-02 -8.715574e-02 0.9962 4.841 -6.3674)" fill="#00CCFF" width="1.5" height="1.5"/>
			
				<rect x="76.1" y="51.6" transform="matrix(0.9962 8.715574e-02 -8.715574e-02 0.9962 4.858 -6.4968)" fill="#00CCFF" width="1.5" height="1.5"/>
			
				<rect x="71.5" y="52.7" transform="matrix(0.9962 8.715574e-02 -8.715574e-02 0.9962 4.9364 -6.0915)" fill="#00CCFF" width="1.5" height="1.5"/>
			
				<rect x="76" y="53.1" transform="matrix(0.9962 8.715574e-02 -8.715574e-02 0.9962 4.9875 -6.4798)" fill="#00CCFF" width="1.5" height="1.5"/>
			
				<rect x="73" y="52.9" transform="matrix(0.9962 8.715574e-02 -8.715574e-02 0.9962 4.9534 -6.2209)" fill="#00CCFF" width="1.5" height="1.5"/>
			
				<rect x="74.5" y="53" transform="matrix(0.9962 8.715574e-02 -8.715574e-02 0.9962 4.9704 -6.3504)" fill="#00CCFF" width="1.5" height="1.5"/>
			
				<rect x="72.8" y="54.4" transform="matrix(0.9962 8.715574e-02 -8.715574e-02 0.9962 5.0828 -6.2039)" fill="#00CCFF" width="1.5" height="1.5"/>
			
				<rect x="74.3" y="54.5" transform="matrix(0.9962 8.715574e-02 -8.715574e-02 0.9962 5.0999 -6.3333)" fill="#00CCFF" width="1.5" height="1.5"/>
			
				<rect x="72.7" y="55.8" transform="matrix(0.9962 8.715574e-02 -8.715574e-02 0.9962 5.2123 -6.1868)" fill="#00CCFF" width="1.5" height="1.5"/>
			
				<rect x="74.2" y="56" transform="matrix(0.9962 8.715574e-02 -8.715574e-02 0.9962 5.2293 -6.3163)" fill="#00CCFF" width="1.5" height="1.5"/>
			
				<rect x="70.6" y="45.2" transform="matrix(0.9962 8.715574e-02 -8.715574e-02 0.9962 4.2721 -6.0472)" fill="#00CCFF" width="1.5" height="1.5"/>
			
				<rect x="78.1" y="45.8" transform="matrix(0.9962 8.715574e-02 -8.715574e-02 0.9962 4.3573 -6.6945)" fill="#00CCFF" width="1.5" height="1.5"/>
			
				<rect x="70.5" y="46.6" transform="matrix(0.9962 8.715574e-02 -8.715574e-02 0.9962 4.4015 -6.0302)" fill="#00CCFF" width="1.5" height="1.5"/>
			
				<rect x="78" y="47.3" transform="matrix(0.9962 8.715574e-02 -8.715574e-02 0.9962 4.4867 -6.6774)" fill="#00CCFF" width="1.5" height="1.5"/>
			
				<rect x="70.4" y="48.1" transform="matrix(0.9962 8.715574e-02 -8.715574e-02 0.9962 4.531 -6.0131)" fill="#00CCFF" width="1.5" height="1.5"/>
			
				<rect x="77.8" y="48.8" transform="matrix(0.9962 8.715574e-02 -8.715574e-02 0.9962 4.6162 -6.6604)" fill="#00CCFF" width="1.5" height="1.5"/>
			
				<rect x="70.2" y="49.6" transform="matrix(0.9962 8.715574e-02 -8.715574e-02 0.9962 4.6604 -5.9961)" fill="#00CCFF" width="1.5" height="1.5"/>
			
				<rect x="77.7" y="50.3" transform="matrix(0.9962 8.715574e-02 -8.715574e-02 0.9962 4.7456 -6.6433)" fill="#00CCFF" width="1.5" height="1.5"/>
		</g>
		
			<rect x="68.8" y="66" transform="matrix(0.9962 8.715574e-02 -8.715574e-02 0.9962 6.0843 -5.8086)" fill="#00CCFF" width="1.5" height="1.5"/>
		
			<rect x="70.3" y="66.2" transform="matrix(0.9962 8.715574e-02 -8.715574e-02 0.9962 6.1014 -5.9381)" fill="#00CCFF" width="1.5" height="1.5"/>
		
			<rect x="71.8" y="66.3" transform="matrix(0.9962 8.715574e-02 -8.715574e-02 0.9962 6.1184 -6.0675)" fill="#00CCFF" width="1.5" height="1.5"/>
		<g>
			
				<rect x="72.1" y="63.3" transform="matrix(0.9962 8.715574e-02 -8.715574e-02 0.9962 5.8595 -6.1016)" fill="#00CCFF" width="1.5" height="1.5"/>
			
				<rect x="73.5" y="63.4" transform="matrix(-0.9962 -8.715574e-02 8.715574e-02 -0.9962 142.7148 134.5952)" fill="#00CCFF" width="1.5" height="1.5"/>
		</g>
		
			<rect x="71.9" y="64.8" transform="matrix(0.9962 8.715574e-02 -8.715574e-02 0.9962 5.989 -6.0846)" fill="#00CCFF" width="1.5" height="1.5"/>
		
			<rect x="70.4" y="64.7" transform="matrix(0.9962 8.715574e-02 -8.715574e-02 0.9962 5.9719 -5.9551)" fill="#00CCFF" width="1.5" height="1.5"/>
		
			<rect x="73.4" y="64.9" transform="matrix(-0.9962 -8.715574e-02 8.715574e-02 -0.9962 142.3244 137.56)" fill="#00CCFF" width="1.5" height="1.5"/>
		
			<rect x="74.9" y="65.1" transform="matrix(-0.9962 -8.715574e-02 8.715574e-02 -0.9962 145.2892 137.9503)" fill="#00CCFF" width="1.5" height="1.5"/>
		
			<rect x="76.3" y="66.7" transform="matrix(-0.9962 -8.715574e-02 8.715574e-02 -0.9962 147.8636 141.3054)" fill="#00CCFF" width="1.5" height="1.5"/>
		
			<rect x="74.8" y="66.5" transform="matrix(-0.9962 -8.715574e-02 8.715574e-02 -0.9962 144.8989 140.915)" fill="#00CCFF" width="1.5" height="1.5"/>
		
			<rect x="73.3" y="66.4" transform="matrix(-0.9962 -8.715574e-02 8.715574e-02 -0.9962 141.9341 140.5247)" fill="#00CCFF" width="1.5" height="1.5"/>
		
			<rect x="68.7" y="67.5" transform="matrix(0.9962 8.715574e-02 -8.715574e-02 0.9962 6.2138 -5.7916)" fill="#00CCFF" width="1.5" height="1.5"/>
		
			<rect x="70.2" y="67.6" transform="matrix(0.9962 8.715574e-02 -8.715574e-02 0.9962 6.2308 -5.921)" fill="#00CCFF" width="1.5" height="1.5"/>
		
			<rect x="71.7" y="67.8" transform="matrix(0.9962 8.715574e-02 -8.715574e-02 0.9962 6.2478 -6.0505)" fill="#00CCFF" width="1.5" height="1.5"/>
		
			<rect x="71.5" y="69.3" transform="matrix(0.9962 8.715574e-02 -8.715574e-02 0.9962 6.3773 -6.0334)" fill="#00CCFF" width="1.5" height="1.5"/>
		
			<rect x="76.1" y="68.2" transform="matrix(-0.9962 -8.715574e-02 8.715574e-02 -0.9962 147.4733 144.2701)" fill="#00CCFF" width="1.5" height="1.5"/>
		
			<rect x="74.6" y="68" transform="matrix(-0.9962 -8.715574e-02 8.715574e-02 -0.9962 144.5086 143.8798)" fill="#00CCFF" width="1.5" height="1.5"/>
		
			<rect x="70" y="69.1" transform="matrix(0.9962 8.715574e-02 -8.715574e-02 0.9962 6.3602 -5.904)" fill="#00CCFF" width="1.5" height="1.5"/>
		
			<rect x="74.5" y="69.5" transform="matrix(-0.9962 -8.715574e-02 8.715574e-02 -0.9962 144.1182 146.8446)" fill="#00CCFF" width="1.5" height="1.5"/>
		
			<rect x="73.2" y="67.9" transform="matrix(-0.9962 -8.715574e-02 8.715574e-02 -0.9962 141.5438 143.4895)" fill="#00CCFF" width="1.5" height="1.5"/>
		
			<rect x="73" y="69.4" transform="matrix(-0.9962 -8.715574e-02 8.715574e-02 -0.9962 141.1535 146.4543)" fill="#00CCFF" width="1.5" height="1.5"/>
		
			<rect x="71.4" y="70.8" transform="matrix(0.9962 8.715574e-02 -8.715574e-02 0.9962 6.5067 -6.0164)" fill="#00CCFF" width="1.5" height="1.5"/>
		
			<rect x="72.9" y="70.9" transform="matrix(-0.9962 -8.715574e-02 8.715574e-02 -0.9962 140.7632 149.419)" fill="#00CCFF" width="1.5" height="1.5"/>
	</g>
</g>
</svg>
