<?xml version="1.0" encoding="utf-8"?>
<!-- Generator: Adobe Illustrator 25.4.2, SVG Export Plug-In . SVG Version: 6.00 Build 0)  -->
<svg version="1.1" id="Capa_1" xmlns="http://www.w3.org/2000/svg" xmlns:xlink="http://www.w3.org/1999/xlink" x="0px" y="0px"
	 viewBox="0 0 150 150" style="enable-background:new 0 0 150 150;" xml:space="preserve">
<style type="text/css">
	.st0{fill:url(#SVGID_1_);}
	.st1{fill:url(#SVGID_00000167358198559507537640000014360466905872543365_);}
	.st2{opacity:0.6;}
	.st3{fill:#FFFFFF;}
	.st4{fill:none;}
	.st5{fill:url(#SVGID_00000162343757042237875600000011205364887146362775_);}
	.st6{fill:url(#SVGID_00000118381600610642345290000012323792720075411891_);}
	.st7{fill:url(#SVGID_00000102515824695690628050000018029357615797408668_);}
	.st8{fill:url(#SVGID_00000126310832935573922150000002310017205576604567_);}
	.st9{fill:url(#SVGID_00000155127787339019299270000002266682251572578463_);}
	.st10{fill:url(#SVGID_00000167397207838370198270000014272875319143723956_);}
	.st11{clip-path:url(#SVGID_00000107584536559288816580000000669664974393309568_);}
	.st12{fill:url(#SVGID_00000178196863276422109370000018339520148744326275_);}
	.st13{fill:#00CCFF;}
	.st14{fill:#002855;}
	.st15{fill:url(#SVGID_00000167354361607533966240000008340529281117731514_);}
	.st16{fill:url(#SVGID_00000176743525634394563490000012351954562564685731_);}
	.st17{fill:url(#SVGID_00000123412168691837322190000003781483075612763815_);}
	.st18{fill:url(#SVGID_00000172440279515922373880000003858172443198694813_);}
	.st19{fill:url(#SVGID_00000077315457668304237820000011390884416185493423_);}
	.st20{fill:url(#SVGID_00000093174552624056359170000009395882988708691851_);}
	.st21{opacity:7.000000e-02;fill:#01060A;enable-background:new    ;}
	.st22{fill:url(#SVGID_00000139290814860659153960000001591791230894744470_);}
	.st23{fill:url(#SVGID_00000011005978275622783730000007680267289190996864_);}
	.st24{fill:url(#SVGID_00000013154296360202855720000009484535740168177850_);}
	.st25{fill:url(#SVGID_00000099627035655707210730000014338544955651921562_);}
	.st26{fill:url(#SVGID_00000074443065493100810810000001027831613927705268_);}
	.st27{fill:url(#SVGID_00000175317801837090910760000016994982773231293573_);}
	.st28{fill:url(#SVGID_00000106140517952944961420000012073690680090563968_);}
	.st29{fill:url(#SVGID_00000093153468364133464280000011778324335779721389_);}
	.st30{fill:url(#SVGID_00000016792174209341105410000002021292336795263387_);}
	.st31{fill:#A2CFE5;}
	.st32{fill:url(#SVGID_00000005231217692322012250000004228796598943324605_);}
	.st33{fill:#FFCD01;}
</style>
<g id="BG">
	
		<radialGradient id="SVGID_1_" cx="72.8693" cy="22.1609" r="102.8698" gradientTransform="matrix(1 0 0 -1 0 152)" gradientUnits="userSpaceOnUse">
		<stop  offset="0" style="stop-color:#0095BB"/>
		<stop  offset="1" style="stop-color:#00CCFF"/>
	</radialGradient>
	<circle class="st0" cx="75" cy="75" r="60"/>
</g>
<g id="Left_Arm">
	<g>
		<g>
			<g>
				<g>
					
						<radialGradient id="SVGID_00000067956654491827714680000000947747776339187127_" cx="-901.1484" cy="72.6638" r="5.1541" gradientTransform="matrix(-1 0 0 -1 -768.94 152)" gradientUnits="userSpaceOnUse">
						<stop  offset="0" style="stop-color:#004A9C"/>
						<stop  offset="1" style="stop-color:#003979"/>
					</radialGradient>
					<path style="fill:url(#SVGID_00000067956654491827714680000000947747776339187127_);" d="M128.7,84.9c0.2,0.3,0.5,0.4,0.8,0.5
						c0.5,0.1,1,0,1.4-0.3c1.5-1.2,2.6-2.8,3.4-4.3c0-0.1,0.1-0.2,0.1-0.2c0.6-1.2,1-2.4,1.2-3.3l0,0c0-0.1,0-0.2,0.1-0.2
						c0.3-1.2,0.4-2,0.4-2.1c0.1-0.9-0.5-1.7-1.4-1.7c-0.9-0.1-1.6,0.5-1.7,1.4c0,0-0.1,0.6-0.3,1.4l-0.1,0.3
						c-0.2,0.8-0.6,1.9-1.1,3c0,0.1-0.1,0.1-0.1,0.2c-0.6,1.1-1.4,2.3-2.5,3.2C128.2,83.2,128.1,84.2,128.7,84.9z"/>
				</g>
				<g class="st2">
					<path class="st3" d="M135.6,77.3c-0.1,0-0.3,0-0.5,0c-0.7,0-1.7-0.2-2.5-1l0.1-0.3c1,1.3,2.7,1.1,3,1L135.6,77.3z"/>
					<path class="st4" d="M135.6,77.3L135.6,77.3L135.6,77.3"/>
				</g>
				<g class="st2">
					<path class="st3" d="M131.4,79.5c1.1,1.2,2.2,1.4,2.7,1.4h0.1c0-0.1,0.1-0.2,0.1-0.2c-0.3,0-1.6,0.1-2.9-1.4
						C131.5,79.3,131.4,79.4,131.4,79.5z"/>
				</g>
			</g>
			<g>
				<g>
					
						<radialGradient id="SVGID_00000124162246467403914040000015950111284620773019_" cx="-1019.2782" cy="205.3747" r="5.1524" gradientTransform="matrix(-0.9587 -0.2845 0.2845 -0.9587 -899.9084 -10.1336)" gradientUnits="userSpaceOnUse">
						<stop  offset="0" style="stop-color:#004A9C"/>
						<stop  offset="1" style="stop-color:#003979"/>
					</radialGradient>
					<path style="fill:url(#SVGID_00000124162246467403914040000015950111284620773019_);" d="M130.7,87.3c0.1,0.3,0.3,0.6,0.6,0.7
						c0.4,0.3,1,0.3,1.5,0.1c1.8-0.8,3.3-1.9,4.4-3.2c0.1-0.1,0.1-0.1,0.2-0.2c0.9-1,1.6-2,2.1-2.8l0,0c0-0.1,0.1-0.1,0.1-0.2
						c0.6-1.1,1-1.8,1-1.9c0.3-0.8,0-1.7-0.9-2.1c-0.8-0.3-1.7,0-2.1,0.8c0,0-0.2,0.5-0.7,1.3l-0.1,0.2c-0.5,0.7-1.1,1.6-1.9,2.5
						c0,0.1-0.1,0.1-0.2,0.2c-0.9,0.9-2,1.8-3.3,2.4C130.7,85.6,130.4,86.5,130.7,87.3z"/>
				</g>
				<g class="st2">
					<path class="st3" d="M139.5,82c-0.1,0-0.3-0.1-0.5-0.1c-0.6-0.2-1.6-0.7-2.1-1.7L137,80c0.6,1.5,2.2,1.8,2.6,1.8L139.5,82z"/>
					<path class="st4" d="M139.5,82L139.5,82L139.5,82"/>
				</g>
				<g class="st2">
					<path class="st3" d="M134.9,82.9c0.7,1.5,1.7,2,2.2,2.1h0.1c0.1-0.1,0.1-0.1,0.2-0.2c-0.3-0.1-1.5-0.4-2.3-2.1
						C135,82.8,134.9,82.8,134.9,82.9z"/>
				</g>
			</g>
			<g>
				<g>
					
						<radialGradient id="SVGID_00000026147498044736853270000005372815406831331237_" cx="-1109.9003" cy="455.3975" r="5.1524" gradientTransform="matrix(-0.7457 -0.6663 0.6663 -0.7457 -994.2268 -311.8329)" gradientUnits="userSpaceOnUse">
						<stop  offset="0" style="stop-color:#004A9C"/>
						<stop  offset="1" style="stop-color:#003979"/>
					</radialGradient>
					<path style="fill:url(#SVGID_00000026147498044736853270000005372815406831331237_);" d="M130.5,89.9c0,0.3,0.1,0.7,0.2,0.9
						c0.3,0.4,0.7,0.7,1.3,0.7c2,0.1,3.8-0.3,5.4-1c0.1,0,0.2-0.1,0.2-0.1c1.2-0.5,2.3-1.1,3.2-1.7l0,0c0.1,0,0.1-0.1,0.2-0.1
						c1-0.7,1.6-1.2,1.7-1.3c0.6-0.6,0.7-1.6,0.1-2.2c-0.6-0.6-1.6-0.7-2.2-0.1c0,0-0.4,0.4-1.2,0.9l-0.2,0.2
						c-0.7,0.5-1.7,1-2.8,1.5c-0.1,0-0.1,0.1-0.2,0.1c-1.2,0.5-2.6,0.8-4,0.7C131.3,88.3,130.5,89,130.5,89.9z"/>
				</g>
				<g class="st2">
					<path class="st3" d="M140.8,88.8c-0.1-0.1-0.2-0.2-0.4-0.3c-0.5-0.4-1.2-1.3-1.2-2.4l0.2-0.2c-0.1,1.6,1.3,2.6,1.6,2.8
						L140.8,88.8z"/>
					<path class="st4" d="M140.8,88.8L140.8,88.8L140.8,88.8"/>
				</g>
				<g class="st2">
					<path class="st3" d="M136.2,87.7c0,1.6,0.7,2.5,1.1,2.9l0.1,0.1c0.1,0,0.2-0.1,0.2-0.1c-0.2-0.2-1.2-1-1.2-2.9
						C136.3,87.6,136.3,87.6,136.2,87.7z"/>
				</g>
			</g>
			
				<radialGradient id="SVGID_00000004504079447721613630000001193879025463763334_" cx="-1008.7433" cy="199.3301" r="9.9386" gradientTransform="matrix(-0.9634 -0.2682 0.2682 -0.9634 -892.5749 2.0894)" gradientUnits="userSpaceOnUse">
				<stop  offset="0" style="stop-color:#002855"/>
				<stop  offset="0.4671" style="stop-color:#002753"/>
				<stop  offset="0.7099" style="stop-color:#00234B"/>
				<stop  offset="0.9004" style="stop-color:#001D3E"/>
				<stop  offset="1" style="stop-color:#001833"/>
			</radialGradient>
			<path style="fill:url(#SVGID_00000004504079447721613630000001193879025463763334_);" d="M126.6,80.6c-2.6,1.2-3.5,4.9-1.9,8.4
				s4.9,5.3,7.6,4.1s3.5-4.9,1.9-8.4S129.2,79.4,126.6,80.6z"/>
			<g>
				<g>
					
						<radialGradient id="SVGID_00000018207008223380531590000009020175655216940945_" cx="-896.1264" cy="71.4458" r="4.1175" gradientTransform="matrix(-1 0 0 -1 -768.94 152)" gradientUnits="userSpaceOnUse">
						<stop  offset="0" style="stop-color:#004A9C"/>
						<stop  offset="1" style="stop-color:#003979"/>
					</radialGradient>
					<path style="fill:url(#SVGID_00000018207008223380531590000009020175655216940945_);" d="M124.8,81.6c0,0.9,0.1,1.9,0.4,3
						c0.1,0.6,0.6,1,1.1,1.2c0.3,0.1,0.5,0.1,0.8,0c0.8-0.2,1.4-1.1,1.2-1.9c-0.1-0.6-0.2-1.1-0.3-1.7c0-0.1,0-0.2,0-0.2
						c-0.1-1.1,0.1-2.1,0.5-2.9l0.1-0.2c0.2-0.4,0.4-0.7,0.7-1.1c0.5-0.7,0.4-1.7-0.2-2.2c-0.7-0.5-1.7-0.4-2.2,0.2
						c-0.4,0.6-0.9,1.3-1.3,2.1l-0.1,0.2c-0.3,0.9-0.6,1.9-0.6,3.2C124.8,81.4,124.8,81.5,124.8,81.6z"/>
				</g>
				<g class="st2">
					<path class="st3" d="M125.5,77.9c1.4,0.9,2.6,1,3.1,0.9l-0.1,0.2c0,0,0,0-0.1,0c-0.6,0-1.7-0.1-3-1L125.5,77.9z"/>
				</g>
				<g class="st2">
					<path class="st3" d="M124.8,81.6c0.7,0.5,1.6,0.7,2.4,0.7c0.4,0,0.6,0,0.8-0.1c0-0.1,0-0.2,0-0.2c-0.6,0.1-2.3,0.2-3.2-0.7
						C124.8,81.4,124.8,81.5,124.8,81.6z"/>
				</g>
			</g>
		</g>
		<g>
			
				<radialGradient id="SVGID_00000064344520787405705260000003613499458401158828_" cx="-868.936" cy="55.5951" r="10.1615" gradientTransform="matrix(-1 0 0 -1 -768.94 152)" gradientUnits="userSpaceOnUse">
				<stop  offset="0" style="stop-color:#003978"/>
				<stop  offset="1" style="stop-color:#002855"/>
			</radialGradient>
			<path style="fill:url(#SVGID_00000064344520787405705260000003613499458401158828_);" d="M89.6,99.6c0.1,1.1,0.4,2.1,0.9,2.9
				c0,0.1,0.1,0.2,0.1,0.2c1.4,0.9,2.9,1.6,4.3,2.2c2.7,1.1,5.5,1.6,8.2,1.6c3.2,0,6.4-0.8,9.6-2.3c2.2-1.1,3.2-3.7,2.1-6
				c-1.1-2.2-3.7-3.2-6-2.1c-2.8,1.3-6.9,2.5-12.6-0.6c-1.2-0.6-2.4-1.5-3.8-2.6l-0.1-0.1c-0.4,0.1-0.7,0.2-1,0.5
				C90,94.6,89.3,97,89.6,99.6z"/>
		</g>
		<g>
			
				<linearGradient id="SVGID_00000113324940541822805740000003954485588830953662_" gradientUnits="userSpaceOnUse" x1="-890.524" y1="45.8535" x2="-878.2518" y2="63.8128" gradientTransform="matrix(-1 0 0 -1 -768.94 152)">
				<stop  offset="0" style="stop-color:#8BB2C5"/>
				<stop  offset="0.1547" style="stop-color:#9DBECE"/>
				<stop  offset="0.5233" style="stop-color:#C4D7E0"/>
				<stop  offset="0.818" style="stop-color:#DCE6EC"/>
				<stop  offset="1" style="stop-color:#E5ECF0"/>
			</linearGradient>
			<path style="fill:url(#SVGID_00000113324940541822805740000003954485588830953662_);" d="M106.8,106.8
				c13.7-0.4,19.2-6.1,21.2-9.1c0.7-1.1,0.9-2.5,0.6-3.7c-0.5-1.9-1.8-5-4.9-8c-1.3-1.3-3.2-1.6-4.8-1c-2.2,0.9-5.4,2.6-8.4,6
				c-2.3,2.7-5.5,4.7-7,5.5c-0.5,0.3-0.9,0.8-0.9,1.4c-0.1,1.8,0,5.7,3,8.4C105.9,106.7,106.3,106.8,106.8,106.8z"/>
			<g>
				<path class="st3" d="M109.8,93.3c0.2-0.2,0.4-0.4,0.7-0.7c0.3-0.3,0.6-0.6,0.9-0.8l0,0c0.3-0.2,0.7-0.2,1,0.1
					c0.2,0.3,0.2,0.7-0.1,1c0,0-0.1,0-0.1,0.1c-0.3,0.2-0.6,0.4-0.8,0.6c-0.3,0.2-0.6,0.5-1,0.7c-0.3,0.1-0.6,0-0.7-0.2
					C109.5,93.7,109.6,93.4,109.8,93.3L109.8,93.3z"/>
			</g>
			<g>
				<path class="st3" d="M119,88.1c-0.4,0.2-0.8,0.4-1.2,0.6c-0.4,0.2-0.8,0.5-1.2,0.7c-0.8,0.5-1.6,1-2.3,1.6l0,0
					c-0.3,0.2-0.7,0.2-0.9-0.1c-0.2-0.2-0.2-0.6,0-0.8c0.7-0.7,1.4-1.4,2.2-2c0.4-0.3,0.8-0.6,1.2-0.9c0.4-0.3,0.8-0.6,1.3-0.9
					s1.1-0.2,1.4,0.3s0.2,1.1-0.3,1.4C119.1,88.1,119.1,88.1,119,88.1L119,88.1z"/>
			</g>
		</g>
	</g>
</g>
<g id="Body">
	<g>
		<g>
			<defs>
				<circle id="SVGID_00000072270659025803844360000017190273590969453710_" cx="75" cy="75" r="60"/>
			</defs>
			<clipPath id="SVGID_00000070101999232663293370000005904721628571074178_">
				<use xlink:href="#SVGID_00000072270659025803844360000017190273590969453710_"  style="overflow:visible;"/>
			</clipPath>
			<g style="clip-path:url(#SVGID_00000070101999232663293370000005904721628571074178_);">
				
					<radialGradient id="SVGID_00000029731065028748152720000007939877447081847703_" cx="84.4376" cy="53.1469" r="40.314" gradientTransform="matrix(1 0 0 -1 0 152)" gradientUnits="userSpaceOnUse">
					<stop  offset="0" style="stop-color:#E5ECF0"/>
					<stop  offset="0.3988" style="stop-color:#E3EBEF"/>
					<stop  offset="0.5758" style="stop-color:#DCE6EC"/>
					<stop  offset="0.7091" style="stop-color:#CFDEE5"/>
					<stop  offset="0.8203" style="stop-color:#BDD2DD"/>
					<stop  offset="0.9168" style="stop-color:#A6C3D2"/>
					<stop  offset="1" style="stop-color:#8BB2C5"/>
				</radialGradient>
				<path style="fill:url(#SVGID_00000029731065028748152720000007939877447081847703_);" d="M101.2,113.2
					c0,13.4-11.7,24.3-26.1,24.3S49,126.6,49,113.2s3.7-29.7,26.1-29.7c19.2,0,24.6,11.9,25.8,23.8c0.1,0.7,0.1,1.4,0.2,2.1
					C101.2,110.6,101.2,111.9,101.2,113.2z"/>
				<path class="st13" d="M82.4,105.6c-3.9,0.7-6.9,4.7-6.7,9c0.1,4.3,3.4,7.2,7.2,6.5s6.9-4.7,6.7-9
					C89.5,107.8,86.3,104.9,82.4,105.6"/>
				<path class="st14" d="M82.4,106.9c-3.2,0.6-5.7,3.9-5.6,7.5s2.8,6,6,5.5c3.2-0.6,5.7-3.9,5.6-7.5
					C88.3,108.7,85.6,106.3,82.4,106.9"/>
				<polyline class="st3" points="85.1,109.2 83.9,109.4 82.5,112.7 81.8,112.8 81.7,109.8 79.5,110.2 79.5,110.9 80.4,110.8 
					80.6,117.4 81.9,117.1 81.8,113.7 82.3,113.6 84.2,116.7 85.8,116.5 83.4,112.4 84.4,110.1 85.1,110 85.1,109.2 				"/>
				<path class="st3" d="M96.4,102.1l0.3,1c0.1,0.3-0.1,0.5-0.3,0.6c-0.3,0.1-0.5-0.1-0.6-0.3v-0.1l0,0v-1l0,0
					c0-0.2,0.2-0.4,0.4-0.4C96.2,101.8,96.4,102,96.4,102.1z"/>
				<path class="st3" d="M93.1,92.5c0.4,0.6,0.7,1.2,1,1.8c0.3,0.6,0.6,1.2,0.8,1.9c0.5,1.3,0.9,2.6,1.2,3.9c0,0.2-0.1,0.4-0.3,0.4
					c-0.2,0-0.3-0.1-0.4-0.2c-0.5-1.2-1.1-2.4-1.8-3.5c-0.3-0.6-0.7-1.1-1.1-1.6s-0.8-1-1.2-1.5l0,0c-0.4-0.4-0.4-1,0-1.4
					s1-0.4,1.4,0C93,92.4,93,92.5,93.1,92.5z"/>
				<g>
					<path class="st14" d="M101.1,109.4c-2.2,1.5-4.8,2.8-7.6,3.7c-0.1,0-0.2,0-0.3,0c-0.4,0-0.7-0.2-0.9-0.6
						c-0.2-0.5,0.1-1,0.6-1.1c3.1-1,5.7-2.4,8-4.1C101,108,101,108.7,101.1,109.4z"/>
				</g>
				<g>
					<path class="st14" d="M71.2,115.1C71.1,115.1,71.1,115.1,71.2,115.1c-5.1-0.2-10.5-0.9-16.1-2.1c-0.5-0.1-0.8-0.6-0.7-1.1
						s0.6-0.8,1.1-0.7c5.5,1.2,10.9,1.9,15.8,2.1c0.5,0,0.9,0.4,0.9,0.9C72,114.7,71.6,115.1,71.2,115.1z"/>
				</g>
				
					<radialGradient id="SVGID_00000178203217705331768450000009325605452936030594_" cx="79.4288" cy="60.9399" r="8.2418" gradientTransform="matrix(1 0 0 -1 0 152)" gradientUnits="userSpaceOnUse">
					<stop  offset="0" style="stop-color:#003978"/>
					<stop  offset="1" style="stop-color:#002855"/>
				</radialGradient>
				
					<ellipse style="fill:url(#SVGID_00000178203217705331768450000009325605452936030594_);" cx="79.4" cy="91.1" rx="8.9" ry="7.6"/>
			</g>
		</g>
	</g>
</g>
<g id="Right_Arm">
	<g>
		<g>
			<g>
				<g>
					
						<radialGradient id="SVGID_00000137854928759579440310000001982366173294298262_" cx="17.7916" cy="70.7516" r="5.1542" gradientTransform="matrix(1 0 0 -1 0 152)" gradientUnits="userSpaceOnUse">
						<stop  offset="0" style="stop-color:#004A9C"/>
						<stop  offset="1" style="stop-color:#003979"/>
					</radialGradient>
					<path style="fill:url(#SVGID_00000137854928759579440310000001982366173294298262_);" d="M21.3,86.8c-0.2,0.3-0.5,0.4-0.8,0.5
						c-0.5,0.1-1,0-1.4-0.3c-1.5-1.2-2.6-2.8-3.4-4.3c0-0.1-0.1-0.2-0.1-0.2c-0.6-1.2-1-2.4-1.2-3.3l0,0c0-0.1,0-0.2-0.1-0.2
						c-0.3-1.2-0.4-2-0.4-2.1c-0.1-0.9,0.5-1.7,1.4-1.7c0.9-0.1,1.6,0.5,1.7,1.4c0,0,0.1,0.6,0.3,1.4l0.1,0.3c0.2,0.8,0.6,1.9,1.1,3
						c0,0.1,0.1,0.1,0.1,0.2c0.6,1.1,1.4,2.3,2.5,3.2C21.8,85.2,21.9,86.1,21.3,86.8z"/>
				</g>
				<g class="st2">
					<path class="st3" d="M14.3,79c0.4,0.1,2,0.2,3-1l0.1,0.3c-0.8,0.9-1.8,1-2.5,1c-0.2,0-0.4,0-0.5,0L14.3,79z"/>
					<path class="st4" d="M14.4,79.2L14.4,79.2L14.4,79.2"/>
				</g>
				<g class="st2">
					<path class="st3" d="M18.6,81.4c-1.1,1.2-2.2,1.4-2.7,1.4h-0.1c0-0.1-0.1-0.2-0.1-0.2c0.3,0,1.6,0.1,2.9-1.4
						C18.5,81.2,18.6,81.3,18.6,81.4z"/>
				</g>
			</g>
			<g>
				<g>
					
						<radialGradient id="SVGID_00000070824493429401561610000007782337049333312699_" cx="-138.8708" cy="-57.908" r="5.1558" gradientTransform="matrix(0.9587 -0.2845 -0.2845 -0.9587 130.9683 -10.1336)" gradientUnits="userSpaceOnUse">
						<stop  offset="0" style="stop-color:#004A9C"/>
						<stop  offset="1" style="stop-color:#003979"/>
					</radialGradient>
					<path style="fill:url(#SVGID_00000070824493429401561610000007782337049333312699_);" d="M19.3,89.2c-0.1,0.3-0.3,0.6-0.6,0.7
						c-0.4,0.3-1,0.3-1.5,0.1c-1.8-0.8-3.3-1.9-4.4-3.2c-0.1-0.1-0.1-0.1-0.2-0.2c-0.9-1-1.6-2-2.1-2.8l0,0c0-0.1-0.1-0.1-0.1-0.2
						c-0.6-1.1-1-1.8-1-1.9c-0.4-0.7,0-1.7,0.8-2s1.7,0,2.1,0.8c0,0,0.2,0.5,0.7,1.3l0.1,0.2c0.5,0.7,1.1,1.6,1.9,2.5
						c0,0.1,0.1,0.1,0.2,0.2c0.9,0.9,2,1.8,3.3,2.4C19.3,87.5,19.6,88.4,19.3,89.2z"/>
				</g>
				<g class="st2">
					<path class="st3" d="M10.3,83.7c0.4,0,2-0.3,2.6-1.8l0.1,0.2c-0.5,1-1.5,1.5-2.1,1.7c-0.2,0.1-0.3,0.1-0.5,0.1L10.3,83.7z"/>
					<path class="st4" d="M10.5,83.9L10.5,83.9L10.5,83.9"/>
				</g>
				<g class="st2">
					<path class="st3" d="M15.1,84.8c-0.7,1.5-1.7,2-2.2,2.1h-0.1c-0.1-0.1-0.1-0.1-0.2-0.2c0.3-0.1,1.5-0.4,2.3-2.1
						C15,84.7,15.1,84.7,15.1,84.8z"/>
				</g>
			</g>
			<g>
				<g>
					
						<radialGradient id="SVGID_00000050658920328889164210000003684910304451497363_" cx="-425.9232" cy="-158.2958" r="5.1524" gradientTransform="matrix(0.7457 -0.6663 -0.6663 -0.7457 225.2867 -311.8329)" gradientUnits="userSpaceOnUse">
						<stop  offset="0" style="stop-color:#004A9C"/>
						<stop  offset="1" style="stop-color:#003979"/>
					</radialGradient>
					<path style="fill:url(#SVGID_00000050658920328889164210000003684910304451497363_);" d="M19.5,91.8c0,0.3-0.1,0.7-0.2,0.9
						c-0.3,0.4-0.7,0.7-1.3,0.7c-2,0.1-3.8-0.3-5.4-1c-0.1,0-0.2-0.1-0.2-0.1c-1.2-0.5-2.3-1.1-3.2-1.7l0,0c-0.1,0-0.1-0.1-0.2-0.1
						c-1-0.7-1.6-1.2-1.7-1.3c-0.6-0.6-0.7-1.6-0.1-2.2s1.6-0.7,2.2-0.1c0,0,0.4,0.4,1.2,0.9l0.2,0.2c0.7,0.5,1.7,1,2.8,1.5
						c0.1,0,0.1,0.1,0.2,0.1c1.2,0.5,2.6,0.8,4,0.7C18.7,90.2,19.5,90.9,19.5,91.8z"/>
				</g>
				<g class="st2">
					<path class="st3" d="M9,90.6c0.3-0.2,1.6-1.2,1.6-2.8l0.2,0.2c0,1.2-0.7,2-1.2,2.4c-0.1,0.1-0.3,0.2-0.4,0.3L9,90.6z"/>
					<path class="st4" d="M9.2,90.7L9.2,90.7L9.2,90.7"/>
				</g>
				<g class="st2">
					<path class="st3" d="M13.8,89.6c0,1.6-0.7,2.5-1.1,2.9l-0.1,0.1c-0.1,0-0.2-0.1-0.2-0.1c0.2-0.2,1.2-1,1.2-2.9
						C13.7,89.5,13.7,89.5,13.8,89.6z"/>
				</g>
			</g>
			
				<radialGradient id="SVGID_00000066476249216309687270000009965266140464832675_" cx="-123.997" cy="-48.9609" r="9.9386" gradientTransform="matrix(0.9634 -0.2682 -0.2682 -0.9634 123.6349 2.0894)" gradientUnits="userSpaceOnUse">
				<stop  offset="0" style="stop-color:#002855"/>
				<stop  offset="0.4671" style="stop-color:#002753"/>
				<stop  offset="0.7099" style="stop-color:#00234B"/>
				<stop  offset="0.9004" style="stop-color:#001D3E"/>
				<stop  offset="1" style="stop-color:#001833"/>
			</radialGradient>
			<path style="fill:url(#SVGID_00000066476249216309687270000009965266140464832675_);" d="M23.4,82.5c2.6,1.2,3.5,4.9,1.9,8.4
				s-4.9,5.3-7.6,4.1s-3.5-4.9-1.9-8.4C17.4,83.2,20.8,81.4,23.4,82.5z"/>
			<g>
				<g>
					
						<radialGradient id="SVGID_00000161612937038838326810000000638190429736311960_" cx="22.8136" cy="69.5336" r="4.1175" gradientTransform="matrix(1 0 0 -1 0 152)" gradientUnits="userSpaceOnUse">
						<stop  offset="0" style="stop-color:#004A9C"/>
						<stop  offset="1" style="stop-color:#003979"/>
					</radialGradient>
					<path style="fill:url(#SVGID_00000161612937038838326810000000638190429736311960_);" d="M25.2,83.6c0,0.9-0.1,1.9-0.4,3
						c-0.1,0.6-0.6,1-1.1,1.2c-0.3,0.1-0.5,0.1-0.8,0c-0.8-0.2-1.4-1.1-1.2-1.9c0.1-0.6,0.2-1.1,0.3-1.7c0-0.1,0-0.2,0-0.2
						c0.1-1.1-0.1-2.1-0.5-2.9l-0.1-0.2c-0.2-0.4-0.4-0.7-0.7-1.1c-0.5-0.7-0.4-1.7,0.2-2.2c0.7-0.5,1.7-0.4,2.2,0.2
						c0.4,0.6,0.9,1.3,1.3,2.1l0.1,0.2c0.3,0.9,0.6,1.9,0.6,3.2C25.2,83.3,25.2,83.4,25.2,83.6z"/>
				</g>
				<g class="st2">
					<path class="st3" d="M24.6,80.1c-1.3,0.8-2.4,1-3,1c0,0,0,0-0.1,0l-0.1-0.2c0.4,0,1.7,0,3.1-0.9L24.6,80.1z"/>
				</g>
				<g class="st2">
					<path class="st3" d="M25.2,83.6c-0.7,0.5-1.6,0.7-2.4,0.7c-0.4,0-0.6,0-0.8-0.1c0-0.1,0-0.2,0-0.2c0.6,0.1,2.3,0.2,3.2-0.7
						C25.2,83.3,25.2,83.4,25.2,83.6z"/>
				</g>
			</g>
		</g>
		<path class="st21" d="M56.1,108.1c-0.1,0-0.3,0-0.4,0c-0.3,0-0.4-0.1-0.6-0.2c-0.1,0-0.3-0.1-0.4-0.2c-2-1-3.1-4-2.7-7.3
			c0.2-1.2,0.5-2.3,1-3.3c0-0.1,0.1-0.2,0.1-0.3c1-1.8,2.5-2.9,4-2.9c0.1,0,0.3,0,0.4,0c0.1,0,0.2,0,0.3,0.1c0.5,0.1,1,0.3,1.4,0.6
			c1.6,1.3,2.5,4,2.1,6.9c-0.2,1.2-0.5,2.2-1,3.2c0,0.1-0.1,0.1-0.1,0.2C59.2,107,57.7,108.1,56.1,108.1z"/>
		<path d="M60.4,101.5c-0.1,1.1-0.4,2.1-0.9,2.9c0,0.1-0.1,0.2-0.1,0.2c-0.9,1.6-2.2,2.6-3.6,2.5c-0.2,0-0.3-0.1-0.4-0.1
			c-0.1,0-0.2-0.1-0.3-0.1c-1.6-0.8-2.6-3.4-2.2-6.4c0.1-1.1,0.5-2.1,0.9-3c0-0.1,0.1-0.2,0.1-0.2c0.9-1.6,2.2-2.6,3.6-2.4
			c0.1,0,0.1,0,0.2,0c0.4,0.1,0.7,0.2,1,0.5C60,96.5,60.7,98.9,60.4,101.5z"/>
		<g>
			
				<radialGradient id="SVGID_00000091010198324020786060000000009335803366374050_" cx="50.0041" cy="53.6829" r="10.1615" gradientTransform="matrix(1 0 0 -1 0 152)" gradientUnits="userSpaceOnUse">
				<stop  offset="0" style="stop-color:#003978"/>
				<stop  offset="1" style="stop-color:#002855"/>
			</radialGradient>
			<path style="fill:url(#SVGID_00000091010198324020786060000000009335803366374050_);" d="M60.4,101.5c-0.1,1.1-0.4,2.1-0.9,2.9
				c0,0.1-0.1,0.2-0.1,0.2c-1.4,0.9-2.9,1.6-4.3,2.2c-2.7,1.1-5.5,1.6-8.2,1.6c-3.2,0-6.4-0.8-9.6-2.3c-2.2-1.1-3.2-3.7-2.1-6
				c1.1-2.2,3.7-3.2,6-2.1c2.8,1.3,6.9,2.5,12.6-0.6c1.2-0.6,2.4-1.5,3.8-2.6l0.1-0.1c0.4,0.1,0.7,0.2,1,0.5
				C60,96.5,60.7,98.9,60.4,101.5z"/>
		</g>
		<g>
			
				<linearGradient id="SVGID_00000047040961848477833360000002113288767273107332_" gradientUnits="userSpaceOnUse" x1="28.4104" y1="43.9452" x2="40.6825" y2="61.9044" gradientTransform="matrix(1 0 0 -1 0 152)">
				<stop  offset="0" style="stop-color:#8BB2C5"/>
				<stop  offset="0.1547" style="stop-color:#9DBECE"/>
				<stop  offset="0.5233" style="stop-color:#C4D7E0"/>
				<stop  offset="0.818" style="stop-color:#DCE6EC"/>
				<stop  offset="1" style="stop-color:#E5ECF0"/>
			</linearGradient>
			<path style="fill:url(#SVGID_00000047040961848477833360000002113288767273107332_);" d="M43.2,108.7
				c-13.7-0.4-19.2-6.1-21.2-9.1c-0.7-1.1-0.9-2.5-0.6-3.7c0.5-1.9,1.8-5,4.9-8c1.3-1.3,3.2-1.6,4.8-1c2.2,0.9,5.4,2.6,8.4,6
				c2.3,2.7,5.5,4.7,7,5.5c0.5,0.3,0.9,0.8,0.9,1.4c0.1,1.8,0,5.7-3,8.4C44.1,108.6,43.7,108.8,43.2,108.7z"/>
			<g>
				<path class="st3" d="M39.7,96.1c-0.4-0.2-0.7-0.5-1-0.7s-0.5-0.4-0.8-0.6s-0.4-0.6-0.2-0.9s0.6-0.4,0.9-0.2c0,0,0,0,0.1,0.1l0,0
					c0.3,0.2,0.6,0.5,0.9,0.8c0.3,0.3,0.5,0.5,0.7,0.7l0,0c0.2,0.2,0.3,0.5,0.1,0.7C40.2,96.1,39.9,96.2,39.7,96.1z"/>
			</g>
			<g>
				<path class="st3" d="M31.9,88.3c0.5,0.3,0.8,0.6,1.3,0.9c0.4,0.3,0.8,0.6,1.2,0.9c0.8,0.6,1.5,1.3,2.2,2c0.2,0.2,0.2,0.6,0,0.9
					c-0.2,0.2-0.6,0.2-0.8,0l0,0c-0.7-0.6-1.5-1.1-2.3-1.6c-0.4-0.3-0.8-0.5-1.2-0.7c-0.4-0.2-0.8-0.5-1.2-0.6l0,0
					c-0.5-0.2-0.7-0.8-0.5-1.3S31.4,88.1,31.9,88.3C31.9,88.2,31.9,88.3,31.9,88.3z"/>
			</g>
		</g>
	</g>
</g>
<g id="Head">
	<g>
		<g>
			
				<radialGradient id="SVGID_00000169521793251733446050000010068557354697025709_" cx="124.1613" cy="334.604" r="9.9789" gradientTransform="matrix(0.9659 0.2588 0.285 -1.0637 -185.5561 352.2816)" gradientUnits="userSpaceOnUse">
				<stop  offset="0" style="stop-color:#002855"/>
				<stop  offset="0.4671" style="stop-color:#002753"/>
				<stop  offset="0.7099" style="stop-color:#00234B"/>
				<stop  offset="0.9004" style="stop-color:#001D3E"/>
				<stop  offset="1" style="stop-color:#001833"/>
			</radialGradient>
			<polygon style="fill:url(#SVGID_00000169521793251733446050000010068557354697025709_);" points="27.8,43.9 23.7,42.8 33.9,13.7 
				35.8,14.2 			"/>
			<g>
				
					<linearGradient id="SVGID_00000181795951556991792730000013867728361382761601_" gradientUnits="userSpaceOnUse" x1="122.6767" y1="330.2155" x2="127.832" y2="338.7277" gradientTransform="matrix(0.9659 0.2588 0.2588 -0.9659 -172.017 301.7436)">
					<stop  offset="0" style="stop-color:#8BB2C5"/>
					<stop  offset="0.1599" style="stop-color:#A6C3D2"/>
					<stop  offset="0.3675" style="stop-color:#C1D5DF"/>
					<stop  offset="0.5769" style="stop-color:#D5E2E8"/>
					<stop  offset="0.7872" style="stop-color:#E1E9EE"/>
					<stop  offset="1" style="stop-color:#E5ECF0"/>
				</linearGradient>
				<path style="fill:url(#SVGID_00000181795951556991792730000013867728361382761601_);" d="M34.1,16.7L34.1,16.7
					c-1.8-0.5-2.8-2.3-2.3-4.1l1.4-5.1c0.5-1.8,2.3-2.8,4.1-2.3l0,0c1.8,0.5,2.8,2.3,2.3,4.1l-1.4,5.1
					C37.7,16.1,35.9,17.2,34.1,16.7z"/>
				<g>
					<path class="st3" d="M38,12.7l-0.3,1.5c-0.1,0.2-0.3,0.4-0.5,0.3c-0.2-0.1-0.4-0.3-0.3-0.5l0,0l0.5-1.4
						c0.1-0.2,0.3-0.3,0.5-0.2C37.9,12.4,38,12.5,38,12.7z"/>
				</g>
				<g>
					<path class="st3" d="M38.4,6.9c0.5,0.5,0.7,1.3,0.6,2c-0.1,0.4-0.1,0.6-0.2,1c-0.1,0.3-0.1,0.6-0.2,0.9
						c-0.1,0.2-0.3,0.3-0.5,0.3c-0.2-0.1-0.3-0.3-0.3-0.5c0.1-0.3,0.2-0.6,0.3-0.9l0.3-0.9c0.2-0.5,0.1-1.1-0.2-1.7
						c-0.1-0.1,0-0.2,0.1-0.3C38.2,6.9,38.3,6.9,38.4,6.9z"/>
				</g>
			</g>
			<g>
				
					<linearGradient id="SVGID_00000088122053873889235000000008618141481694405310_" gradientUnits="userSpaceOnUse" x1="-1354.0664" y1="81.8769" x2="-1337.6271" y2="116.2202" gradientTransform="matrix(-1 0 0 -1 -1224.1935 148.7549)">
					<stop  offset="0" style="stop-color:#8BB2C5"/>
					<stop  offset="0.1599" style="stop-color:#A6C3D2"/>
					<stop  offset="0.3675" style="stop-color:#C1D5DF"/>
					<stop  offset="0.5769" style="stop-color:#D5E2E8"/>
					<stop  offset="0.7872" style="stop-color:#E1E9EE"/>
					<stop  offset="1" style="stop-color:#E5ECF0"/>
				</linearGradient>
				
					<ellipse style="fill:url(#SVGID_00000088122053873889235000000008618141481694405310_);" cx="123.9" cy="54.4" rx="9.4" ry="15.1"/>
				
					<radialGradient id="SVGID_00000059282210841076183250000004449532971271542958_" cx="-1347.1245" cy="94.3065" r="12.825" gradientTransform="matrix(-1 0 0 -1 -1224.1935 148.7549)" gradientUnits="userSpaceOnUse">
					<stop  offset="0" style="stop-color:#003978"/>
					<stop  offset="1" style="stop-color:#002855"/>
				</radialGradient>
				<path style="fill:url(#SVGID_00000059282210841076183250000004449532971271542958_);" d="M123,54.4c0-6.5-1.6-12.4-4.6-17.6
					c3,0,5.7,1.7,6.6,4.1c1.6,4.2,2.4,8.7,2.4,13.5c0,4.7-0.8,9.2-2.4,13.4c-0.9,2.4-3.6,4.1-6.6,4.1C121.4,66.9,123,60.9,123,54.4z
					"/>
				<g>
					<path class="st3" d="M127.9,42.1c0.3,0.3,0.6,0.7,0.9,1s0.5,0.7,0.7,1.1c0.5,0.7,0.9,1.5,1.3,2.2l0,0c0.2,0.5,0,1.1-0.5,1.3
						s-1.1,0-1.3-0.5c0,0,0-0.1-0.1-0.2c-0.2-0.8-0.5-1.5-0.8-2.2c-0.2-0.4-0.3-0.7-0.5-1.1c-0.2-0.3-0.4-0.7-0.6-1l0,0
						c-0.2-0.3-0.1-0.6,0.2-0.8C127.4,41.9,127.7,41.9,127.9,42.1z"/>
				</g>
				
					<linearGradient id="SVGID_00000007407694888166597700000011686902638576351362_" gradientUnits="userSpaceOnUse" x1="28.1772" y1="81.8891" x2="44.6164" y2="116.2324" gradientTransform="matrix(1 0 0 -1 -8.2442 148.7549)">
					<stop  offset="0" style="stop-color:#8BB2C5"/>
					<stop  offset="0.1599" style="stop-color:#A6C3D2"/>
					<stop  offset="0.3675" style="stop-color:#C1D5DF"/>
					<stop  offset="0.5769" style="stop-color:#D5E2E8"/>
					<stop  offset="0.7872" style="stop-color:#E1E9EE"/>
					<stop  offset="1" style="stop-color:#E5ECF0"/>
				</linearGradient>
				
					<ellipse style="fill:url(#SVGID_00000007407694888166597700000011686902638576351362_);" cx="25.9" cy="54.4" rx="9.4" ry="15.1"/>
				
					<radialGradient id="SVGID_00000070827665687242828790000000836724515296274109_" cx="35.1442" cy="94.3065" r="12.825" gradientTransform="matrix(1 0 0 -1 -8.2442 148.7549)" gradientUnits="userSpaceOnUse">
					<stop  offset="0" style="stop-color:#003978"/>
					<stop  offset="1" style="stop-color:#002855"/>
				</radialGradient>
				<path style="fill:url(#SVGID_00000070827665687242828790000000836724515296274109_);" d="M26.8,54.4c0-6.5,1.6-12.4,4.6-17.6
					c-3,0-5.7,1.7-6.6,4.1c-1.6,4.2-2.4,8.7-2.4,13.5c0,4.7,0.8,9.2,2.4,13.4c0.9,2.4,3.6,4.1,6.6,4.1
					C28.4,66.9,26.8,60.9,26.8,54.4z"/>
				<g>
					<path class="st3" d="M22.8,42.9c-0.2,0.3-0.4,0.6-0.6,1c-0.2,0.3-0.4,0.7-0.5,1.1c-0.3,0.7-0.6,1.5-0.8,2.2
						c-0.2,0.5-0.7,0.8-1.3,0.7s-0.8-0.7-0.7-1.3c0-0.1,0-0.1,0.1-0.2l0,0c0.4-0.8,0.8-1.5,1.3-2.2c0.2-0.4,0.5-0.7,0.7-1.1
						c0.3-0.3,0.5-0.7,0.9-1c0.2-0.2,0.6-0.2,0.8,0C23,42.3,23,42.6,22.8,42.9L22.8,42.9z"/>
				</g>
			</g>
			
				<radialGradient id="SVGID_00000061458631436226453750000016662853427822865594_" cx="213.2775" cy="252.0295" r="54.833" gradientTransform="matrix(0.866 0.5 0.47 -0.8141 -227.3116 142.7994)" gradientUnits="userSpaceOnUse">
				<stop  offset="0" style="stop-color:#E5ECF0"/>
				<stop  offset="0.3988" style="stop-color:#E3EBEF"/>
				<stop  offset="0.5758" style="stop-color:#DCE6EC"/>
				<stop  offset="0.7091" style="stop-color:#CFDEE5"/>
				<stop  offset="0.8203" style="stop-color:#BDD2DD"/>
				<stop  offset="0.9168" style="stop-color:#A6C3D2"/>
				<stop  offset="1" style="stop-color:#8BB2C5"/>
			</radialGradient>
			<path style="fill:url(#SVGID_00000061458631436226453750000016662853427822865594_);" d="M74.9,91.9c-13.1,0-24.5-2.8-32.9-8
				c-10.6-6.6-16.4-17.1-16.4-29.4S31.4,31.6,42,25c8.4-5.2,19.8-8,32.9-8s24.5,2.8,32.9,8c10.6,6.6,16.4,17.1,16.4,29.4
				s-5.8,22.8-16.4,29.4C99.4,89.1,88.1,91.9,74.9,91.9z"/>
			<polygon class="st31" points="76.9,19.9 77.7,19.9 77.7,19.2 76.4,19.2 74.8,22.1 74,22.1 74,19.2 71.6,19.2 71.6,19.9 
				72.5,19.9 72.5,26.3 74,26.3 74,22.9 74.5,22.9 76.5,26.3 78.2,26.3 75.8,22 			"/>
			<g>
				<path class="st3" d="M89.7,21.3c5.7,1.3,11.3,3.4,16.3,6.7c0.4,0.3,0.5,0.9,0.3,1.3c-0.3,0.4-0.8,0.5-1.2,0.3l0,0
					c-4.9-2.8-10.3-4.4-15.9-5.3c-0.8-0.1-1.4-0.9-1.2-1.7C88.1,21.8,88.9,21.2,89.7,21.3C89.7,21.3,89.7,21.3,89.7,21.3z"/>
			</g>
			<g>
				<path class="st3" d="M111.1,31.9l1.9,1.5c0.5,0.4,0.6,1.1,0.2,1.6s-1.1,0.6-1.6,0.2c-0.1-0.1-0.1-0.1-0.2-0.2l-0.1-0.1l-1.4-1.8
					V33c-0.3-0.4-0.3-1,0.1-1.3C110.3,31.6,110.8,31.6,111.1,31.9z"/>
			</g>
		</g>
		
			<linearGradient id="SVGID_00000007404343669219761330000004120850374619298464_" gradientUnits="userSpaceOnUse" x1="83.1442" y1="68.378" x2="83.1442" y2="120.2346" gradientTransform="matrix(1 0 0 -1 -8.2442 148.7549)">
			<stop  offset="0" style="stop-color:#04070A"/>
			<stop  offset="1" style="stop-color:#102B41"/>
		</linearGradient>
		<path style="fill:url(#SVGID_00000007404343669219761330000004120850374619298464_);" d="M104.8,70.6c3.9-4,6.1-9.4,6.1-16.2
			c0-18.1-16.1-25.9-36-25.9s-36,7.8-36,25.9s16.1,25.9,36,25.9c6.2,0,12.1-0.8,17.2-2.4l10.4,2.4L104.8,70.6z"/>
	</g>
</g>
<g id="Face">
	<g>
		<rect x="52.5" y="48.5" class="st3" width="1.5" height="1.5"/>
		<rect x="51" y="50" class="st3" width="1.5" height="1.5"/>
		<rect x="49.5" y="51.5" class="st3" width="1.5" height="1.5"/>
		<rect x="49.5" y="55.9" class="st3" width="1.5" height="1.5"/>
		<rect x="51" y="57.4" class="st3" width="1.5" height="1.5"/>
		<rect x="52.5" y="58.9" class="st3" width="1.5" height="1.5"/>
		<rect x="54" y="60.4" class="st3" width="1.5" height="1.5"/>
		<rect x="54" y="47" class="st3" width="1.5" height="1.5"/>
		<rect x="71.9" y="47" class="st3" width="1.5" height="1.5"/>
		<rect x="73.4" y="47" class="st3" width="1.5" height="1.5"/>
		<rect x="49.5" y="53" class="st3" width="1.5" height="1.5"/>
		<rect x="49.5" y="54.4" class="st3" width="1.5" height="1.5"/>
		<rect x="76.4" y="46.9" class="st3" width="1.5" height="1.5"/>
		<rect x="74.9" y="46.9" class="st3" width="1.5" height="1.5"/>
		<rect x="95.8" y="48.4" class="st3" width="1.5" height="1.5"/>
		<rect x="97.3" y="49.9" class="st3" width="1.5" height="1.5"/>
		<rect x="98.8" y="51.4" class="st3" width="1.5" height="1.5"/>
		<rect x="98.8" y="56" class="st3" width="1.5" height="1.5"/>
		<rect x="97.3" y="57.5" class="st3" width="1.5" height="1.5"/>
		<rect x="55.5" y="60.4" class="st3" width="1.5" height="1.5"/>
		<rect x="57" y="60.4" class="st3" width="1.5" height="1.5"/>
		<rect x="58.5" y="60.4" class="st3" width="1.5" height="1.5"/>
		<rect x="59.9" y="60.4" class="st3" width="1.5" height="1.5"/>
		<rect x="61.4" y="60.4" class="st3" width="1.5" height="1.5"/>
		<rect x="62.9" y="60.4" class="st3" width="1.5" height="1.5"/>
		<rect x="64.4" y="60.4" class="st3" width="1.5" height="1.5"/>
		<rect x="65.9" y="60.4" class="st3" width="1.5" height="1.5"/>
		<rect x="67.4" y="60.4" class="st3" width="1.5" height="1.5"/>
		<rect x="68.9" y="60.4" class="st3" width="1.5" height="1.5"/>
		<rect x="70.4" y="60.4" class="st3" width="1.5" height="1.5"/>
		<rect x="71.9" y="60.4" class="st3" width="1.5" height="1.5"/>
		<rect x="73.4" y="60.4" class="st3" width="1.5" height="1.5"/>
		<rect x="95.8" y="59" class="st3" width="1.5" height="1.5"/>
		<rect x="94.3" y="60.5" class="st3" width="1.5" height="1.5"/>
		<rect x="92.8" y="60.5" class="st3" width="1.5" height="1.5"/>
		<rect x="91.4" y="60.5" class="st3" width="1.5" height="1.5"/>
		<rect x="89.9" y="60.5" class="st3" width="1.5" height="1.5"/>
		<rect x="88.4" y="60.5" class="st3" width="1.5" height="1.5"/>
		<rect x="86.9" y="60.5" class="st3" width="1.5" height="1.5"/>
		<rect x="85.4" y="60.5" class="st3" width="1.5" height="1.5"/>
		<rect x="83.9" y="60.5" class="st3" width="1.5" height="1.5"/>
		<rect x="82.4" y="60.5" class="st3" width="1.5" height="1.5"/>
		<rect x="80.9" y="60.5" class="st3" width="1.5" height="1.5"/>
		<rect x="79.4" y="60.5" class="st3" width="1.5" height="1.5"/>
		<rect x="77.9" y="60.5" class="st3" width="1.5" height="1.5"/>
		<rect x="76.4" y="60.5" class="st3" width="1.5" height="1.5"/>
		<rect x="74.9" y="60.5" class="st3" width="1.5" height="1.5"/>
		<rect x="58.5" y="47" class="st3" width="1.5" height="1.5"/>
		<rect x="61.4" y="47" class="st3" width="1.5" height="1.5"/>
		<rect x="55.5" y="47" class="st3" width="1.5" height="1.5"/>
		<rect x="57" y="47" class="st3" width="1.5" height="1.5"/>
		<rect x="59.9" y="47" class="st3" width="1.5" height="1.5"/>
		<rect x="62.9" y="47" class="st3" width="1.5" height="1.5"/>
		<rect x="64.4" y="47" class="st3" width="1.5" height="1.5"/>
		<rect x="65.9" y="47" class="st3" width="1.5" height="1.5"/>
		<rect x="67.4" y="47" class="st3" width="1.5" height="1.5"/>
		<rect x="68.9" y="47" class="st3" width="1.5" height="1.5"/>
		<rect x="70.4" y="47" class="st3" width="1.5" height="1.5"/>
		<rect x="94.3" y="46.9" class="st3" width="1.5" height="1.5"/>
		<rect x="92.8" y="46.9" class="st3" width="1.5" height="1.5"/>
		<rect x="91.4" y="46.9" class="st3" width="1.5" height="1.5"/>
		<rect x="89.9" y="46.9" class="st3" width="1.5" height="1.5"/>
		<rect x="88.4" y="46.9" class="st3" width="1.5" height="1.5"/>
		<rect x="86.9" y="46.9" class="st3" width="1.5" height="1.5"/>
		<rect x="85.4" y="46.9" class="st3" width="1.5" height="1.5"/>
		<rect x="83.9" y="46.9" class="st3" width="1.5" height="1.5"/>
		<rect x="82.4" y="46.9" class="st3" width="1.5" height="1.5"/>
		<rect x="80.9" y="46.9" class="st3" width="1.5" height="1.5"/>
		<rect x="79.4" y="46.9" class="st3" width="1.5" height="1.5"/>
		<rect x="77.9" y="46.9" class="st3" width="1.5" height="1.5"/>
		<rect x="98.8" y="52.9" class="st3" width="1.5" height="1.5"/>
		<rect x="98.8" y="54.5" class="st3" width="1.5" height="1.5"/>
	</g>
</g>
<g id="Heads__x26__Screen">
</g>
<g id="eyes">
	
		<rect x="53.3" y="53" transform="matrix(-4.171555e-03 1 -1 -4.171555e-03 107.9726 -5.092226e-02)" class="st33" width="1.5" height="1.5"/>
	
		<rect x="53.3" y="54.5" transform="matrix(-4.171555e-03 1 -1 -4.171555e-03 109.4629 1.4582)" class="st33" width="1.5" height="1.5"/>
	
		<rect x="54.8" y="53" transform="matrix(-4.171555e-03 1 -1 -4.171555e-03 109.4817 -1.5412)" class="st33" width="1.5" height="1.5"/>
	
		<rect x="54.8" y="51.5" transform="matrix(-4.171555e-03 1 -1 -4.171555e-03 107.9726 -3.0441)" class="st33" width="1.5" height="1.5"/>
	
		<rect x="59.3" y="51.5" transform="matrix(-4.171555e-03 1 -1 -4.171555e-03 112.5186 -7.5212)" class="st33" width="1.5" height="1.5"/>
	
		<rect x="59.2" y="56" transform="matrix(-4.171555e-03 1 -1 -4.171555e-03 116.9771 -3.0066)" class="st33" width="1.5" height="1.5"/>
	
		<rect x="54.7" y="56" transform="matrix(-4.171555e-03 1 -1 -4.171555e-03 112.4372 1.4768)" class="st33" width="1.5" height="1.5"/>
	
		<rect x="54.8" y="54.5" transform="matrix(-4.171555e-03 1 -1 -4.171555e-03 110.972 -3.215386e-02)" class="st33" width="1.5" height="1.5"/>
	
		<rect x="56.3" y="50" transform="matrix(-4.171555e-03 1 -1 -4.171555e-03 108.0101 -6.0497)" class="st33" width="1.5" height="1.5"/>
	
		<rect x="56.2" y="57.5" transform="matrix(-4.171555e-03 1 -1 -4.171555e-03 115.4617 1.4957)" class="st33" width="1.5" height="1.5"/>
	
		<rect x="57.8" y="50" transform="matrix(-4.171555e-03 1 -1 -4.171555e-03 109.5192 -7.54)" class="st33" width="1.5" height="1.5"/>
	
		<rect x="57.7" y="57.5" transform="matrix(-4.171555e-03 1 -1 -4.171555e-03 116.9707 5.382950e-03)" class="st33" width="1.5" height="1.5"/>
	
		<rect x="59.2" y="53" transform="matrix(-4.171555e-03 1 -1 -4.171555e-03 114.0089 -6.0121)" class="st33" width="1.5" height="1.5"/>
	
		<rect x="59.2" y="54.5" transform="matrix(-4.171555e-03 1 -1 -4.171555e-03 115.4992 -4.5031)" class="st33" width="1.5" height="1.5"/>
	
		<rect x="60.7" y="53" transform="matrix(-4.171555e-03 1 -1 -4.171555e-03 115.518 -7.5024)" class="st33" width="1.5" height="1.5"/>
	
		<rect x="60.7" y="54.5" transform="matrix(-4.171555e-03 1 -1 -4.171555e-03 117.0083 -5.9934)" class="st33" width="1.5" height="1.5"/>
	
		<rect x="56.2" y="56" transform="matrix(4.171555e-03 -1 1 4.171555e-03 1.332974e-02 113.4969)" class="st33" width="1.5" height="1.5"/>
	
		<rect x="56.3" y="54.5" transform="matrix(4.171555e-03 -1 1 4.171555e-03 1.5161 112.0128)" class="st33" width="1.5" height="1.5"/>
	
		<rect x="56.3" y="53" transform="matrix(4.171555e-03 -1 1 4.171555e-03 3.0189 110.5287)" class="st33" width="1.5" height="1.5"/>
	
		<rect x="56.3" y="51.5" transform="matrix(4.171555e-03 -1 1 4.171555e-03 4.5217 109.0446)" class="st33" width="1.5" height="1.5"/>
	
		<rect x="57.7" y="56" transform="matrix(4.171555e-03 -1 1 4.171555e-03 1.4974 114.9997)" class="st33" width="1.5" height="1.5"/>
	
		<rect x="57.7" y="54.5" transform="matrix(4.171555e-03 -1 1 4.171555e-03 3.0002 113.5156)" class="st33" width="1.5" height="1.5"/>
	<rect x="57.8" y="53" transform="matrix(4.171555e-03 -1 1 4.171555e-03 4.503 112.0315)" class="st33" width="1.5" height="1.5"/>
	
		<rect x="57.8" y="51.5" transform="matrix(4.171555e-03 -1 1 4.171555e-03 6.0058 110.5474)" class="st33" width="1.5" height="1.5"/>
</g>
</svg>
