<?xml version="1.0" encoding="utf-8"?>
<!-- Generator: Adobe Illustrator 22.0.0, SVG Export Plug-In . SVG Version: 6.00 Build 0)  -->
<svg version="1.1" xmlns="http://www.w3.org/2000/svg" xmlns:xlink="http://www.w3.org/1999/xlink" x="0px" y="0px"
	 viewBox="0 0 150 150" enable-background="new 0 0 150 150" xml:space="preserve">
<g id="BG">
	<radialGradient id="SVGID_1_" cx="72.8693" cy="129.8391" r="102.8698" gradientUnits="userSpaceOnUse">
		<stop  offset="0" style="stop-color:#0095BB"/>
		<stop  offset="1" style="stop-color:#00CCFF"/>
	</radialGradient>
	<circle fill="url(#SVGID_1_)" cx="75" cy="75" r="60"/>
</g>
<g id="Left_Arm">
	<g>
		<g>
			<g>
				
					<radialGradient id="SVGID_2_" cx="10.176" cy="-260.132" r="4.1175" gradientTransform="matrix(-0.8859 -0.4639 0.4639 -0.8859 245.3234 -94.1395)" gradientUnits="userSpaceOnUse">
					<stop  offset="0" style="stop-color:#004A9C"/>
					<stop  offset="1" style="stop-color:#003979"/>
				</radialGradient>
				<path fill="url(#SVGID_2_)" d="M114,129.5c0.4-0.8,1-1.6,1.7-2.5c0.4-0.5,1-0.6,1.5-0.5c0.3,0.1,0.5,0.2,0.7,0.4
					c0.7,0.6,0.7,1.6,0.2,2.2c-0.4,0.4-0.7,0.9-1,1.4c0,0.1-0.1,0.1-0.1,0.2c-0.5,0.9-0.9,1.9-0.9,2.8l0,0.3c0,0.4,0,0.8,0.1,1.3
					c0.2,0.9-0.4,1.7-1.2,1.9c-0.9,0.2-1.7-0.4-1.9-1.2c-0.1-0.7-0.2-1.5-0.1-2.5l0-0.2c0.1-0.9,0.4-2,0.9-3.1
					C113.9,129.7,114,129.6,114,129.5z"/>
			</g>
			<g opacity="0.6">
				<path fill="#FFFFFF" d="M113,132.9c1.5-0.2,2.6,0.3,3.1,0.5c0,0,0,0,0.1,0l0,0.3c-0.4-0.2-1.5-0.8-3.1-0.6L113,132.9z"/>
			</g>
			<g opacity="0.6">
				<path fill="#FFFFFF" d="M114,129.5c0.9-0.2,1.8,0.2,2.4,0.5c0.3,0.2,0.6,0.3,0.7,0.4c0,0.1-0.1,0.1-0.1,0.2
					c-0.5-0.3-1.9-1.2-3.1-0.8C113.9,129.7,114,129.6,114,129.5z"/>
			</g>
		</g>
		<g>
			<g>
				
					<radialGradient id="SVGID_3_" cx="14.0698" cy="-258.9249" r="5.1524" gradientTransform="matrix(-0.9079 -0.4192 0.4192 -0.9079 242.1131 -96.1453)" gradientUnits="userSpaceOnUse">
					<stop  offset="0" style="stop-color:#004A9C"/>
					<stop  offset="1" style="stop-color:#003979"/>
				</radialGradient>
				<path fill="url(#SVGID_3_)" d="M119.9,126.5c0.3-0.1,0.6-0.2,0.9-0.1c0.5,0.1,0.9,0.4,1.2,0.9c0.9,1.8,1.2,3.6,1.3,5.3
					c0,0.1,0,0.2,0,0.3c0,1.3-0.1,2.6-0.3,3.5c0,0,0,0,0,0c0,0.1,0,0.2,0,0.2c-0.2,1.2-0.5,2-0.5,2.1c-0.3,0.8-1.2,1.3-2,1
					c-0.8-0.3-1.3-1.2-1-2c0,0,0.2-0.6,0.3-1.4l0.1-0.3c0.1-0.9,0.3-1.9,0.2-3.1c0-0.1,0-0.2,0-0.2c-0.1-1.3-0.3-2.7-0.9-4
					C118.8,127.8,119.1,126.9,119.9,126.5z"/>
			</g>
			<g opacity="0.6">
				<path fill="#FFFFFF" d="M123,136.6c-0.3-0.2-1.7-1-3.2-0.3l0.1-0.3c1.1-0.4,2.1-0.2,2.7,0.1c0.2,0.1,0.3,0.2,0.4,0.2L123,136.6z
					"/>
				<path fill="none" d="M123,136.3L123,136.3C123,136.3,123,136.3,123,136.3"/>
			</g>
			<g opacity="0.6">
				<path fill="#FFFFFF" d="M120.1,132.6c1.5-0.6,2.6-0.3,3.1-0.1l0.1,0c0,0.1,0,0.2,0,0.3c-0.3-0.1-1.4-0.7-3.2,0.1
					C120.1,132.7,120.1,132.7,120.1,132.6z"/>
			</g>
		</g>
		<g>
			<g>
				
					<radialGradient id="SVGID_4_" cx="145.9458" cy="-156.2392" r="5.1524" gradientTransform="matrix(-0.9896 -0.1435 0.1435 -0.9896 292.3453 -2.4834)" gradientUnits="userSpaceOnUse">
					<stop  offset="0" style="stop-color:#004A9C"/>
					<stop  offset="1" style="stop-color:#003979"/>
				</radialGradient>
				<path fill="url(#SVGID_4_)" d="M122.8,125.2c0.3-0.2,0.6-0.4,0.9-0.4c0.5-0.1,1,0.1,1.4,0.5c1.3,1.4,2.2,3.1,2.7,4.7
					c0,0.1,0.1,0.2,0.1,0.2c0.4,1.3,0.6,2.5,0.8,3.5c0,0,0,0,0,0c0,0.1,0,0.2,0,0.2c0.1,1.2,0.1,2.1,0.1,2.1c0,0.9-0.8,1.6-1.6,1.5
					c-0.9,0-1.6-0.8-1.5-1.6c0,0,0-0.6-0.1-1.5l0-0.3c-0.1-0.9-0.3-1.9-0.7-3.1c0-0.1,0-0.2-0.1-0.2c-0.4-1.2-1.1-2.5-2-3.6
					C122.1,126.8,122.1,125.7,122.8,125.2z"/>
			</g>
			<g opacity="0.6">
				<path fill="#FFFFFF" d="M128.6,134c-0.3-0.1-1.9-0.5-3.1,0.6l0-0.3c0.9-0.7,2-0.7,2.6-0.7c0.2,0,0.4,0.1,0.5,0.1L128.6,134z"/>
				<path fill="none" d="M128.6,133.7L128.6,133.7C128.6,133.7,128.6,133.7,128.6,133.7"/>
			</g>
			<g opacity="0.6">
				<path fill="#FFFFFF" d="M124.7,131c1.3-1,2.4-1.1,2.9-1l0.1,0c0,0.1,0.1,0.2,0.1,0.2c-0.3-0.1-1.5-0.3-3,0.9
					C124.8,131.1,124.7,131,124.7,131z"/>
			</g>
		</g>
		<g>
			<g>
				
					<radialGradient id="SVGID_5_" cx="282.8541" cy="63.6499" r="5.1524" gradientTransform="matrix(-0.9563 0.2923 -0.2923 -0.9563 417.8005 105.2334)" gradientUnits="userSpaceOnUse">
					<stop  offset="0" style="stop-color:#004A9C"/>
					<stop  offset="1" style="stop-color:#003979"/>
				</radialGradient>
				<path fill="url(#SVGID_5_)" d="M123.7,122.7c0.1-0.3,0.3-0.6,0.6-0.7c0.4-0.3,1-0.3,1.5-0.1c1.8,0.7,3.3,1.9,4.5,3.1
					c0.1,0.1,0.1,0.1,0.2,0.2c0.9,1,1.6,2,2.2,2.8c0,0,0,0,0,0c0,0.1,0.1,0.1,0.1,0.2c0.6,1.1,1,1.8,1,1.9c0.3,0.8,0,1.7-0.8,2.1
					c-0.8,0.3-1.7,0-2.1-0.8c0,0-0.2-0.5-0.7-1.3l-0.1-0.2c-0.5-0.7-1.1-1.6-1.9-2.5c0-0.1-0.1-0.1-0.2-0.2c-0.9-0.9-2-1.8-3.4-2.3
					C123.7,124.5,123.3,123.6,123.7,122.7z"/>
			</g>
			<g opacity="0.6">
				<path fill="#FFFFFF" d="M132.7,128.2c-0.4,0.1-2,0.4-2.6,1.9l-0.1-0.2c0.5-1,1.5-1.5,2.1-1.7c0.2-0.1,0.3-0.1,0.5-0.1
					L132.7,128.2z"/>
				<path fill="none" d="M132.6,128L132.6,128C132.6,128,132.6,128,132.6,128"/>
			</g>
			<g opacity="0.6">
				<path fill="#FFFFFF" d="M127.9,127.2c0.7-1.5,1.7-2,2.2-2.1l0.1,0c0.1,0.1,0.1,0.1,0.2,0.2c-0.3,0.1-1.5,0.4-2.3,2.1
					C128,127.3,128,127.2,127.9,127.2z"/>
			</g>
		</g>
		
			<radialGradient id="SVGID_6_" cx="143.7201" cy="-165.9739" r="9.9386" gradientTransform="matrix(-0.9871 -0.1603 0.1603 -0.9871 290.2439 -8.6875)" gradientUnits="userSpaceOnUse">
			<stop  offset="0" style="stop-color:#002855"/>
			<stop  offset="0.4671" style="stop-color:#002753"/>
			<stop  offset="0.7099" style="stop-color:#00234B"/>
			<stop  offset="0.9004" style="stop-color:#001D3E"/>
			<stop  offset="1" style="stop-color:#001833"/>
		</radialGradient>
		<path fill="url(#SVGID_6_)" d="M116.3,129.5c-1.9-2.2-1.1-5.9,1.8-8.4s6.7-2.7,8.6-0.6s1.1,5.9-1.8,8.4
			C122,131.4,118.1,131.7,116.3,129.5z"/>
		<g>
			
				<radialGradient id="SVGID_7_" cx="136.3345" cy="97.9127" r="10.6239" gradientTransform="matrix(-1 0 0 1 236.3807 0)" gradientUnits="userSpaceOnUse">
				<stop  offset="0" style="stop-color:#003978"/>
				<stop  offset="1" style="stop-color:#002855"/>
			</radialGradient>
			<path fill="url(#SVGID_7_)" d="M90.1,99.6c0.1,1.1,0.5,2.1,0.9,2.9c0,0.1,0.1,0.2,0.1,0.2c0.2,0.3,0.3,0.6,0.5,0.8
				c1.2-0.3,2.3-0.4,3.3-0.5c0.8-0.1,1.5-0.1,2.1,0c1.8,0.1,3.2,0.4,4.5,0.9c2.4,1,3.9,2.5,5,3.8c1.6,1.9,4.4,2.2,6.3,0.6
				c1.9-1.6,2.2-4.4,0.6-6.3c-1.6-2-3.5-3.6-5.5-4.9c-0.7-0.5-1.5-0.9-2.3-1.2c-2.5-1.1-5.2-1.8-8.1-1.9c-0.7,0-1.4,0-2,0
				c-0.9,0-1.9,0.1-2.8,0.2c0,0-0.8,0.1-1.9,0.3C90.2,95.8,89.9,97.7,90.1,99.6z"/>
		</g>
		<g>
			
				<linearGradient id="SVGID_8_" gradientUnits="userSpaceOnUse" x1="24.721" y1="-232.0933" x2="36.9931" y2="-250.0525" gradientTransform="matrix(-0.9079 -0.4192 0.4192 -0.9079 242.1131 -96.1453)">
				<stop  offset="0" style="stop-color:#8BB2C5"/>
				<stop  offset="0.1547" style="stop-color:#9DBECE"/>
				<stop  offset="0.5233" style="stop-color:#C4D7E0"/>
				<stop  offset="0.818" style="stop-color:#DCE6EC"/>
				<stop  offset="1" style="stop-color:#E5ECF0"/>
			</linearGradient>
			<path fill="url(#SVGID_8_)" d="M109.2,97.4c12.2,6.1,14.9,13.6,15.4,17.2c0.2,1.3-0.2,2.6-1,3.6c-1.3,1.5-3.7,3.7-7.8,5.2
				c-1.7,0.6-3.6,0.1-4.8-1.2c-1.6-1.7-3.8-4.6-5.1-9c-0.9-3.4-3.1-6.6-4.1-8c-0.3-0.5-0.4-1.1-0.2-1.7c0.6-1.7,2.3-5.2,6.3-6.4
				C108.4,97.2,108.9,97.2,109.2,97.4z"/>
			<g>
				<path fill="#FFFFFF" d="M107.1,110.4c0.3,0.3,0.4,0.7,0.6,1c0.2,0.3,0.3,0.6,0.5,0.9c0.2,0.3,0.1,0.7-0.2,0.9
					c-0.3,0.2-0.7,0.1-0.9-0.2c0,0,0-0.1,0-0.1l0,0c-0.2-0.4-0.3-0.7-0.4-1.1c-0.1-0.4-0.2-0.7-0.4-0.9l0,0
					c-0.1-0.3-0.1-0.6,0.2-0.7C106.7,110.1,107,110.2,107.1,110.4z"/>
			</g>
			<g>
				<path fill="#FFFFFF" d="M110.9,120.7c-0.3-0.5-0.5-0.9-0.8-1.3c-0.2-0.4-0.5-0.9-0.7-1.3c-0.4-0.9-0.8-1.8-1.1-2.8
					c-0.1-0.3,0.1-0.7,0.4-0.8c0.3-0.1,0.6,0,0.7,0.3l0,0c0.4,0.8,0.9,1.7,1.4,2.5c0.3,0.4,0.5,0.8,0.8,1.2c0.3,0.4,0.6,0.8,0.9,1.1
					l0,0c0.4,0.4,0.3,1.1-0.1,1.4c-0.4,0.4-1.1,0.3-1.4-0.1C111,120.8,110.9,120.7,110.9,120.7z"/>
			</g>
		</g>
		
			<linearGradient id="SVGID_9_" gradientUnits="userSpaceOnUse" x1="149.8175" y1="104.6243" x2="153.2101" y2="104.6243" gradientTransform="matrix(-0.9685 0.2489 0.2489 0.9685 242.1445 -8.4089)">
			<stop  offset="0" style="stop-color:#8BB2C5"/>
			<stop  offset="0.1547" style="stop-color:#9DBECE"/>
			<stop  offset="0.5233" style="stop-color:#C4D7E0"/>
			<stop  offset="0.818" style="stop-color:#DCE6EC"/>
			<stop  offset="1" style="stop-color:#E5ECF0"/>
		</linearGradient>
		<path fill="url(#SVGID_9_)" d="M119.8,131.1c0.2,0.6,1,1,1.9,0.7s1.5-0.9,1.3-1.6c-0.2-0.6-1-1-1.9-0.7S119.6,130.4,119.8,131.1z"
			/>
		
			<linearGradient id="SVGID_10_" gradientUnits="userSpaceOnUse" x1="-43.8918" y1="130.9872" x2="-40.4123" y2="130.9872" gradientTransform="matrix(-0.6085 -0.8484 -0.8126 0.5828 197.2525 16.7421)">
			<stop  offset="0" style="stop-color:#8BB2C5"/>
			<stop  offset="0.1547" style="stop-color:#9DBECE"/>
			<stop  offset="0.5233" style="stop-color:#C4D7E0"/>
			<stop  offset="0.818" style="stop-color:#DCE6EC"/>
			<stop  offset="1" style="stop-color:#E5ECF0"/>
		</linearGradient>
		<path fill="url(#SVGID_10_)" d="M115.4,127.4c-0.5,0.4-0.5,1.4,0.1,2.2s1.5,1.2,2.1,0.8c0.5-0.4,0.5-1.4-0.1-2.2
			C116.9,127.3,115.9,127,115.4,127.4z"/>
		
			<linearGradient id="SVGID_11_" gradientUnits="userSpaceOnUse" x1="197.0553" y1="17.5486" x2="200.4479" y2="17.5486" gradientTransform="matrix(-0.6896 0.7242 0.7242 0.6896 249.5609 -27.6781)">
			<stop  offset="0" style="stop-color:#8BB2C5"/>
			<stop  offset="0.1547" style="stop-color:#9DBECE"/>
			<stop  offset="0.5233" style="stop-color:#C4D7E0"/>
			<stop  offset="0.818" style="stop-color:#DCE6EC"/>
			<stop  offset="1" style="stop-color:#E5ECF0"/>
		</linearGradient>
		<path fill="url(#SVGID_11_)" d="M124.1,129.6c0.5,0.5,1.4,0.3,2-0.4c0.6-0.7,0.8-1.6,0.3-2.1c-0.5-0.5-1.4-0.3-2,0.4
			C123.7,128.2,123.6,129.1,124.1,129.6z"/>
		
			<linearGradient id="SVGID_12_" gradientUnits="userSpaceOnUse" x1="191.2182" y1="-81.3905" x2="194.6108" y2="-81.3905" gradientTransform="matrix(-0.2035 0.9791 0.9791 0.2035 246.2286 -47.7127)">
			<stop  offset="0" style="stop-color:#8BB2C5"/>
			<stop  offset="0.1547" style="stop-color:#9DBECE"/>
			<stop  offset="0.5233" style="stop-color:#C4D7E0"/>
			<stop  offset="0.818" style="stop-color:#DCE6EC"/>
			<stop  offset="1" style="stop-color:#E5ECF0"/>
		</linearGradient>
		<path fill="url(#SVGID_12_)" d="M126.9,126.3c0.6,0.1,1.3-0.5,1.5-1.4s-0.2-1.8-0.8-1.9c-0.6-0.1-1.3,0.5-1.5,1.4
			C125.9,125.3,126.3,126.1,126.9,126.3z"/>
	</g>
</g>
<g id="Body">
	<g>
		<defs>
			<circle id="SVGID_193_" cx="75" cy="75" r="60"/>
		</defs>
		<clipPath id="SVGID_13_">
			<use xlink:href="#SVGID_193_"  overflow="visible"/>
		</clipPath>
		<g clip-path="url(#SVGID_13_)">
			<radialGradient id="SVGID_14_" cx="84.4376" cy="98.8531" r="40.314" gradientUnits="userSpaceOnUse">
				<stop  offset="0" style="stop-color:#E5ECF0"/>
				<stop  offset="0.3988" style="stop-color:#E3EBEF"/>
				<stop  offset="0.5758" style="stop-color:#DCE6EC"/>
				<stop  offset="0.7091" style="stop-color:#CFDEE5"/>
				<stop  offset="0.8203" style="stop-color:#BDD2DD"/>
				<stop  offset="0.9168" style="stop-color:#A6C3D2"/>
				<stop  offset="1" style="stop-color:#8BB2C5"/>
			</radialGradient>
			<path fill="url(#SVGID_14_)" d="M101.2,113.2c0,13.4-11.7,24.3-26.1,24.3c-14.4,0-26.1-10.9-26.1-24.3s3.7-29.7,26.1-29.7
				c19.2,0,24.6,11.9,25.8,23.8c0.1,0.7,0.1,1.4,0.2,2.1C101.2,110.6,101.2,111.9,101.2,113.2z"/>
			<path fill="#00CCFF" d="M82.4,105.6c-3.9,0.7-6.9,4.7-6.7,9c0.1,4.3,3.4,7.2,7.2,6.5s6.9-4.7,6.7-9
				C89.5,107.8,86.3,104.9,82.4,105.6"/>
			<path fill="#002855" d="M82.4,106.9c-3.2,0.6-5.7,3.9-5.6,7.5c0.1,3.6,2.8,6,6,5.5c3.2-0.6,5.7-3.9,5.6-7.5
				C88.3,108.7,85.6,106.3,82.4,106.9"/>
			<polyline fill="#FFFFFF" points="85.1,109.2 83.9,109.4 82.5,112.7 81.8,112.8 81.7,109.8 79.5,110.2 79.5,110.9 80.4,110.8 
				80.6,117.4 81.9,117.1 81.8,113.7 82.3,113.6 84.2,116.7 85.8,116.5 83.4,112.4 84.4,110.1 85.1,110 85.1,109.2 			"/>
			<path fill="#FFFFFF" d="M96.4,102.1l0.3,1c0.1,0.3-0.1,0.5-0.3,0.6c-0.3,0.1-0.5-0.1-0.6-0.3c0,0,0-0.1,0-0.1l0,0l0-1l0,0
				c0-0.2,0.2-0.4,0.4-0.4C96.2,101.8,96.4,102,96.4,102.1z"/>
			<path fill="#FFFFFF" d="M93.1,92.5c0.4,0.6,0.7,1.2,1,1.8c0.3,0.6,0.6,1.2,0.8,1.9c0.5,1.3,0.9,2.6,1.2,3.9
				c0,0.2-0.1,0.4-0.3,0.4c-0.2,0-0.3-0.1-0.4-0.2c-0.5-1.2-1.1-2.4-1.8-3.5c-0.3-0.6-0.7-1.1-1.1-1.6c-0.4-0.5-0.8-1-1.2-1.5l0,0
				c-0.4-0.4-0.4-1,0-1.4c0.4-0.4,1-0.4,1.4,0C93,92.4,93,92.5,93.1,92.5z"/>
			<g>
				<path fill="#002855" d="M101.1,109.4c-2.2,1.5-4.8,2.8-7.6,3.7c-0.1,0-0.2,0-0.3,0c-0.4,0-0.7-0.2-0.9-0.6
					c-0.2-0.5,0.1-1,0.6-1.1c3.1-1,5.7-2.4,8-4.1C101,108,101,108.7,101.1,109.4z"/>
			</g>
			<g>
				<path fill="#002855" d="M71.2,115.1C71.1,115.1,71.1,115.1,71.2,115.1c-5.1-0.2-10.5-0.9-16.1-2.1c-0.5-0.1-0.8-0.6-0.7-1.1
					c0.1-0.5,0.6-0.8,1.1-0.7c5.5,1.2,10.9,1.9,15.8,2.1c0.5,0,0.9,0.4,0.9,0.9C72,114.7,71.6,115.1,71.2,115.1z"/>
			</g>
			<radialGradient id="SVGID_15_" cx="79.4288" cy="91.0601" r="8.2444" gradientUnits="userSpaceOnUse">
				<stop  offset="0" style="stop-color:#003978"/>
				<stop  offset="1" style="stop-color:#002855"/>
			</radialGradient>
			<ellipse fill="url(#SVGID_15_)" cx="79.4" cy="91.1" rx="8.9" ry="7.6"/>
		</g>
	</g>
</g>
<g id="Right_Arm">
	<g>
		<g>
			<g>
				
					<radialGradient id="SVGID_16_" cx="-66.7603" cy="-221.9774" r="4.1175" gradientTransform="matrix(0.8859 -0.4639 -0.4639 -0.8859 -8.9426 -94.1395)" gradientUnits="userSpaceOnUse">
					<stop  offset="0" style="stop-color:#004A9C"/>
					<stop  offset="1" style="stop-color:#003979"/>
				</radialGradient>
				<path fill="url(#SVGID_16_)" d="M36.5,131.4c-0.4-0.8-1-1.6-1.7-2.5c-0.4-0.5-1-0.6-1.5-0.5c-0.3,0.1-0.5,0.2-0.7,0.4
					c-0.7,0.6-0.7,1.6-0.2,2.2c0.4,0.4,0.7,0.9,1,1.4c0,0.1,0.1,0.1,0.1,0.2c0.5,0.9,0.9,1.9,0.9,2.8l0,0.3c0,0.4,0,0.8-0.1,1.3
					c-0.2,0.9,0.4,1.7,1.2,1.9c0.9,0.2,1.7-0.4,1.9-1.2c0.1-0.7,0.2-1.5,0.1-2.5l0-0.2c-0.1-0.9-0.4-2-0.9-3.1
					C36.6,131.6,36.5,131.5,36.5,131.4z"/>
			</g>
			<g opacity="0.6">
				<path fill="#FFFFFF" d="M37.6,135c-1.7-0.2-2.8,0.4-3.1,0.6l0-0.3c0,0,0,0,0.1,0c0.5-0.3,1.6-0.7,3.1-0.5L37.6,135z"/>
			</g>
			<g opacity="0.6">
				<path fill="#FFFFFF" d="M36.5,131.4c-0.9-0.2-1.8,0.2-2.4,0.5c-0.3,0.2-0.6,0.3-0.7,0.4c0,0.1,0.1,0.1,0.1,0.2
					c0.5-0.3,1.9-1.2,3.1-0.8C36.6,131.6,36.5,131.5,36.5,131.4z"/>
			</g>
		</g>
		<path opacity="7.000000e-02" fill="#01060A" d="M56.1,108.1c-0.1,0-0.3,0-0.4,0c-0.3,0-0.4-0.1-0.6-0.2c-0.1,0-0.3-0.1-0.4-0.2
			c-2-1-3.1-4-2.7-7.3c0.2-1.2,0.5-2.3,1-3.3c0-0.1,0.1-0.2,0.1-0.3c1-1.8,2.5-2.9,4-2.9c0.1,0,0.3,0,0.4,0c0.1,0,0.2,0,0.3,0.1
			c0.5,0.1,1,0.3,1.4,0.6c1.6,1.3,2.5,4,2.1,6.9c-0.2,1.2-0.5,2.2-1,3.2c0,0.1-0.1,0.1-0.1,0.2C59.2,107,57.7,108.1,56.1,108.1z"/>
		<path d="M60.4,101.5c-0.1,1.1-0.5,2.1-0.9,2.9c0,0.1-0.1,0.2-0.1,0.2c-0.2,0.3-0.3,0.6-0.5,0.8c-0.8,1.1-1.9,1.8-3,1.6
			c-0.2,0-0.3,0-0.4-0.1c-0.1,0-0.2-0.1-0.3-0.1c-0.7-0.3-1.3-1-1.7-1.9c-0.5-1.2-0.8-2.8-0.5-4.5c0.1-1.1,0.5-2.1,0.9-3
			c0-0.1,0.1-0.2,0.1-0.2c0.3-0.5,0.6-1,1-1.4c0.8-0.8,1.7-1.2,2.6-1.1c0.1,0,0.1,0,0.2,0c0.4,0.1,0.7,0.2,1,0.5
			c0.3,0.3,0.6,0.6,0.9,1C60.3,97.7,60.7,99.5,60.4,101.5z"/>
		<g>
			<g>
				
					<radialGradient id="SVGID_17_" cx="-64.6696" cy="-224.6456" r="5.1524" gradientTransform="matrix(0.9079 -0.4192 -0.4192 -0.9079 -5.7323 -96.1453)" gradientUnits="userSpaceOnUse">
					<stop  offset="0" style="stop-color:#004A9C"/>
					<stop  offset="1" style="stop-color:#003979"/>
				</radialGradient>
				<path fill="url(#SVGID_17_)" d="M30.6,128.4c-0.3-0.1-0.6-0.2-0.9-0.1c-0.5,0.1-0.9,0.4-1.2,0.9c-0.9,1.8-1.2,3.6-1.3,5.3
					c0,0.1,0,0.2,0,0.3c0,1.3,0.1,2.6,0.3,3.5c0,0,0,0,0,0c0,0.1,0,0.2,0,0.2c0.2,1.2,0.5,2,0.5,2.1c0.3,0.8,1.2,1.3,2,1
					c0.8-0.3,1.3-1.2,1-2c0,0-0.2-0.6-0.3-1.4l-0.1-0.3c-0.1-0.9-0.3-1.9-0.2-3.1c0-0.1,0-0.2,0-0.2c0.1-1.3,0.3-2.7,0.9-4
					C31.7,129.7,31.4,128.8,30.6,128.4z"/>
			</g>
			<g opacity="0.6">
				<path fill="#FFFFFF" d="M27.5,138.2c0.1-0.1,0.2-0.1,0.4-0.2c0.6-0.3,1.6-0.6,2.7-0.1l0.1,0.3c-1.4-0.7-2.9,0.1-3.2,0.3
					L27.5,138.2z"/>
				<path fill="none" d="M27.5,138.2C27.5,138.2,27.5,138.2,27.5,138.2L27.5,138.2"/>
			</g>
			<g opacity="0.6">
				<path fill="#FFFFFF" d="M30.4,134.5c-1.5-0.6-2.6-0.3-3.1-0.1l-0.1,0c0,0.1,0,0.2,0,0.3c0.3-0.1,1.4-0.7,3.2,0.1
					C30.4,134.6,30.4,134.6,30.4,134.5z"/>
			</g>
		</g>
		<g>
			<g>
				
					<radialGradient id="SVGID_18_" cx="60.7073" cy="-145.7811" r="5.1524" gradientTransform="matrix(0.9896 -0.1435 -0.1435 -0.9896 -55.9646 -2.4834)" gradientUnits="userSpaceOnUse">
					<stop  offset="0" style="stop-color:#004A9C"/>
					<stop  offset="1" style="stop-color:#003979"/>
				</radialGradient>
				<path fill="url(#SVGID_18_)" d="M27.7,127c-0.3-0.2-0.6-0.4-0.9-0.4c-0.5-0.1-1,0.1-1.4,0.5c-1.3,1.4-2.2,3.1-2.7,4.7
					c0,0.1-0.1,0.2-0.1,0.2c-0.4,1.3-0.6,2.5-0.8,3.5c0,0,0,0,0,0c0,0.1,0,0.2,0,0.2c-0.1,1.2-0.1,2.1-0.1,2.1
					c0,0.9,0.8,1.6,1.6,1.5c0.9,0,1.6-0.8,1.5-1.6c0,0,0-0.6,0.1-1.5l0-0.3c0.1-0.9,0.3-1.9,0.7-3.1c0-0.1,0-0.2,0.1-0.2
					c0.4-1.2,1.1-2.5,2-3.6C28.4,128.6,28.4,127.6,27.7,127z"/>
			</g>
			<g opacity="0.6">
				<path fill="#FFFFFF" d="M22,135.6c0.1,0,0.3-0.1,0.5-0.1c0.7-0.1,1.7-0.1,2.6,0.7l0,0.3c-1.2-1.1-2.8-0.7-3.1-0.6L22,135.6z"/>
				<path fill="none" d="M22,135.6C22,135.6,22,135.6,22,135.6L22,135.6"/>
			</g>
			<g opacity="0.6">
				<path fill="#FFFFFF" d="M25.8,132.8c-1.3-1-2.4-1.1-2.9-1l-0.1,0c0,0.1-0.1,0.2-0.1,0.2c0.3-0.1,1.5-0.3,3,0.9
					C25.8,133,25.8,132.9,25.8,132.8z"/>
			</g>
		</g>
		<g>
			<g>
				
					<radialGradient id="SVGID_19_" cx="201.2979" cy="36.7509" r="5.1524" gradientTransform="matrix(0.9563 0.2923 0.2923 -0.9563 -181.4198 105.2334)" gradientUnits="userSpaceOnUse">
					<stop  offset="0" style="stop-color:#004A9C"/>
					<stop  offset="1" style="stop-color:#003979"/>
				</radialGradient>
				<path fill="url(#SVGID_19_)" d="M26.8,124.6c-0.1-0.3-0.3-0.6-0.6-0.7c-0.4-0.3-1-0.3-1.5-0.1c-1.8,0.7-3.3,1.9-4.5,3.1
					c-0.1,0.1-0.1,0.1-0.2,0.2c-0.9,1-1.6,2-2.2,2.8c0,0,0,0,0,0c0,0.1-0.1,0.1-0.1,0.2c-0.6,1.1-1,1.8-1,1.9
					c-0.3,0.8,0,1.7,0.8,2.1c0.8,0.3,1.7,0,2.1-0.8c0,0,0.2-0.5,0.7-1.3l0.1-0.2c0.5-0.7,1.1-1.6,1.9-2.5c0-0.1,0.1-0.1,0.2-0.2
					c0.9-0.9,2-1.8,3.4-2.3C26.8,126.4,27.2,125.4,26.8,124.6z"/>
			</g>
			<g opacity="0.6">
				<path fill="#FFFFFF" d="M18,129.9c0.1,0,0.3,0.1,0.5,0.1c0.6,0.2,1.6,0.7,2.1,1.7l-0.1,0.2c-0.6-1.5-2.2-1.8-2.6-1.9L18,129.9z"
					/>
				<path fill="none" d="M18,129.9C18,129.9,18,129.9,18,129.9L18,129.9"/>
			</g>
			<g opacity="0.6">
				<path fill="#FFFFFF" d="M22.6,129c-0.7-1.5-1.7-2-2.2-2.1l-0.1,0c-0.1,0.1-0.1,0.1-0.2,0.2c0.3,0.1,1.5,0.4,2.3,2.1
					C22.5,129.2,22.6,129.1,22.6,129z"/>
			</g>
		</g>
		
			<radialGradient id="SVGID_20_" cx="58.6718" cy="-154.068" r="9.9386" gradientTransform="matrix(0.9871 -0.1603 -0.1603 -0.9871 -53.8632 -8.6875)" gradientUnits="userSpaceOnUse">
			<stop  offset="0" style="stop-color:#002855"/>
			<stop  offset="0.4671" style="stop-color:#002753"/>
			<stop  offset="0.7099" style="stop-color:#00234B"/>
			<stop  offset="0.9004" style="stop-color:#001D3E"/>
			<stop  offset="1" style="stop-color:#001833"/>
		</radialGradient>
		<path fill="url(#SVGID_20_)" d="M34.3,131.4c1.9-2.2,1.1-5.9-1.8-8.4s-6.7-2.7-8.6-0.6c-1.9,2.2-1.1,5.9,1.8,8.4
			S32.4,133.6,34.3,131.4z"/>
		<g>
			<radialGradient id="SVGID_21_" cx="50.4776" cy="99.7983" r="10.6239" gradientUnits="userSpaceOnUse">
				<stop  offset="0" style="stop-color:#003978"/>
				<stop  offset="1" style="stop-color:#002855"/>
			</radialGradient>
			<path fill="url(#SVGID_21_)" d="M60.4,101.5c-0.1,1.1-0.5,2.1-0.9,2.9c0,0.1-0.1,0.2-0.1,0.2c-0.2,0.3-0.3,0.6-0.5,0.8
				c-1.2-0.3-2.3-0.4-3.3-0.5c-0.8-0.1-1.5-0.1-2.1,0c-1.8,0.1-3.2,0.4-4.5,0.9c-2.4,1-3.9,2.5-5,3.8c-1.6,1.9-4.4,2.2-6.3,0.6
				c-1.9-1.6-2.2-4.4-0.6-6.3c1.6-2,3.5-3.6,5.5-4.9c0.7-0.5,1.5-0.9,2.3-1.2c2.5-1.1,5.2-1.8,8.1-1.9c0.7,0,1.4,0,2,0
				c0.9,0,1.9,0.1,2.8,0.2c0,0,0.8,0.1,1.9,0.3C60.3,97.7,60.7,99.5,60.4,101.5z"/>
		</g>
		<g>
			
				<linearGradient id="SVGID_22_" gradientUnits="userSpaceOnUse" x1="-54.0184" y1="-197.814" x2="-41.7463" y2="-215.7732" gradientTransform="matrix(0.9079 -0.4192 -0.4192 -0.9079 -5.7323 -96.1453)">
				<stop  offset="0" style="stop-color:#8BB2C5"/>
				<stop  offset="0.1547" style="stop-color:#9DBECE"/>
				<stop  offset="0.5233" style="stop-color:#C4D7E0"/>
				<stop  offset="0.818" style="stop-color:#DCE6EC"/>
				<stop  offset="1" style="stop-color:#E5ECF0"/>
			</linearGradient>
			<path fill="url(#SVGID_22_)" d="M41.3,99.3c-12.2,6.1-14.9,13.6-15.4,17.2c-0.2,1.3,0.2,2.6,1,3.6c1.3,1.5,3.7,3.7,7.8,5.2
				c1.7,0.6,3.6,0.1,4.8-1.2c1.6-1.7,3.8-4.6,5.1-9c0.9-3.4,3.1-6.6,4.1-8c0.3-0.5,0.4-1.1,0.2-1.7c-0.6-1.7-2.3-5.2-6.3-6.4
				C42.1,99.1,41.7,99.1,41.3,99.3z"/>
			<g>
				<path fill="#FFFFFF" d="M44.2,112.9c-0.1,0.2-0.2,0.5-0.4,0.9c-0.1,0.4-0.3,0.7-0.4,1.1l0,0c-0.2,0.3-0.6,0.5-0.9,0.3
					s-0.5-0.6-0.3-0.9c0,0,0-0.1,0-0.1c0.2-0.3,0.3-0.6,0.5-0.9c0.2-0.3,0.3-0.7,0.6-1c0.2-0.2,0.5-0.3,0.7-0.1
					C44.3,112.3,44.4,112.6,44.2,112.9L44.2,112.9z"/>
			</g>
			<g>
				<path fill="#FFFFFF" d="M38,121.4c0.3-0.3,0.6-0.7,0.9-1.1c0.3-0.4,0.5-0.8,0.8-1.2c0.5-0.8,1-1.6,1.4-2.5l0,0
					c0.2-0.3,0.5-0.4,0.8-0.3c0.3,0.1,0.4,0.5,0.3,0.7c-0.3,1-0.7,1.9-1.1,2.8c-0.2,0.5-0.4,0.9-0.7,1.3c-0.2,0.4-0.5,0.9-0.8,1.3
					c-0.3,0.5-0.9,0.6-1.4,0.3c-0.5-0.3-0.6-0.9-0.3-1.4C37.9,121.5,38,121.4,38,121.4L38,121.4z"/>
			</g>
		</g>
		
			<linearGradient id="SVGID_23_" gradientUnits="userSpaceOnUse" x1="67.1311" y1="127.8176" x2="70.5237" y2="127.8176" gradientTransform="matrix(0.9685 0.2489 -0.2489 0.9685 -5.7638 -8.4089)">
			<stop  offset="0" style="stop-color:#8BB2C5"/>
			<stop  offset="0.1547" style="stop-color:#9DBECE"/>
			<stop  offset="0.5233" style="stop-color:#C4D7E0"/>
			<stop  offset="0.818" style="stop-color:#DCE6EC"/>
			<stop  offset="1" style="stop-color:#E5ECF0"/>
		</linearGradient>
		<path fill="url(#SVGID_23_)" d="M30.7,132.9c-0.2,0.6-1,1-1.9,0.7c-0.9-0.2-1.5-0.9-1.3-1.6s1-1,1.9-0.7
			C30.3,131.6,30.9,132.3,30.7,132.9z"/>
		
			<linearGradient id="SVGID_24_" gradientUnits="userSpaceOnUse" x1="-93.2832" y1="62.316" x2="-89.8037" y2="62.316" gradientTransform="matrix(0.6085 -0.8484 0.8126 0.5828 39.1282 16.7421)">
			<stop  offset="0" style="stop-color:#8BB2C5"/>
			<stop  offset="0.1547" style="stop-color:#9DBECE"/>
			<stop  offset="0.5233" style="stop-color:#C4D7E0"/>
			<stop  offset="0.818" style="stop-color:#DCE6EC"/>
			<stop  offset="1" style="stop-color:#E5ECF0"/>
		</linearGradient>
		<path fill="url(#SVGID_24_)" d="M35.1,129.3c0.5,0.4,0.5,1.4-0.1,2.2c-0.6,0.8-1.5,1.2-2.1,0.8c-0.5-0.4-0.5-1.4,0.1-2.2
			C33.7,129.2,34.6,128.9,35.1,129.3z"/>
		
			<linearGradient id="SVGID_25_" gradientUnits="userSpaceOnUse" x1="139.2178" y1="81.0293" x2="142.6104" y2="81.0293" gradientTransform="matrix(0.6896 0.7242 -0.7242 0.6896 -13.1802 -27.6781)">
			<stop  offset="0" style="stop-color:#8BB2C5"/>
			<stop  offset="0.1547" style="stop-color:#9DBECE"/>
			<stop  offset="0.5233" style="stop-color:#C4D7E0"/>
			<stop  offset="0.818" style="stop-color:#DCE6EC"/>
			<stop  offset="1" style="stop-color:#E5ECF0"/>
		</linearGradient>
		<path fill="url(#SVGID_25_)" d="M26.5,131.5c-0.5,0.5-1.4,0.3-2-0.4s-0.8-1.6-0.3-2.1c0.5-0.5,1.4-0.3,2,0.4S27,131,26.5,131.5z"
			/>
		
			<linearGradient id="SVGID_26_" gradientUnits="userSpaceOnUse" x1="175.5891" y1="3.0529" x2="178.9817" y2="3.0529" gradientTransform="matrix(0.2035 0.9791 -0.9791 0.2035 -9.8479 -47.7127)">
			<stop  offset="0" style="stop-color:#8BB2C5"/>
			<stop  offset="0.1547" style="stop-color:#9DBECE"/>
			<stop  offset="0.5233" style="stop-color:#C4D7E0"/>
			<stop  offset="0.818" style="stop-color:#DCE6EC"/>
			<stop  offset="1" style="stop-color:#E5ECF0"/>
		</linearGradient>
		<path fill="url(#SVGID_26_)" d="M23.6,128.1c-0.6,0.1-1.3-0.5-1.5-1.4c-0.2-0.9,0.2-1.8,0.8-1.9s1.3,0.5,1.5,1.4
			C24.6,127.2,24.2,128,23.6,128.1z"/>
	</g>
</g>
<g id="Head">
	<g>
		<g>
			
				<radialGradient id="SVGID_27_" cx="-33.6511" cy="-49.9273" r="9.9703" gradientTransform="matrix(0.9659 0.2588 -0.285 1.0637 48.0144 90.3004)" gradientUnits="userSpaceOnUse">
				<stop  offset="0" style="stop-color:#002855"/>
				<stop  offset="0.4671" style="stop-color:#002753"/>
				<stop  offset="0.7099" style="stop-color:#00234B"/>
				<stop  offset="0.9004" style="stop-color:#001D3E"/>
				<stop  offset="1" style="stop-color:#001833"/>
			</radialGradient>
			<polygon fill="url(#SVGID_27_)" points="27.8,43.9 23.7,42.8 33.9,13.7 35.8,14.2 			"/>
			<g>
				
					<linearGradient id="SVGID_28_" gradientUnits="userSpaceOnUse" x1="-35.1479" y1="-96.8974" x2="-29.9926" y2="-105.4096" gradientTransform="matrix(0.9659 0.2588 -0.2588 0.9659 40.8017 117.2186)">
					<stop  offset="0" style="stop-color:#8BB2C5"/>
					<stop  offset="0.1599" style="stop-color:#A6C3D2"/>
					<stop  offset="0.3675" style="stop-color:#C1D5DF"/>
					<stop  offset="0.5769" style="stop-color:#D5E2E8"/>
					<stop  offset="0.7872" style="stop-color:#E1E9EE"/>
					<stop  offset="1" style="stop-color:#E5ECF0"/>
				</linearGradient>
				<path fill="url(#SVGID_28_)" d="M34.1,16.7L34.1,16.7c-1.8-0.5-2.8-2.3-2.3-4.1l1.4-5.1c0.5-1.8,2.3-2.8,4.1-2.3l0,0
					c1.8,0.5,2.8,2.3,2.3,4.1l-1.4,5.1C37.7,16.1,35.9,17.2,34.1,16.7z"/>
				<g>
					<path fill="#FFFFFF" d="M38,12.7l-0.3,1.5c-0.1,0.2-0.3,0.4-0.5,0.3c-0.2-0.1-0.4-0.3-0.3-0.5c0,0,0,0,0,0l0.5-1.4
						c0.1-0.2,0.3-0.3,0.5-0.2C37.9,12.4,38,12.5,38,12.7z"/>
				</g>
				<g>
					<path fill="#FFFFFF" d="M38.4,6.9c0.5,0.5,0.7,1.3,0.6,2c-0.1,0.4-0.1,0.6-0.2,1c-0.1,0.3-0.1,0.6-0.2,0.9
						c-0.1,0.2-0.3,0.3-0.5,0.3c-0.2-0.1-0.3-0.3-0.3-0.5c0.1-0.3,0.2-0.6,0.3-0.9l0.3-0.9c0.2-0.5,0.1-1.1-0.2-1.7
						c-0.1-0.1,0-0.2,0.1-0.3C38.2,6.9,38.3,6.9,38.4,6.9z"/>
				</g>
			</g>
			<g>
				
					<linearGradient id="SVGID_29_" gradientUnits="userSpaceOnUse" x1="-894.085" y1="70.1142" x2="-877.6457" y2="35.7709" gradientTransform="matrix(-1 0 0 1 -764.1935 -3.2451)">
					<stop  offset="0" style="stop-color:#8BB2C5"/>
					<stop  offset="0.1599" style="stop-color:#A6C3D2"/>
					<stop  offset="0.3675" style="stop-color:#C1D5DF"/>
					<stop  offset="0.5769" style="stop-color:#D5E2E8"/>
					<stop  offset="0.7872" style="stop-color:#E1E9EE"/>
					<stop  offset="1" style="stop-color:#E5ECF0"/>
				</linearGradient>
				<ellipse fill="url(#SVGID_29_)" cx="123.9" cy="54.4" rx="9.4" ry="15.1"/>
				
					<radialGradient id="SVGID_30_" cx="-887.1246" cy="57.6935" r="12.825" gradientTransform="matrix(-1 0 0 1 -764.1935 -3.2451)" gradientUnits="userSpaceOnUse">
					<stop  offset="0" style="stop-color:#003978"/>
					<stop  offset="1" style="stop-color:#002855"/>
				</radialGradient>
				<path fill="url(#SVGID_30_)" d="M123,54.4c0-6.5-1.6-12.4-4.6-17.6c3,0,5.7,1.7,6.6,4.1c1.6,4.2,2.4,8.7,2.4,13.5
					c0,4.7-0.8,9.2-2.4,13.4c-0.9,2.4-3.6,4.1-6.6,4.1C121.4,66.9,123,60.9,123,54.4z"/>
				<g>
					<path fill="#FFFFFF" d="M127.9,42.1c0.3,0.3,0.6,0.7,0.9,1c0.3,0.3,0.5,0.7,0.7,1.1c0.5,0.7,0.9,1.5,1.3,2.2l0,0
						c0.2,0.5,0,1.1-0.5,1.3s-1.1,0-1.3-0.5c0,0,0-0.1-0.1-0.2c-0.2-0.8-0.5-1.5-0.8-2.2c-0.2-0.4-0.3-0.7-0.5-1.1
						c-0.2-0.3-0.4-0.7-0.6-1l0,0c-0.2-0.3-0.1-0.6,0.2-0.8C127.4,41.9,127.7,41.9,127.9,42.1z"/>
				</g>
				
					<linearGradient id="SVGID_31_" gradientUnits="userSpaceOnUse" x1="28.1841" y1="70.1142" x2="44.6233" y2="35.7709" gradientTransform="matrix(1 0 0 1 -8.2442 -3.2451)">
					<stop  offset="0" style="stop-color:#8BB2C5"/>
					<stop  offset="0.1599" style="stop-color:#A6C3D2"/>
					<stop  offset="0.3675" style="stop-color:#C1D5DF"/>
					<stop  offset="0.5769" style="stop-color:#D5E2E8"/>
					<stop  offset="0.7872" style="stop-color:#E1E9EE"/>
					<stop  offset="1" style="stop-color:#E5ECF0"/>
				</linearGradient>
				<ellipse fill="url(#SVGID_31_)" cx="25.9" cy="54.4" rx="9.4" ry="15.1"/>
				
					<radialGradient id="SVGID_32_" cx="35.1444" cy="57.6935" r="12.825" gradientTransform="matrix(1 0 0 1 -8.2442 -3.2451)" gradientUnits="userSpaceOnUse">
					<stop  offset="0" style="stop-color:#003978"/>
					<stop  offset="1" style="stop-color:#002855"/>
				</radialGradient>
				<path fill="url(#SVGID_32_)" d="M26.8,54.4c0-6.5,1.6-12.4,4.6-17.6c-3,0-5.7,1.7-6.6,4.1c-1.6,4.2-2.4,8.7-2.4,13.5
					c0,4.7,0.8,9.2,2.4,13.4c0.9,2.4,3.6,4.1,6.6,4.1C28.4,66.9,26.8,60.9,26.8,54.4z"/>
				<g>
					<path fill="#FFFFFF" d="M22.8,42.9c-0.2,0.3-0.4,0.6-0.6,1c-0.2,0.3-0.4,0.7-0.5,1.1c-0.3,0.7-0.6,1.5-0.8,2.2
						c-0.2,0.5-0.7,0.8-1.3,0.7s-0.8-0.7-0.7-1.3c0-0.1,0-0.1,0.1-0.2l0,0c0.4-0.8,0.8-1.5,1.3-2.2c0.2-0.4,0.5-0.7,0.7-1.1
						c0.3-0.3,0.5-0.7,0.9-1c0.2-0.2,0.6-0.2,0.8,0C23,42.3,23,42.6,22.8,42.9L22.8,42.9z"/>
				</g>
			</g>
			
				<radialGradient id="SVGID_33_" cx="84.0869" cy="47.5044" r="54.833" gradientTransform="matrix(0.866 0.5 -0.47 0.8141 25.3484 -36.4558)" gradientUnits="userSpaceOnUse">
				<stop  offset="0" style="stop-color:#E5ECF0"/>
				<stop  offset="0.3988" style="stop-color:#E3EBEF"/>
				<stop  offset="0.5758" style="stop-color:#DCE6EC"/>
				<stop  offset="0.7091" style="stop-color:#CFDEE5"/>
				<stop  offset="0.8203" style="stop-color:#BDD2DD"/>
				<stop  offset="0.9168" style="stop-color:#A6C3D2"/>
				<stop  offset="1" style="stop-color:#8BB2C5"/>
			</radialGradient>
			<path fill="url(#SVGID_33_)" d="M74.9,91.9c-13.1,0-24.5-2.8-32.9-8c-10.6-6.6-16.4-17.1-16.4-29.4S31.4,31.6,42,25
				c8.4-5.2,19.8-8,32.9-8s24.5,2.8,32.9,8c10.6,6.6,16.4,17.1,16.4,29.4s-5.8,22.8-16.4,29.4C99.4,89.1,88.1,91.9,74.9,91.9z"/>
			<polygon fill="#A2CFE5" points="76.9,19.9 77.7,19.9 77.7,19.2 76.4,19.2 74.8,22.1 74,22.1 74,19.2 71.6,19.2 71.6,19.9 
				72.5,19.9 72.5,26.3 74,26.3 74,22.9 74.5,22.9 76.5,26.3 78.2,26.3 75.8,22 			"/>
			<g>
				<path fill="#FFFFFF" d="M89.7,21.3c5.7,1.3,11.3,3.4,16.3,6.7c0.4,0.3,0.5,0.9,0.3,1.3c-0.3,0.4-0.8,0.5-1.2,0.3l0,0
					c-4.9-2.8-10.3-4.4-15.9-5.3c-0.8-0.1-1.4-0.9-1.2-1.7c0.1-0.8,0.9-1.4,1.7-1.2C89.7,21.3,89.7,21.3,89.7,21.3z"/>
			</g>
			<g>
				<path fill="#FFFFFF" d="M111.1,31.9l1.9,1.5c0.5,0.4,0.6,1.1,0.2,1.6c-0.4,0.5-1.1,0.6-1.6,0.2c-0.1-0.1-0.1-0.1-0.2-0.2
					l-0.1-0.1l-1.4-1.8l0-0.1c-0.3-0.4-0.3-1,0.1-1.3C110.3,31.6,110.8,31.6,111.1,31.9z"/>
			</g>
		</g>
		
			<linearGradient id="SVGID_34_" gradientUnits="userSpaceOnUse" x1="83.1598" y1="83.622" x2="83.1598" y2="31.7654" gradientTransform="matrix(1 0 0 1 -8.2442 -3.2451)">
			<stop  offset="0" style="stop-color:#04070A"/>
			<stop  offset="1" style="stop-color:#102B41"/>
		</linearGradient>
		<path fill="url(#SVGID_34_)" d="M104.8,70.6c3.9-4,6.1-9.4,6.1-16.2c0-18.1-16.1-25.9-36-25.9c-19.9,0-36,7.8-36,25.9
			s16.1,25.9,36,25.9c6.2,0,12.1-0.8,17.2-2.4l10.4,2.4L104.8,70.6z"/>
	</g>
</g>
<g id="Face">
	<g>
		
		<rect x="82.4" y="66.4" transform="matrix(-1 -1.224647e-16 1.224647e-16 -1 166.2939 134.3393)" fill="#FF002F" width="1.5" height="1.5"/>
		<rect x="80.9" y="66.4" transform="matrix(-1 -1.224647e-16 1.224647e-16 -1 163.3007 134.3393)" fill="#FF002F" width="1.5" height="1.5"/>
		<rect x="65.9" y="66.4" fill="#FF002F" width="1.5" height="1.5"/>
		<rect x="67.4" y="66.4" fill="#FF002F" width="1.5" height="1.5"/>
		
			<rect x="82.4" y="64.9" transform="matrix(-1 -1.224647e-16 1.224647e-16 -1 166.2939 131.3461)" fill="#FF002F" width="1.5" height="1.5"/>
		
			<rect x="80.9" y="64.9" transform="matrix(-1 -1.224647e-16 1.224647e-16 -1 163.3007 131.3461)" fill="#FF002F" width="1.5" height="1.5"/>
		
			<rect x="79.4" y="63.4" transform="matrix(-1 -1.224647e-16 1.224647e-16 -1 160.3075 128.3529)" fill="#FF002F" width="1.5" height="1.5"/>
		
			<rect x="77.9" y="63.4" transform="matrix(-1 -1.224647e-16 1.224647e-16 -1 157.3143 128.3529)" fill="#FF002F" width="1.5" height="1.5"/>
		
			<rect x="76.4" y="63.4" transform="matrix(-1 -1.224647e-16 1.224647e-16 -1 154.3211 128.3529)" fill="#FF002F" width="1.5" height="1.5"/>
		
			<rect x="74.9" y="63.4" transform="matrix(-1 -1.224647e-16 1.224647e-16 -1 151.3279 128.3529)" fill="#FF002F" width="1.5" height="1.5"/>
		<rect x="65.9" y="64.9" fill="#FF002F" width="1.5" height="1.5"/>
		<rect x="67.4" y="64.9" fill="#FF002F" width="1.5" height="1.5"/>
		<rect x="68.9" y="63.4" fill="#FF002F" width="1.5" height="1.5"/>
		<rect x="70.4" y="63.4" fill="#FF002F" width="1.5" height="1.5"/>
		<rect x="71.9" y="63.4" fill="#FF002F" width="1.5" height="1.5"/>
		<rect x="73.4" y="63.4" fill="#FF002F" width="1.5" height="1.5"/>
		
			<rect x="79.4" y="61.9" transform="matrix(-1 -1.224647e-16 1.224647e-16 -1 160.3075 125.3597)" fill="#FF002F" width="1.5" height="1.5"/>
		
			<rect x="77.9" y="61.9" transform="matrix(-1 -1.224647e-16 1.224647e-16 -1 157.3143 125.3597)" fill="#FF002F" width="1.5" height="1.5"/>
		
			<rect x="76.4" y="61.9" transform="matrix(-1 -1.224647e-16 1.224647e-16 -1 154.3211 125.3597)" fill="#FF002F" width="1.5" height="1.5"/>
		
			<rect x="74.9" y="61.9" transform="matrix(-1 -1.224647e-16 1.224647e-16 -1 151.3279 125.3597)" fill="#FF002F" width="1.5" height="1.5"/>
		<rect x="68.9" y="61.9" fill="#FF002F" width="1.5" height="1.5"/>
		<rect x="70.4" y="61.9" fill="#FF002F" width="1.5" height="1.5"/>
		<rect x="71.9" y="61.9" fill="#FF002F" width="1.5" height="1.5"/>
		<rect x="73.4" y="61.9" fill="#FF002F" width="1.5" height="1.5"/>
		<g id="eyes2">
			<g>
				<g>
					<rect x="57" y="42.5" fill="#FF002F" width="1.5" height="1.5"/>
					<rect x="58.5" y="42.5" fill="#FF002F" width="1.5" height="1.5"/>
					<rect x="57" y="41" fill="#FF002F" width="1.5" height="1.5"/>
					<rect x="58.5" y="41" fill="#FF002F" width="1.5" height="1.5"/>
				</g>
				<g>
					<rect x="59.9" y="45.5" fill="#FF002F" width="1.5" height="1.5"/>
					<rect x="61.4" y="45.5" fill="#FF002F" width="1.5" height="1.5"/>
					<rect x="59.9" y="44" fill="#FF002F" width="1.5" height="1.5"/>
					<rect x="61.4" y="44" fill="#FF002F" width="1.5" height="1.5"/>
				</g>
				<g>
					<rect x="62.9" y="48.5" fill="#FF002F" width="1.5" height="1.5"/>
					<rect x="64.4" y="48.5" fill="#FF002F" width="1.5" height="1.5"/>
					<rect x="62.9" y="47" fill="#FF002F" width="1.5" height="1.5"/>
					<rect x="64.4" y="47" fill="#FF002F" width="1.5" height="1.5"/>
				</g>
				<g>
					<rect x="65.9" y="51.5" fill="#FF002F" width="1.5" height="1.5"/>
					<rect x="67.4" y="51.5" fill="#FF002F" width="1.5" height="1.5"/>
					<rect x="65.9" y="50" fill="#FF002F" width="1.5" height="1.5"/>
					<rect x="67.4" y="50" fill="#FF002F" width="1.5" height="1.5"/>
				</g>
				<g>
					<rect x="68.9" y="54.4" fill="#FF002F" width="1.5" height="1.5"/>
					<rect x="70.4" y="54.4" fill="#FF002F" width="1.5" height="1.5"/>
					<rect x="68.9" y="53" fill="#FF002F" width="1.5" height="1.5"/>
					<rect x="70.4" y="53" fill="#FF002F" width="1.5" height="1.5"/>
				</g>
				<g>
					
						<rect x="70.4" y="42.5" transform="matrix(-1 -1.215595e-12 1.215595e-12 -1 142.3483 86.4481)" fill="#FF002F" width="1.5" height="1.5"/>
					
						<rect x="68.9" y="42.5" transform="matrix(-1 1.215350e-12 -1.215350e-12 -1 139.3551 86.4481)" fill="#FF002F" width="1.5" height="1.5"/>
					
						<rect x="70.4" y="41" transform="matrix(-1 -1.224647e-16 1.224647e-16 -1 142.3483 83.4549)" fill="#FF002F" width="1.5" height="1.5"/>
					
						<rect x="68.9" y="41" transform="matrix(-1 -1.224647e-16 1.224647e-16 -1 139.3551 83.4549)" fill="#FF002F" width="1.5" height="1.5"/>
				</g>
				<g>
					
						<rect x="67.4" y="45.5" transform="matrix(-1 -2.431067e-12 2.431067e-12 -1 136.3619 92.4345)" fill="#FF002F" width="1.5" height="1.5"/>
					
						<rect x="65.9" y="45.5" transform="matrix(-1 -1.224647e-16 1.224647e-16 -1 133.3687 92.4345)" fill="#FF002F" width="1.5" height="1.5"/>
					
						<rect x="67.4" y="44" transform="matrix(-1 -1.224647e-16 1.224647e-16 -1 136.3619 89.4413)" fill="#FF002F" width="1.5" height="1.5"/>
					
						<rect x="65.9" y="44" transform="matrix(-1 -1.224647e-16 1.224647e-16 -1 133.3687 89.4413)" fill="#FF002F" width="1.5" height="1.5"/>
				</g>
				<g>
					
						<rect x="61.4" y="51.5" transform="matrix(-1 -2.431067e-12 2.431067e-12 -1 124.3891 104.4073)" fill="#FF002F" width="1.5" height="1.5"/>
					
						<rect x="59.9" y="51.5" transform="matrix(-1 2.430822e-12 -2.430822e-12 -1 121.3959 104.4073)" fill="#FF002F" width="1.5" height="1.5"/>
					
						<rect x="61.4" y="50" transform="matrix(-1 -1.224647e-16 1.224647e-16 -1 124.3891 101.4141)" fill="#FF002F" width="1.5" height="1.5"/>
					
						<rect x="59.9" y="50" transform="matrix(-1 -1.224647e-16 1.224647e-16 -1 121.3959 101.4141)" fill="#FF002F" width="1.5" height="1.5"/>
				</g>
				<g>
					
						<rect x="58.5" y="54.4" transform="matrix(-1 -1.224647e-16 1.224647e-16 -1 118.4027 110.3937)" fill="#FF002F" width="1.5" height="1.5"/>
					
						<rect x="57" y="54.4" transform="matrix(-1 -1.224647e-16 1.224647e-16 -1 115.4095 110.3937)" fill="#FF002F" width="1.5" height="1.5"/>
					
						<rect x="58.5" y="53" transform="matrix(-1 1.215350e-12 -1.215350e-12 -1 118.4027 107.4005)" fill="#FF002F" width="1.5" height="1.5"/>
					
						<rect x="57" y="53" transform="matrix(-1 -1.215595e-12 1.215595e-12 -1 115.4095 107.4005)" fill="#FF002F" width="1.5" height="1.5"/>
				</g>
			</g>
			<g>
				<g>
					<rect x="77.9" y="42.5" fill="#FF002F" width="1.5" height="1.5"/>
					<rect x="79.4" y="42.5" fill="#FF002F" width="1.5" height="1.5"/>
					<rect x="77.9" y="41" fill="#FF002F" width="1.5" height="1.5"/>
					<rect x="79.4" y="41" fill="#FF002F" width="1.5" height="1.5"/>
				</g>
				<g>
					<rect x="80.9" y="45.5" fill="#FF002F" width="1.5" height="1.5"/>
					<rect x="82.4" y="45.5" fill="#FF002F" width="1.5" height="1.5"/>
					<rect x="80.9" y="44" fill="#FF002F" width="1.5" height="1.5"/>
					<rect x="82.4" y="44" fill="#FF002F" width="1.5" height="1.5"/>
				</g>
				<g>
					<rect x="83.9" y="48.5" fill="#FF002F" width="1.5" height="1.5"/>
					<rect x="85.4" y="48.5" fill="#FF002F" width="1.5" height="1.5"/>
					<rect x="83.9" y="47" fill="#FF002F" width="1.5" height="1.5"/>
					<rect x="85.4" y="47" fill="#FF002F" width="1.5" height="1.5"/>
				</g>
				<g>
					<rect x="86.9" y="51.5" fill="#FF002F" width="1.5" height="1.5"/>
					<rect x="88.4" y="51.5" fill="#FF002F" width="1.5" height="1.5"/>
					<rect x="86.9" y="50" fill="#FF002F" width="1.5" height="1.5"/>
					<rect x="88.4" y="50" fill="#FF002F" width="1.5" height="1.5"/>
				</g>
				<g>
					<rect x="89.9" y="54.4" fill="#FF002F" width="1.5" height="1.5"/>
					<rect x="91.4" y="54.4" fill="#FF002F" width="1.5" height="1.5"/>
					<rect x="89.9" y="53" fill="#FF002F" width="1.5" height="1.5"/>
					<rect x="91.4" y="53" fill="#FF002F" width="1.5" height="1.5"/>
				</g>
				<g>
					
						<rect x="91.4" y="42.5" transform="matrix(-1 -1.215595e-12 1.215595e-12 -1 184.2531 86.4481)" fill="#FF002F" width="1.5" height="1.5"/>
					
						<rect x="89.9" y="42.5" transform="matrix(-1 1.215350e-12 -1.215350e-12 -1 181.2599 86.4481)" fill="#FF002F" width="1.5" height="1.5"/>
					
						<rect x="91.4" y="41" transform="matrix(-1 -1.224647e-16 1.224647e-16 -1 184.2531 83.4549)" fill="#FF002F" width="1.5" height="1.5"/>
					
						<rect x="89.9" y="41" transform="matrix(-1 -1.224647e-16 1.224647e-16 -1 181.2599 83.4549)" fill="#FF002F" width="1.5" height="1.5"/>
				</g>
				<g>
					
						<rect x="88.4" y="45.5" transform="matrix(-1 -2.431067e-12 2.431067e-12 -1 178.2667 92.4345)" fill="#FF002F" width="1.5" height="1.5"/>
					
						<rect x="86.9" y="45.5" transform="matrix(-1 -1.224647e-16 1.224647e-16 -1 175.2735 92.4345)" fill="#FF002F" width="1.5" height="1.5"/>
					
						<rect x="88.4" y="44" transform="matrix(-1 -1.224647e-16 1.224647e-16 -1 178.2667 89.4413)" fill="#FF002F" width="1.5" height="1.5"/>
					
						<rect x="86.9" y="44" transform="matrix(-1 -1.224647e-16 1.224647e-16 -1 175.2735 89.4413)" fill="#FF002F" width="1.5" height="1.5"/>
				</g>
				<g>
					
						<rect x="82.4" y="51.5" transform="matrix(-1 -2.431067e-12 2.431067e-12 -1 166.2939 104.4073)" fill="#FF002F" width="1.5" height="1.5"/>
					
						<rect x="80.9" y="51.5" transform="matrix(-1 2.430822e-12 -2.430822e-12 -1 163.3007 104.4073)" fill="#FF002F" width="1.5" height="1.5"/>
					
						<rect x="82.4" y="50" transform="matrix(-1 -1.224647e-16 1.224647e-16 -1 166.2939 101.4141)" fill="#FF002F" width="1.5" height="1.5"/>
					
						<rect x="80.9" y="50" transform="matrix(-1 -1.224647e-16 1.224647e-16 -1 163.3007 101.4141)" fill="#FF002F" width="1.5" height="1.5"/>
				</g>
				<g>
					
						<rect x="79.4" y="54.4" transform="matrix(-1 -1.224647e-16 1.224647e-16 -1 160.3075 110.3937)" fill="#FF002F" width="1.5" height="1.5"/>
					
						<rect x="77.9" y="54.4" transform="matrix(-1 -1.224647e-16 1.224647e-16 -1 157.3143 110.3937)" fill="#FF002F" width="1.5" height="1.5"/>
					
						<rect x="79.4" y="53" transform="matrix(-1 1.215350e-12 -1.215350e-12 -1 160.3075 107.4005)" fill="#FF002F" width="1.5" height="1.5"/>
					
						<rect x="77.9" y="53" transform="matrix(-1 -1.215595e-12 1.215595e-12 -1 157.3143 107.4005)" fill="#FF002F" width="1.5" height="1.5"/>
				</g>
			</g>
		</g>
	</g>
</g>
</svg>
