<?xml version="1.0" encoding="utf-8"?>
<!-- Generator: Adobe Illustrator 22.0.0, SVG Export Plug-In . SVG Version: 6.00 Build 0)  -->
<svg version="1.1" xmlns="http://www.w3.org/2000/svg" xmlns:xlink="http://www.w3.org/1999/xlink" x="0px" y="0px"
	 viewBox="0 0 150 150" enable-background="new 0 0 150 150" xml:space="preserve">
<g id="BG">
	<radialGradient id="SVGID_1_" cx="72.8693" cy="129.8391" r="102.8698" gradientUnits="userSpaceOnUse">
		<stop  offset="0" style="stop-color:#0095BB"/>
		<stop  offset="1" style="stop-color:#00CCFF"/>
	</radialGradient>
	<circle fill="url(#SVGID_1_)" cx="75" cy="75" r="60"/>
</g>
<g id="Left_Arm">
	<g>
		<g>
			<g>
				
					<radialGradient id="SVGID_2_" cx="-291.5699" cy="-185.9154" r="4.1175" gradientTransform="matrix(-0.8859 -0.4639 0.4639 -0.8859 -56.4225 -168.3561)" gradientUnits="userSpaceOnUse">
					<stop  offset="0" style="stop-color:#004A9C"/>
					<stop  offset="1" style="stop-color:#003979"/>
				</radialGradient>
				<path fill="url(#SVGID_2_)" d="M114,129.5c0.4-0.8,1-1.6,1.7-2.5c0.4-0.5,1-0.6,1.5-0.5c0.3,0.1,0.5,0.2,0.7,0.4
					c0.7,0.6,0.7,1.6,0.2,2.2c-0.4,0.4-0.7,0.9-1,1.4c0,0.1-0.1,0.1-0.1,0.2c-0.5,0.9-0.9,1.9-0.9,2.8l0,0.3c0,0.4,0,0.8,0.1,1.3
					c0.2,0.9-0.4,1.7-1.2,1.9c-0.9,0.2-1.7-0.4-1.9-1.2c-0.1-0.7-0.2-1.5-0.1-2.5l0-0.2c0.1-0.9,0.4-2,0.9-3.1
					C113.9,129.7,114,129.6,114,129.5z"/>
			</g>
			<g opacity="0.6">
				<path fill="#FFFFFF" d="M113,132.9c1.5-0.2,2.6,0.3,3.1,0.5c0,0,0,0,0.1,0l0,0.3c-0.4-0.2-1.5-0.8-3.1-0.6L113,132.9z"/>
			</g>
			<g opacity="0.6">
				<path fill="#FFFFFF" d="M114,129.5c0.9-0.2,1.8,0.2,2.4,0.5c0.3,0.2,0.6,0.3,0.7,0.4c0,0.1-0.1,0.1-0.1,0.2
					c-0.5-0.3-1.9-1.2-3.1-0.8C113.9,129.7,114,129.6,114,129.5z"/>
			</g>
		</g>
		<g>
			<g>
				
					<radialGradient id="SVGID_3_" cx="-291.1932" cy="-191.8529" r="5.1524" gradientTransform="matrix(-0.9079 -0.4192 0.4192 -0.9079 -63.15 -163.2173)" gradientUnits="userSpaceOnUse">
					<stop  offset="0" style="stop-color:#004A9C"/>
					<stop  offset="1" style="stop-color:#003979"/>
				</radialGradient>
				<path fill="url(#SVGID_3_)" d="M119.9,126.5c0.3-0.1,0.6-0.2,0.9-0.1c0.5,0.1,0.9,0.4,1.2,0.9c0.9,1.8,1.2,3.6,1.3,5.3
					c0,0.1,0,0.2,0,0.3c0,1.3-0.1,2.6-0.3,3.5c0,0,0,0,0,0c0,0.1,0,0.2,0,0.2c-0.2,1.2-0.5,2-0.5,2.1c-0.3,0.8-1.2,1.3-2,1
					c-0.8-0.3-1.3-1.2-1-2c0,0,0.2-0.6,0.3-1.4l0.1-0.3c0.1-0.9,0.3-1.9,0.2-3.1c0-0.1,0-0.2,0-0.2c-0.1-1.3-0.3-2.7-0.9-4
					C118.8,127.8,119.1,126.9,119.9,126.5z"/>
			</g>
			<g opacity="0.6">
				<path fill="#FFFFFF" d="M123,136.6c-0.3-0.2-1.7-1-3.2-0.3l0.1-0.3c1.1-0.4,2.1-0.2,2.7,0.1c0.2,0.1,0.3,0.2,0.4,0.2L123,136.6z
					"/>
				<path fill="none" d="M123,136.3L123,136.3C123,136.3,123,136.3,123,136.3"/>
			</g>
			<g opacity="0.6">
				<path fill="#FFFFFF" d="M120.1,132.6c1.5-0.6,2.6-0.3,3.1-0.1l0.1,0c0,0.1,0,0.2,0,0.3c-0.3-0.1-1.4-0.7-3.2,0.1
					C120.1,132.7,120.1,132.7,120.1,132.6z"/>
			</g>
		</g>
		<g>
			<g>
				
					<radialGradient id="SVGID_4_" cx="-172.3973" cy="-133.2724" r="5.1524" gradientTransform="matrix(-0.9896 -0.1435 0.1435 -0.9896 -25.9978 -25.4502)" gradientUnits="userSpaceOnUse">
					<stop  offset="0" style="stop-color:#004A9C"/>
					<stop  offset="1" style="stop-color:#003979"/>
				</radialGradient>
				<path fill="url(#SVGID_4_)" d="M122.8,125.2c0.3-0.2,0.6-0.4,0.9-0.4c0.5-0.1,1,0.1,1.4,0.5c1.3,1.4,2.2,3.1,2.7,4.7
					c0,0.1,0.1,0.2,0.1,0.2c0.4,1.3,0.6,2.5,0.8,3.5c0,0,0,0,0,0c0,0.1,0,0.2,0,0.2c0.1,1.2,0.1,2.1,0.1,2.1c0,0.9-0.8,1.6-1.6,1.5
					c-0.9,0-1.6-0.8-1.5-1.6c0,0,0-0.6-0.1-1.5l0-0.3c-0.1-0.9-0.3-1.9-0.7-3.1c0-0.1,0-0.2-0.1-0.2c-0.4-1.2-1.1-2.5-2-3.6
					C122.1,126.8,122.1,125.7,122.8,125.2z"/>
			</g>
			<g opacity="0.6">
				<path fill="#FFFFFF" d="M128.6,134c-0.3-0.1-1.9-0.5-3.1,0.6l0-0.3c0.9-0.7,2-0.7,2.6-0.7c0.2,0,0.4,0.1,0.5,0.1L128.6,134z"/>
				<path fill="none" d="M128.6,133.7L128.6,133.7C128.6,133.7,128.6,133.7,128.6,133.7"/>
			</g>
			<g opacity="0.6">
				<path fill="#FFFFFF" d="M124.7,131c1.3-1,2.4-1.1,2.9-1l0.1,0c0,0.1,0.1,0.2,0.1,0.2c-0.3-0.1-1.5-0.3-3,0.9
					C124.8,131.1,124.7,131,124.7,131z"/>
			</g>
		</g>
		<g>
			<g>
				
					<radialGradient id="SVGID_5_" cx="-30.1583" cy="16.8822" r="5.1524" gradientTransform="matrix(-0.9563 0.2923 -0.2923 -0.9563 104.7881 152.001)" gradientUnits="userSpaceOnUse">
					<stop  offset="0" style="stop-color:#004A9C"/>
					<stop  offset="1" style="stop-color:#003979"/>
				</radialGradient>
				<path fill="url(#SVGID_5_)" d="M123.7,122.7c0.1-0.3,0.3-0.6,0.6-0.7c0.4-0.3,1-0.3,1.5-0.1c1.8,0.7,3.3,1.9,4.5,3.1
					c0.1,0.1,0.1,0.1,0.2,0.2c0.9,1,1.6,2,2.2,2.8c0,0,0,0,0,0c0,0.1,0.1,0.1,0.1,0.2c0.6,1.1,1,1.8,1,1.9c0.3,0.8,0,1.7-0.8,2.1
					c-0.8,0.3-1.7,0-2.1-0.8c0,0-0.2-0.5-0.7-1.3l-0.1-0.2c-0.5-0.7-1.1-1.6-1.9-2.5c0-0.1-0.1-0.1-0.2-0.2c-0.9-0.9-2-1.8-3.4-2.3
					C123.7,124.5,123.3,123.6,123.7,122.7z"/>
			</g>
			<g opacity="0.6">
				<path fill="#FFFFFF" d="M132.7,128.2c-0.4,0.1-2,0.4-2.6,1.9l-0.1-0.2c0.5-1,1.5-1.5,2.1-1.7c0.2-0.1,0.3-0.1,0.5-0.1
					L132.7,128.2z"/>
				<path fill="none" d="M132.6,128L132.6,128C132.6,128,132.6,128,132.6,128"/>
			</g>
			<g opacity="0.6">
				<path fill="#FFFFFF" d="M127.9,127.2c0.7-1.5,1.7-2,2.2-2.1l0.1,0c0.1,0.1,0.1,0.1,0.2,0.2c-0.3,0.1-1.5,0.4-2.3,2.1
					C128,127.3,128,127.2,127.9,127.2z"/>
			</g>
		</g>
		
			<radialGradient id="SVGID_6_" cx="-174.2095" cy="-140.318" r="9.9386" gradientTransform="matrix(-0.9871 -0.1603 0.1603 -0.9871 -27.6858 -34.3434)" gradientUnits="userSpaceOnUse">
			<stop  offset="0" style="stop-color:#002855"/>
			<stop  offset="0.4671" style="stop-color:#002753"/>
			<stop  offset="0.7099" style="stop-color:#00234B"/>
			<stop  offset="0.9004" style="stop-color:#001D3E"/>
			<stop  offset="1" style="stop-color:#001833"/>
		</radialGradient>
		<path fill="url(#SVGID_6_)" d="M116.3,129.5c-1.9-2.2-1.1-5.9,1.8-8.4s6.7-2.7,8.6-0.6s1.1,5.9-1.8,8.4
			C122,131.4,118.1,131.7,116.3,129.5z"/>
		<g>
			
				<radialGradient id="SVGID_7_" cx="-183.6655" cy="97.9127" r="10.6239" gradientTransform="matrix(-1 0 0 1 -83.6193 0)" gradientUnits="userSpaceOnUse">
				<stop  offset="0" style="stop-color:#003978"/>
				<stop  offset="1" style="stop-color:#002855"/>
			</radialGradient>
			<path fill="url(#SVGID_7_)" d="M90.1,99.6c0.1,1.1,0.5,2.1,0.9,2.9c0,0.1,0.1,0.2,0.1,0.2c0.2,0.3,0.3,0.6,0.5,0.8
				c1.2-0.3,2.3-0.4,3.3-0.5c0.8-0.1,1.5-0.1,2.1,0c1.8,0.1,3.2,0.4,4.5,0.9c2.4,1,3.9,2.5,5,3.8c1.6,1.9,4.4,2.2,6.3,0.6
				c1.9-1.6,2.2-4.4,0.6-6.3c-1.6-2-3.5-3.6-5.5-4.9c-0.7-0.5-1.5-0.9-2.3-1.2c-2.5-1.1-5.2-1.8-8.1-1.9c-0.7,0-1.4,0-2,0
				c-0.9,0-1.9,0.1-2.8,0.2c0,0-0.8,0.1-1.9,0.3C90.2,95.8,89.9,97.7,90.1,99.6z"/>
		</g>
		<g>
			
				<linearGradient id="SVGID_8_" gradientUnits="userSpaceOnUse" x1="-280.5421" y1="-165.0214" x2="-268.2699" y2="-182.9806" gradientTransform="matrix(-0.9079 -0.4192 0.4192 -0.9079 -63.15 -163.2173)">
				<stop  offset="0" style="stop-color:#8BB2C5"/>
				<stop  offset="0.1547" style="stop-color:#9DBECE"/>
				<stop  offset="0.5233" style="stop-color:#C4D7E0"/>
				<stop  offset="0.818" style="stop-color:#DCE6EC"/>
				<stop  offset="1" style="stop-color:#E5ECF0"/>
			</linearGradient>
			<path fill="url(#SVGID_8_)" d="M109.2,97.4c12.2,6.1,14.9,13.6,15.4,17.2c0.2,1.3-0.2,2.6-1,3.6c-1.3,1.5-3.7,3.7-7.8,5.2
				c-1.7,0.6-3.6,0.1-4.8-1.2c-1.6-1.7-3.8-4.6-5.1-9c-0.9-3.4-3.1-6.6-4.1-8c-0.3-0.5-0.4-1.1-0.2-1.7c0.6-1.7,2.3-5.2,6.3-6.4
				C108.4,97.2,108.9,97.2,109.2,97.4z"/>
			<g>
				<path fill="#FFFFFF" d="M107.1,110.4c0.3,0.3,0.4,0.7,0.6,1c0.2,0.3,0.3,0.6,0.5,0.9c0.2,0.3,0.1,0.7-0.2,0.9
					c-0.3,0.2-0.7,0.1-0.9-0.2c0,0,0-0.1,0-0.1l0,0c-0.2-0.4-0.3-0.7-0.4-1.1c-0.1-0.4-0.2-0.7-0.4-0.9l0,0
					c-0.1-0.3-0.1-0.6,0.2-0.7C106.7,110.1,107,110.2,107.1,110.4z"/>
			</g>
			<g>
				<path fill="#FFFFFF" d="M110.9,120.7c-0.3-0.5-0.5-0.9-0.8-1.3c-0.2-0.4-0.5-0.9-0.7-1.3c-0.4-0.9-0.8-1.8-1.1-2.8
					c-0.1-0.3,0.1-0.7,0.4-0.8c0.3-0.1,0.6,0,0.7,0.3l0,0c0.4,0.8,0.9,1.7,1.4,2.5c0.3,0.4,0.5,0.8,0.8,1.2c0.3,0.4,0.6,0.8,0.9,1.1
					l0,0c0.4,0.4,0.3,1.1-0.1,1.4c-0.4,0.4-1.1,0.3-1.4-0.1C111,120.8,110.9,120.7,110.9,120.7z"/>
			</g>
		</g>
		
			<linearGradient id="SVGID_9_" gradientUnits="userSpaceOnUse" x1="-165.1485" y1="144.4432" x2="-161.7559" y2="144.4432" gradientTransform="matrix(-0.9685 0.2489 0.2489 0.9685 -72.8215 31.41)">
			<stop  offset="0" style="stop-color:#8BB2C5"/>
			<stop  offset="0.1547" style="stop-color:#9DBECE"/>
			<stop  offset="0.5233" style="stop-color:#C4D7E0"/>
			<stop  offset="0.818" style="stop-color:#DCE6EC"/>
			<stop  offset="1" style="stop-color:#E5ECF0"/>
		</linearGradient>
		<path fill="url(#SVGID_9_)" d="M119.8,131.1c0.2,0.6,1,1,1.9,0.7s1.5-0.9,1.3-1.6c-0.2-0.6-1-1-1.9-0.7S119.6,130.4,119.8,131.1z"
			/>
		
			<linearGradient id="SVGID_10_" gradientUnits="userSpaceOnUse" x1="-293.201" y1="0.9662" x2="-289.7215" y2="0.9662" gradientTransform="matrix(-0.6085 -0.8484 -0.8126 0.5828 -60.1009 -119.0082)">
			<stop  offset="0" style="stop-color:#8BB2C5"/>
			<stop  offset="0.1547" style="stop-color:#9DBECE"/>
			<stop  offset="0.5233" style="stop-color:#C4D7E0"/>
			<stop  offset="0.818" style="stop-color:#DCE6EC"/>
			<stop  offset="1" style="stop-color:#E5ECF0"/>
		</linearGradient>
		<path fill="url(#SVGID_10_)" d="M115.4,127.4c-0.5,0.4-0.5,1.4,0.1,2.2s1.5,1.2,2.1,0.8c0.5-0.4,0.5-1.4-0.1-2.2
			C116.9,127.3,115.9,127,115.4,127.4z"/>
		
			<linearGradient id="SVGID_11_" gradientUnits="userSpaceOnUse" x1="-73.2735" y1="133.4259" x2="-69.8809" y2="133.4259" gradientTransform="matrix(-0.6896 0.7242 0.7242 0.6896 -20.7679 88.1992)">
			<stop  offset="0" style="stop-color:#8BB2C5"/>
			<stop  offset="0.1547" style="stop-color:#9DBECE"/>
			<stop  offset="0.5233" style="stop-color:#C4D7E0"/>
			<stop  offset="0.818" style="stop-color:#DCE6EC"/>
			<stop  offset="1" style="stop-color:#E5ECF0"/>
		</linearGradient>
		<path fill="url(#SVGID_11_)" d="M124.1,129.6c0.5,0.5,1.4,0.3,2-0.4c0.6-0.7,0.8-1.6,0.3-2.1c-0.5-0.5-1.4-0.3-2,0.4
			C123.7,128.2,123.6,129.1,124.1,129.6z"/>
		
			<linearGradient id="SVGID_12_" gradientUnits="userSpaceOnUse" x1="-1.3479" y1="75.2602" x2="2.0447" y2="75.2602" gradientTransform="matrix(-0.2035 0.9791 0.9791 0.2035 53.6625 108.938)">
			<stop  offset="0" style="stop-color:#8BB2C5"/>
			<stop  offset="0.1547" style="stop-color:#9DBECE"/>
			<stop  offset="0.5233" style="stop-color:#C4D7E0"/>
			<stop  offset="0.818" style="stop-color:#DCE6EC"/>
			<stop  offset="1" style="stop-color:#E5ECF0"/>
		</linearGradient>
		<path fill="url(#SVGID_12_)" d="M126.9,126.3c0.6,0.1,1.3-0.5,1.5-1.4s-0.2-1.8-0.8-1.9c-0.6-0.1-1.3,0.5-1.5,1.4
			C125.9,125.3,126.3,126.1,126.9,126.3z"/>
	</g>
</g>
<g id="Body">
	<g>
		<defs>
			<circle id="SVGID_197_" cx="75" cy="75" r="60"/>
		</defs>
		<clipPath id="SVGID_13_">
			<use xlink:href="#SVGID_197_"  overflow="visible"/>
		</clipPath>
		<g clip-path="url(#SVGID_13_)">
			<radialGradient id="SVGID_14_" cx="84.4376" cy="98.8531" r="40.314" gradientUnits="userSpaceOnUse">
				<stop  offset="0" style="stop-color:#E5ECF0"/>
				<stop  offset="0.3988" style="stop-color:#E3EBEF"/>
				<stop  offset="0.5758" style="stop-color:#DCE6EC"/>
				<stop  offset="0.7091" style="stop-color:#CFDEE5"/>
				<stop  offset="0.8203" style="stop-color:#BDD2DD"/>
				<stop  offset="0.9168" style="stop-color:#A6C3D2"/>
				<stop  offset="1" style="stop-color:#8BB2C5"/>
			</radialGradient>
			<path fill="url(#SVGID_14_)" d="M101.2,113.2c0,13.4-11.7,24.3-26.1,24.3c-14.4,0-26.1-10.9-26.1-24.3s3.7-29.7,26.1-29.7
				c19.2,0,24.6,11.9,25.8,23.8c0.1,0.7,0.1,1.4,0.2,2.1C101.2,110.6,101.2,111.9,101.2,113.2z"/>
			<path fill="#00CCFF" d="M82.4,105.6c-3.9,0.7-6.9,4.7-6.7,9c0.1,4.3,3.4,7.2,7.2,6.5s6.9-4.7,6.7-9
				C89.5,107.8,86.3,104.9,82.4,105.6"/>
			<path fill="#002855" d="M82.4,106.9c-3.2,0.6-5.7,3.9-5.6,7.5c0.1,3.6,2.8,6,6,5.5c3.2-0.6,5.7-3.9,5.6-7.5
				C88.3,108.7,85.6,106.3,82.4,106.9"/>
			<polyline fill="#FFFFFF" points="85.1,109.2 83.9,109.4 82.5,112.7 81.8,112.8 81.7,109.8 79.5,110.2 79.5,110.9 80.4,110.8 
				80.6,117.4 81.9,117.1 81.8,113.7 82.3,113.6 84.2,116.7 85.8,116.5 83.4,112.4 84.4,110.1 85.1,110 85.1,109.2 			"/>
			<path fill="#FFFFFF" d="M96.4,102.1l0.3,1c0.1,0.3-0.1,0.5-0.3,0.6c-0.3,0.1-0.5-0.1-0.6-0.3c0,0,0-0.1,0-0.1l0,0l0-1l0,0
				c0-0.2,0.2-0.4,0.4-0.4C96.2,101.8,96.4,102,96.4,102.1z"/>
			<path fill="#FFFFFF" d="M93.1,92.5c0.4,0.6,0.7,1.2,1,1.8c0.3,0.6,0.6,1.2,0.8,1.9c0.5,1.3,0.9,2.6,1.2,3.9
				c0,0.2-0.1,0.4-0.3,0.4c-0.2,0-0.3-0.1-0.4-0.2c-0.5-1.2-1.1-2.4-1.8-3.5c-0.3-0.6-0.7-1.1-1.1-1.6c-0.4-0.5-0.8-1-1.2-1.5l0,0
				c-0.4-0.4-0.4-1,0-1.4c0.4-0.4,1-0.4,1.4,0C93,92.4,93,92.5,93.1,92.5z"/>
			<g>
				<path fill="#002855" d="M101.1,109.4c-2.2,1.5-4.8,2.8-7.6,3.7c-0.1,0-0.2,0-0.3,0c-0.4,0-0.7-0.2-0.9-0.6
					c-0.2-0.5,0.1-1,0.6-1.1c3.1-1,5.7-2.4,8-4.1C101,108,101,108.7,101.1,109.4z"/>
			</g>
			<g>
				<path fill="#002855" d="M71.2,115.1C71.1,115.1,71.1,115.1,71.2,115.1c-5.1-0.2-10.5-0.9-16.1-2.1c-0.5-0.1-0.8-0.6-0.7-1.1
					c0.1-0.5,0.6-0.8,1.1-0.7c5.5,1.2,10.9,1.9,15.8,2.1c0.5,0,0.9,0.4,0.9,0.9C72,114.7,71.6,115.1,71.2,115.1z"/>
			</g>
			<radialGradient id="SVGID_15_" cx="79.4288" cy="91.0601" r="8.2444" gradientUnits="userSpaceOnUse">
				<stop  offset="0" style="stop-color:#003978"/>
				<stop  offset="1" style="stop-color:#002855"/>
			</radialGradient>
			<ellipse fill="url(#SVGID_15_)" cx="79.4" cy="91.1" rx="8.9" ry="7.6"/>
		</g>
	</g>
</g>
<g id="Right_Arm">
	<g>
		<g>
			<g>
				
					<radialGradient id="SVGID_16_" cx="-85.0145" cy="-296.194" r="4.1175" gradientTransform="matrix(0.8859 -0.4639 -0.4639 -0.8859 -27.1968 -168.3561)" gradientUnits="userSpaceOnUse">
					<stop  offset="0" style="stop-color:#004A9C"/>
					<stop  offset="1" style="stop-color:#003979"/>
				</radialGradient>
				<path fill="url(#SVGID_16_)" d="M36.5,131.4c-0.4-0.8-1-1.6-1.7-2.5c-0.4-0.5-1-0.6-1.5-0.5c-0.3,0.1-0.5,0.2-0.7,0.4
					c-0.7,0.6-0.7,1.6-0.2,2.2c0.4,0.4,0.7,0.9,1,1.4c0,0.1,0.1,0.1,0.1,0.2c0.5,0.9,0.9,1.9,0.9,2.8l0,0.3c0,0.4,0,0.8-0.1,1.3
					c-0.2,0.9,0.4,1.7,1.2,1.9c0.9,0.2,1.7-0.4,1.9-1.2c0.1-0.7,0.2-1.5,0.1-2.5l0-0.2c-0.1-0.9-0.4-2-0.9-3.1
					C36.6,131.6,36.5,131.5,36.5,131.4z"/>
			</g>
			<g opacity="0.6">
				<path fill="#FFFFFF" d="M37.6,135c-1.7-0.2-2.8,0.4-3.1,0.6l0-0.3c0,0,0,0,0.1,0c0.5-0.3,1.6-0.7,3.1-0.5L37.6,135z"/>
			</g>
			<g opacity="0.6">
				<path fill="#FFFFFF" d="M36.5,131.4c-0.9-0.2-1.8,0.2-2.4,0.5c-0.3,0.2-0.6,0.3-0.7,0.4c0,0.1,0.1,0.1,0.1,0.2
					c0.5-0.3,1.9-1.2,3.1-0.8C36.6,131.6,36.5,131.5,36.5,131.4z"/>
			</g>
		</g>
		<path opacity="7.000000e-02" fill="#01060A" d="M56.1,108.1c-0.1,0-0.3,0-0.4,0c-0.3,0-0.4-0.1-0.6-0.2c-0.1,0-0.3-0.1-0.4-0.2
			c-2-1-3.1-4-2.7-7.3c0.2-1.2,0.5-2.3,1-3.3c0-0.1,0.1-0.2,0.1-0.3c1-1.8,2.5-2.9,4-2.9c0.1,0,0.3,0,0.4,0c0.1,0,0.2,0,0.3,0.1
			c0.5,0.1,1,0.3,1.4,0.6c1.6,1.3,2.5,4,2.1,6.9c-0.2,1.2-0.5,2.2-1,3.2c0,0.1-0.1,0.1-0.1,0.2C59.2,107,57.7,108.1,56.1,108.1z"/>
		<path d="M60.4,101.5c-0.1,1.1-0.5,2.1-0.9,2.9c0,0.1-0.1,0.2-0.1,0.2c-0.2,0.3-0.3,0.6-0.5,0.8c-0.8,1.1-1.9,1.8-3,1.6
			c-0.2,0-0.3,0-0.4-0.1c-0.1,0-0.2-0.1-0.3-0.1c-0.7-0.3-1.3-1-1.7-1.9c-0.5-1.2-0.8-2.8-0.5-4.5c0.1-1.1,0.5-2.1,0.9-3
			c0-0.1,0.1-0.2,0.1-0.2c0.3-0.5,0.6-1,1-1.4c0.8-0.8,1.7-1.2,2.6-1.1c0.1,0,0.1,0,0.2,0c0.4,0.1,0.7,0.2,1,0.5
			c0.3,0.3,0.6,0.6,0.9,1C60.3,97.7,60.7,99.5,60.4,101.5z"/>
		<g>
			<g>
				
					<radialGradient id="SVGID_17_" cx="-79.4066" cy="-291.7175" r="5.1524" gradientTransform="matrix(0.9079 -0.4192 -0.4192 -0.9079 -20.4693 -163.2173)" gradientUnits="userSpaceOnUse">
					<stop  offset="0" style="stop-color:#004A9C"/>
					<stop  offset="1" style="stop-color:#003979"/>
				</radialGradient>
				<path fill="url(#SVGID_17_)" d="M30.6,128.4c-0.3-0.1-0.6-0.2-0.9-0.1c-0.5,0.1-0.9,0.4-1.2,0.9c-0.9,1.8-1.2,3.6-1.3,5.3
					c0,0.1,0,0.2,0,0.3c0,1.3,0.1,2.6,0.3,3.5c0,0,0,0,0,0c0,0.1,0,0.2,0,0.2c0.2,1.2,0.5,2,0.5,2.1c0.3,0.8,1.2,1.3,2,1
					c0.8-0.3,1.3-1.2,1-2c0,0-0.2-0.6-0.3-1.4l-0.1-0.3c-0.1-0.9-0.3-1.9-0.2-3.1c0-0.1,0-0.2,0-0.2c0.1-1.3,0.3-2.7,0.9-4
					C31.7,129.7,31.4,128.8,30.6,128.4z"/>
			</g>
			<g opacity="0.6">
				<path fill="#FFFFFF" d="M27.5,138.2c0.1-0.1,0.2-0.1,0.4-0.2c0.6-0.3,1.6-0.6,2.7-0.1l0.1,0.3c-1.4-0.7-2.9,0.1-3.2,0.3
					L27.5,138.2z"/>
				<path fill="none" d="M27.5,138.2C27.5,138.2,27.5,138.2,27.5,138.2L27.5,138.2"/>
			</g>
			<g opacity="0.6">
				<path fill="#FFFFFF" d="M30.4,134.5c-1.5-0.6-2.6-0.3-3.1-0.1l-0.1,0c0,0.1,0,0.2,0,0.3c0.3-0.1,1.4-0.7,3.2,0.1
					C30.4,134.6,30.4,134.6,30.4,134.5z"/>
			</g>
		</g>
		<g>
			<g>
				
					<radialGradient id="SVGID_18_" cx="59.0504" cy="-168.7479" r="5.1524" gradientTransform="matrix(0.9896 -0.1435 -0.1435 -0.9896 -57.6215 -25.4502)" gradientUnits="userSpaceOnUse">
					<stop  offset="0" style="stop-color:#004A9C"/>
					<stop  offset="1" style="stop-color:#003979"/>
				</radialGradient>
				<path fill="url(#SVGID_18_)" d="M27.7,127c-0.3-0.2-0.6-0.4-0.9-0.4c-0.5-0.1-1,0.1-1.4,0.5c-1.3,1.4-2.2,3.1-2.7,4.7
					c0,0.1-0.1,0.2-0.1,0.2c-0.4,1.3-0.6,2.5-0.8,3.5c0,0,0,0,0,0c0,0.1,0,0.2,0,0.2c-0.1,1.2-0.1,2.1-0.1,2.1
					c0,0.9,0.8,1.6,1.6,1.5c0.9,0,1.6-0.8,1.5-1.6c0,0,0-0.6,0.1-1.5l0-0.3c0.1-0.9,0.3-1.9,0.7-3.1c0-0.1,0-0.2,0.1-0.2
					c0.4-1.2,1.1-2.5,2-3.6C28.4,128.6,28.4,127.6,27.7,127z"/>
			</g>
			<g opacity="0.6">
				<path fill="#FFFFFF" d="M22,135.6c0.1,0,0.3-0.1,0.5-0.1c0.7-0.1,1.7-0.1,2.6,0.7l0,0.3c-1.2-1.1-2.8-0.7-3.1-0.6L22,135.6z"/>
				<path fill="none" d="M22,135.6C22,135.6,22,135.6,22,135.6L22,135.6"/>
			</g>
			<g opacity="0.6">
				<path fill="#FFFFFF" d="M25.8,132.8c-1.3-1-2.4-1.1-2.9-1l-0.1,0c0,0.1-0.1,0.2-0.1,0.2c0.3-0.1,1.5-0.3,3,0.9
					C25.8,133,25.8,132.9,25.8,132.8z"/>
			</g>
		</g>
		<g>
			<g>
				
					<radialGradient id="SVGID_19_" cx="194.3103" cy="83.5185" r="5.1524" gradientTransform="matrix(0.9563 0.2923 0.2923 -0.9563 -188.4074 152.001)" gradientUnits="userSpaceOnUse">
					<stop  offset="0" style="stop-color:#004A9C"/>
					<stop  offset="1" style="stop-color:#003979"/>
				</radialGradient>
				<path fill="url(#SVGID_19_)" d="M26.8,124.6c-0.1-0.3-0.3-0.6-0.6-0.7c-0.4-0.3-1-0.3-1.5-0.1c-1.8,0.7-3.3,1.9-4.5,3.1
					c-0.1,0.1-0.1,0.1-0.2,0.2c-0.9,1-1.6,2-2.2,2.8c0,0,0,0,0,0c0,0.1-0.1,0.1-0.1,0.2c-0.6,1.1-1,1.8-1,1.9
					c-0.3,0.8,0,1.7,0.8,2.1c0.8,0.3,1.7,0,2.1-0.8c0,0,0.2-0.5,0.7-1.3l0.1-0.2c0.5-0.7,1.1-1.6,1.9-2.5c0-0.1,0.1-0.1,0.2-0.2
					c0.9-0.9,2-1.8,3.4-2.3C26.8,126.4,27.2,125.4,26.8,124.6z"/>
			</g>
			<g opacity="0.6">
				<path fill="#FFFFFF" d="M18,129.9c0.1,0,0.3,0.1,0.5,0.1c0.6,0.2,1.6,0.7,2.1,1.7l-0.1,0.2c-0.6-1.5-2.2-1.8-2.6-1.9L18,129.9z"
					/>
				<path fill="none" d="M18,129.9C18,129.9,18,129.9,18,129.9L18,129.9"/>
			</g>
			<g opacity="0.6">
				<path fill="#FFFFFF" d="M22.6,129c-0.7-1.5-1.7-2-2.2-2.1l-0.1,0c-0.1,0.1-0.1,0.1-0.2,0.2c0.3,0.1,1.5,0.4,2.3,2.1
					C22.5,129.2,22.6,129.1,22.6,129z"/>
			</g>
		</g>
		
			<radialGradient id="SVGID_20_" cx="56.6015" cy="-179.7239" r="9.9386" gradientTransform="matrix(0.9871 -0.1603 -0.1603 -0.9871 -55.9335 -34.3434)" gradientUnits="userSpaceOnUse">
			<stop  offset="0" style="stop-color:#002855"/>
			<stop  offset="0.4671" style="stop-color:#002753"/>
			<stop  offset="0.7099" style="stop-color:#00234B"/>
			<stop  offset="0.9004" style="stop-color:#001D3E"/>
			<stop  offset="1" style="stop-color:#001833"/>
		</radialGradient>
		<path fill="url(#SVGID_20_)" d="M34.3,131.4c1.9-2.2,1.1-5.9-1.8-8.4s-6.7-2.7-8.6-0.6c-1.9,2.2-1.1,5.9,1.8,8.4
			S32.4,133.6,34.3,131.4z"/>
		<g>
			<radialGradient id="SVGID_21_" cx="50.4776" cy="99.7983" r="10.6239" gradientUnits="userSpaceOnUse">
				<stop  offset="0" style="stop-color:#003978"/>
				<stop  offset="1" style="stop-color:#002855"/>
			</radialGradient>
			<path fill="url(#SVGID_21_)" d="M60.4,101.5c-0.1,1.1-0.5,2.1-0.9,2.9c0,0.1-0.1,0.2-0.1,0.2c-0.2,0.3-0.3,0.6-0.5,0.8
				c-1.2-0.3-2.3-0.4-3.3-0.5c-0.8-0.1-1.5-0.1-2.1,0c-1.8,0.1-3.2,0.4-4.5,0.9c-2.4,1-3.9,2.5-5,3.8c-1.6,1.9-4.4,2.2-6.3,0.6
				c-1.9-1.6-2.2-4.4-0.6-6.3c1.6-2,3.5-3.6,5.5-4.9c0.7-0.5,1.5-0.9,2.3-1.2c2.5-1.1,5.2-1.8,8.1-1.9c0.7,0,1.4,0,2,0
				c0.9,0,1.9,0.1,2.8,0.2c0,0,0.8,0.1,1.9,0.3C60.3,97.7,60.7,99.5,60.4,101.5z"/>
		</g>
		<g>
			
				<linearGradient id="SVGID_22_" gradientUnits="userSpaceOnUse" x1="-68.7554" y1="-264.886" x2="-56.4833" y2="-282.8452" gradientTransform="matrix(0.9079 -0.4192 -0.4192 -0.9079 -20.4693 -163.2173)">
				<stop  offset="0" style="stop-color:#8BB2C5"/>
				<stop  offset="0.1547" style="stop-color:#9DBECE"/>
				<stop  offset="0.5233" style="stop-color:#C4D7E0"/>
				<stop  offset="0.818" style="stop-color:#DCE6EC"/>
				<stop  offset="1" style="stop-color:#E5ECF0"/>
			</linearGradient>
			<path fill="url(#SVGID_22_)" d="M41.3,99.3c-12.2,6.1-14.9,13.6-15.4,17.2c-0.2,1.3,0.2,2.6,1,3.6c1.3,1.5,3.7,3.7,7.8,5.2
				c1.7,0.6,3.6,0.1,4.8-1.2c1.6-1.7,3.8-4.6,5.1-9c0.9-3.4,3.1-6.6,4.1-8c0.3-0.5,0.4-1.1,0.2-1.7c-0.6-1.7-2.3-5.2-6.3-6.4
				C42.1,99.1,41.7,99.1,41.3,99.3z"/>
			<g>
				<path fill="#FFFFFF" d="M44.2,112.9c-0.1,0.2-0.2,0.5-0.4,0.9c-0.1,0.4-0.3,0.7-0.4,1.1l0,0c-0.2,0.3-0.6,0.5-0.9,0.3
					s-0.5-0.6-0.3-0.9c0,0,0-0.1,0-0.1c0.2-0.3,0.3-0.6,0.5-0.9c0.2-0.3,0.3-0.7,0.6-1c0.2-0.2,0.5-0.3,0.7-0.1
					C44.3,112.3,44.4,112.6,44.2,112.9L44.2,112.9z"/>
			</g>
			<g>
				<path fill="#FFFFFF" d="M38,121.4c0.3-0.3,0.6-0.7,0.9-1.1c0.3-0.4,0.5-0.8,0.8-1.2c0.5-0.8,1-1.6,1.4-2.5l0,0
					c0.2-0.3,0.5-0.4,0.8-0.3c0.3,0.1,0.4,0.5,0.3,0.7c-0.3,1-0.7,1.9-1.1,2.8c-0.2,0.5-0.4,0.9-0.7,1.3c-0.2,0.4-0.5,0.9-0.8,1.3
					c-0.3,0.5-0.9,0.6-1.4,0.3c-0.5-0.3-0.6-0.9-0.3-1.4C37.9,121.5,38,121.4,38,121.4L38,121.4z"/>
			</g>
		</g>
		
			<linearGradient id="SVGID_23_" gradientUnits="userSpaceOnUse" x1="62.0971" y1="87.9987" x2="65.4897" y2="87.9987" gradientTransform="matrix(0.9685 0.2489 -0.2489 0.9685 -10.7978 31.41)">
			<stop  offset="0" style="stop-color:#8BB2C5"/>
			<stop  offset="0.1547" style="stop-color:#9DBECE"/>
			<stop  offset="0.5233" style="stop-color:#C4D7E0"/>
			<stop  offset="0.818" style="stop-color:#DCE6EC"/>
			<stop  offset="1" style="stop-color:#E5ECF0"/>
		</linearGradient>
		<path fill="url(#SVGID_23_)" d="M30.7,132.9c-0.2,0.6-1,1-1.9,0.7c-0.9-0.2-1.5-0.9-1.3-1.6s1-1,1.9-0.7
			C30.3,131.6,30.9,132.3,30.7,132.9z"/>
		
			<linearGradient id="SVGID_24_" gradientUnits="userSpaceOnUse" x1="-163.974" y1="192.337" x2="-160.4945" y2="192.337" gradientTransform="matrix(0.6085 -0.8484 0.8126 0.5828 -23.5184 -119.0082)">
			<stop  offset="0" style="stop-color:#8BB2C5"/>
			<stop  offset="0.1547" style="stop-color:#9DBECE"/>
			<stop  offset="0.5233" style="stop-color:#C4D7E0"/>
			<stop  offset="0.818" style="stop-color:#DCE6EC"/>
			<stop  offset="1" style="stop-color:#E5ECF0"/>
		</linearGradient>
		<path fill="url(#SVGID_24_)" d="M35.1,129.3c0.5,0.4,0.5,1.4-0.1,2.2c-0.6,0.8-1.5,1.2-2.1,0.8c-0.5-0.4-0.5-1.4,0.1-2.2
			C33.7,129.2,34.6,128.9,35.1,129.3z"/>
		
			<linearGradient id="SVGID_25_" gradientUnits="userSpaceOnUse" x1="89.5466" y1="-34.8481" x2="92.9392" y2="-34.8481" gradientTransform="matrix(0.6896 0.7242 -0.7242 0.6896 -62.8514 88.1992)">
			<stop  offset="0" style="stop-color:#8BB2C5"/>
			<stop  offset="0.1547" style="stop-color:#9DBECE"/>
			<stop  offset="0.5233" style="stop-color:#C4D7E0"/>
			<stop  offset="0.818" style="stop-color:#DCE6EC"/>
			<stop  offset="1" style="stop-color:#E5ECF0"/>
		</linearGradient>
		<path fill="url(#SVGID_25_)" d="M26.5,131.5c-0.5,0.5-1.4,0.3-2-0.4s-0.8-1.6-0.3-2.1c0.5-0.5,1.4-0.3,2,0.4S27,131,26.5,131.5z"
			/>
		
			<linearGradient id="SVGID_26_" gradientUnits="userSpaceOnUse" x1="48.1552" y1="-153.5978" x2="51.5478" y2="-153.5978" gradientTransform="matrix(0.2035 0.9791 -0.9791 0.2035 -137.2818 108.938)">
			<stop  offset="0" style="stop-color:#8BB2C5"/>
			<stop  offset="0.1547" style="stop-color:#9DBECE"/>
			<stop  offset="0.5233" style="stop-color:#C4D7E0"/>
			<stop  offset="0.818" style="stop-color:#DCE6EC"/>
			<stop  offset="1" style="stop-color:#E5ECF0"/>
		</linearGradient>
		<path fill="url(#SVGID_26_)" d="M23.6,128.1c-0.6,0.1-1.3-0.5-1.5-1.4c-0.2-0.9,0.2-1.8,0.8-1.9s1.3,0.5,1.5,1.4
			C24.6,127.2,24.2,128,23.6,128.1z"/>
	</g>
</g>
<g id="Head">
	<g>
		<g>
			
				<radialGradient id="SVGID_27_" cx="-39.103" cy="-87.5311" r="9.9703" gradientTransform="matrix(0.9848 0.1736 -0.1912 1.0845 49.9371 134.2146)" gradientUnits="userSpaceOnUse">
				<stop  offset="0" style="stop-color:#002855"/>
				<stop  offset="0.4671" style="stop-color:#002753"/>
				<stop  offset="0.7099" style="stop-color:#00234B"/>
				<stop  offset="0.9004" style="stop-color:#001D3E"/>
				<stop  offset="1" style="stop-color:#001833"/>
			</radialGradient>
			<polygon fill="url(#SVGID_27_)" points="27.6,48 23.4,47.2 31,17.4 32.9,17.8 			"/>
			<g>
				
					<linearGradient id="SVGID_28_" gradientUnits="userSpaceOnUse" x1="-40.5998" y1="-138.3085" x2="-35.4445" y2="-146.8207" gradientTransform="matrix(0.9848 0.1736 -0.1736 0.9848 45.098 161.659)">
					<stop  offset="0" style="stop-color:#8BB2C5"/>
					<stop  offset="0.1599" style="stop-color:#A6C3D2"/>
					<stop  offset="0.3675" style="stop-color:#C1D5DF"/>
					<stop  offset="0.5769" style="stop-color:#D5E2E8"/>
					<stop  offset="0.7872" style="stop-color:#E1E9EE"/>
					<stop  offset="1" style="stop-color:#E5ECF0"/>
				</linearGradient>
				<path fill="url(#SVGID_28_)" d="M31.5,20.4L31.5,20.4c-1.8-0.3-3-2-2.7-3.8l0.9-5.2c0.3-1.8,2-3,3.8-2.7l0,0
					c1.8,0.3,3,2,2.7,3.8l-0.9,5.2C35,19.5,33.3,20.7,31.5,20.4z"/>
				<g>
					<path fill="#FFFFFF" d="M35,16.1l-0.2,1.5c0,0.2-0.3,0.4-0.5,0.4s-0.4-0.3-0.4-0.5c0,0,0,0,0,0l0.3-1.5c0-0.2,0.2-0.3,0.4-0.3
						C34.9,15.7,35,15.9,35,16.1z"/>
				</g>
				<g>
					<path fill="#FFFFFF" d="M34.9,10.3c0.5,0.5,0.8,1.2,0.7,2c0,0.4-0.1,0.7-0.1,1c0,0.3-0.1,0.6-0.2,1c0,0.2-0.3,0.4-0.5,0.3
						c-0.2,0-0.3-0.2-0.3-0.4c0-0.3,0.1-0.6,0.2-1l0.2-0.9c0.1-0.5,0-1.1-0.3-1.6c-0.1-0.1,0-0.2,0.1-0.3
						C34.8,10.2,34.9,10.2,34.9,10.3z"/>
				</g>
			</g>
			<g>
				
					<linearGradient id="SVGID_29_" gradientUnits="userSpaceOnUse" x1="-1214.085" y1="70.1142" x2="-1197.6458" y2="35.7709" gradientTransform="matrix(-0.9962 8.715574e-02 8.715574e-02 0.9962 -1084.2935 97.9748)">
					<stop  offset="0" style="stop-color:#8BB2C5"/>
					<stop  offset="0.1599" style="stop-color:#A6C3D2"/>
					<stop  offset="0.3675" style="stop-color:#C1D5DF"/>
					<stop  offset="0.5769" style="stop-color:#D5E2E8"/>
					<stop  offset="0.7872" style="stop-color:#E1E9EE"/>
					<stop  offset="1" style="stop-color:#E5ECF0"/>
				</linearGradient>
				<path fill="url(#SVGID_29_)" d="M114.9,51c0.7,8.3,5.5,14.7,10.7,14.2c5.2-0.5,8.8-7.6,8-15.9c-0.7-8.3-5.5-14.7-10.7-14.2
					C117.8,35.5,114.2,42.6,114.9,51z"/>
				
					<radialGradient id="SVGID_30_" cx="-1207.1246" cy="57.6935" r="12.825" gradientTransform="matrix(-0.9962 8.715574e-02 8.715574e-02 0.9962 -1084.2935 97.9748)" gradientUnits="userSpaceOnUse">
					<stop  offset="0" style="stop-color:#003978"/>
					<stop  offset="1" style="stop-color:#002855"/>
				</radialGradient>
				<path fill="url(#SVGID_30_)" d="M123.4,50.2c-0.6-6.5-2.7-12.2-6.2-17.1c3-0.2,5.8,1.2,7,3.5c2,4,3.2,8.5,3.6,13.2
					c0.4,4.7,0,9.3-1.3,13.6c-0.7,2.5-3.2,4.4-6.2,4.7C122.9,62.7,123.9,56.7,123.4,50.2z"/>
				<g>
					<path fill="#FFFFFF" d="M127.1,37.5c0.4,0.3,0.6,0.6,0.9,0.9c0.3,0.3,0.6,0.6,0.8,1c0.5,0.7,1,1.4,1.5,2.1l0,0
						c0.3,0.5,0.1,1.1-0.3,1.4c-0.5,0.3-1.1,0.1-1.4-0.3c0,0-0.1-0.1-0.1-0.2c-0.3-0.7-0.6-1.4-1-2.1c-0.2-0.3-0.4-0.7-0.6-1
						c-0.2-0.3-0.4-0.7-0.7-0.9l0,0c-0.2-0.3-0.2-0.6,0.1-0.8C126.6,37.3,126.9,37.3,127.1,37.5z"/>
				</g>
				
					<linearGradient id="SVGID_31_" gradientUnits="userSpaceOnUse" x1="28.1841" y1="70.1142" x2="44.6233" y2="35.7709" gradientTransform="matrix(0.9962 -8.715574e-02 8.715574e-02 0.9962 -12.4384 4.1997)">
					<stop  offset="0" style="stop-color:#8BB2C5"/>
					<stop  offset="0.1599" style="stop-color:#A6C3D2"/>
					<stop  offset="0.3675" style="stop-color:#C1D5DF"/>
					<stop  offset="0.5769" style="stop-color:#D5E2E8"/>
					<stop  offset="0.7872" style="stop-color:#E1E9EE"/>
					<stop  offset="1" style="stop-color:#E5ECF0"/>
				</linearGradient>
				<path fill="url(#SVGID_31_)" d="M35.9,57.9c0.7,8.3-2.9,15.4-8,15.9S18,67.8,17.2,59.5s2.9-15.4,8-15.9S35.2,49.6,35.9,57.9z"/>
				
					<radialGradient id="SVGID_32_" cx="35.1444" cy="57.6935" r="12.825" gradientTransform="matrix(0.9962 -8.715574e-02 8.715574e-02 0.9962 -12.4384 4.1997)" gradientUnits="userSpaceOnUse">
					<stop  offset="0" style="stop-color:#003978"/>
					<stop  offset="1" style="stop-color:#002855"/>
				</radialGradient>
				<path fill="url(#SVGID_32_)" d="M27.5,58.6c-0.6-6.5,0.5-12.5,3.1-17.9c-3,0.3-5.5,2.2-6.2,4.7c-1.2,4.3-1.7,8.9-1.3,13.6
					c0.4,4.7,1.6,9.1,3.6,13.2c1.1,2.3,3.9,3.8,7,3.5C30.2,70.9,28.1,65.1,27.5,58.6z"/>
				<g>
					<path fill="#FFFFFF" d="M22.5,47.4c-0.2,0.3-0.3,0.7-0.5,1c-0.2,0.4-0.3,0.7-0.4,1.1c-0.3,0.7-0.5,1.5-0.6,2.3
						c-0.1,0.5-0.6,0.9-1.2,0.8c-0.5-0.1-0.9-0.6-0.8-1.2c0-0.1,0-0.1,0-0.2l0,0c0.3-0.8,0.7-1.6,1.1-2.3c0.2-0.4,0.4-0.7,0.7-1.1
						c0.2-0.4,0.5-0.7,0.8-1.1c0.2-0.3,0.6-0.3,0.8-0.1C22.6,46.8,22.7,47.1,22.5,47.4L22.5,47.4z"/>
				</g>
			</g>
			
				<radialGradient id="SVGID_33_" cx="84.0869" cy="47.5044" r="54.833" gradientTransform="matrix(0.9063 0.4226 -0.3973 0.8519 18.1318 -31.8124)" gradientUnits="userSpaceOnUse">
				<stop  offset="0" style="stop-color:#E5ECF0"/>
				<stop  offset="0.3988" style="stop-color:#E3EBEF"/>
				<stop  offset="0.5758" style="stop-color:#DCE6EC"/>
				<stop  offset="0.7091" style="stop-color:#CFDEE5"/>
				<stop  offset="0.8203" style="stop-color:#BDD2DD"/>
				<stop  offset="0.9168" style="stop-color:#A6C3D2"/>
				<stop  offset="1" style="stop-color:#8BB2C5"/>
			</radialGradient>
			<path fill="url(#SVGID_33_)" d="M78.7,91.7c-13.1,1.1-24.7-0.6-33.5-5.1C34,81,27.3,71.1,26.2,58.7C25.2,46.4,30.1,35.5,40,28
				c7.9-6,19-9.7,32.1-10.9s24.7,0.6,33.5,5.1c11.1,5.6,17.8,15.6,18.9,27.9c1.1,12.3-3.8,23.3-13.8,30.8
				C102.9,86.8,91.8,90.6,78.7,91.7z"/>
			<polygon fill="#A2CFE5" points="74.4,19.9 75.2,19.8 75.1,19.1 73.8,19.2 72.5,22.2 71.7,22.3 71.4,19.4 69.1,19.6 69.2,20.3 
				70.1,20.3 70.6,26.6 72.1,26.5 71.8,23.1 72.3,23 74.5,26.3 76.3,26.1 73.5,22 			"/>
			<g>
				<path fill="#FFFFFF" d="M87.3,20.1c5.8,0.8,11.6,2.4,16.8,5.3c0.4,0.2,0.6,0.8,0.4,1.2c-0.2,0.4-0.8,0.6-1.2,0.4l0,0
					c-5.1-2.4-10.7-3.5-16.3-3.9c-0.8-0.1-1.4-0.8-1.4-1.6c0.1-0.8,0.8-1.4,1.6-1.4C87.2,20.1,87.3,20.1,87.3,20.1z"/>
			</g>
			<g>
				<path fill="#FFFFFF" d="M109.5,28.8l2,1.3c0.5,0.4,0.7,1.1,0.3,1.6c-0.4,0.5-1.1,0.7-1.6,0.3c-0.1,0-0.1-0.1-0.2-0.2l-0.1-0.1
					l-1.6-1.6l-0.1-0.1c-0.3-0.4-0.3-0.9,0-1.3C108.7,28.6,109.2,28.5,109.5,28.8z"/>
			</g>
		</g>
		
			<linearGradient id="SVGID_34_" gradientUnits="userSpaceOnUse" x1="83.1598" y1="83.622" x2="83.1598" y2="31.7654" gradientTransform="matrix(0.9962 -8.715574e-02 8.715574e-02 0.9962 -12.4384 4.1997)">
			<stop  offset="0" style="stop-color:#04070A"/>
			<stop  offset="1" style="stop-color:#102B41"/>
		</linearGradient>
		<path fill="url(#SVGID_34_)" d="M106.6,67.9c3.5-4.3,5.3-9.9,4.7-16.6C109.7,33.2,93,26.9,73.2,28.6c-19.8,1.7-35.2,10.9-33.6,29
			S57.9,82,77.7,80.3c6.2-0.5,12-1.8,17-3.9l10.6,1.5L106.6,67.9z"/>
	</g>
</g>
<g id="Face">
	<g>
		<g id="eyes2">
			<g>
				
					<rect x="62.7" y="45" transform="matrix(0.9962 -8.715574e-02 8.715574e-02 0.9962 -3.7429 5.6999)" fill="#00CCFF" width="1.5" height="1.5"/>
				
					<rect x="64.1" y="44.8" transform="matrix(0.9962 -8.715574e-02 8.715574e-02 0.9962 -3.7259 5.8294)" fill="#00CCFF" width="1.5" height="1.5"/>
				
					<rect x="65.6" y="44.7" transform="matrix(0.9962 -8.715574e-02 8.715574e-02 0.9962 -3.7088 5.9588)" fill="#00CCFF" width="1.5" height="1.5"/>
				
					<rect x="67.1" y="44.6" transform="matrix(0.9962 -8.715574e-02 8.715574e-02 0.9962 -3.6918 6.0883)" fill="#00CCFF" width="1.5" height="1.5"/>
				
					<rect x="62.8" y="46.5" transform="matrix(0.9962 -8.715574e-02 8.715574e-02 0.9962 -3.8724 5.717)" fill="#00CCFF" width="1.5" height="1.5"/>
				
					<rect x="64.3" y="46.3" transform="matrix(0.9962 -8.715574e-02 8.715574e-02 0.9962 -3.8553 5.8464)" fill="#00CCFF" width="1.5" height="1.5"/>
				
					<rect x="65.8" y="46.2" transform="matrix(0.9962 -8.715574e-02 8.715574e-02 0.9962 -3.8383 5.9759)" fill="#00CCFF" width="1.5" height="1.5"/>
				
					<rect x="67.3" y="46.1" transform="matrix(0.9962 -8.715574e-02 8.715574e-02 0.9962 -3.8212 6.1053)" fill="#00CCFF" width="1.5" height="1.5"/>
			</g>
			
				<rect x="59.7" y="45.2" transform="matrix(0.9962 -8.715574e-02 8.715574e-02 0.9962 -3.777 5.4411)" fill="#00CCFF" width="1.5" height="1.5"/>
			
				<rect x="61.2" y="45.1" transform="matrix(0.9962 -8.715574e-02 8.715574e-02 0.9962 -3.76 5.5705)" fill="#00CCFF" width="1.5" height="1.5"/>
			
				<rect x="68.6" y="44.4" transform="matrix(0.9962 -8.715574e-02 8.715574e-02 0.9962 -3.6747 6.2177)" fill="#00CCFF" width="1.5" height="1.5"/>
			
				<rect x="70.1" y="44.3" transform="matrix(0.9962 -8.715574e-02 8.715574e-02 0.9962 -3.6577 6.3472)" fill="#00CCFF" width="1.5" height="1.5"/>
			
				<rect x="59.8" y="46.7" transform="matrix(0.9962 -8.715574e-02 8.715574e-02 0.9962 -3.9064 5.4581)" fill="#00CCFF" width="1.5" height="1.5"/>
			
				<rect x="61.3" y="46.6" transform="matrix(0.9962 -8.715574e-02 8.715574e-02 0.9962 -3.8894 5.5875)" fill="#00CCFF" width="1.5" height="1.5"/>
			
				<rect x="68.7" y="45.9" transform="matrix(0.9962 -8.715574e-02 8.715574e-02 0.9962 -3.8042 6.2348)" fill="#00CCFF" width="1.5" height="1.5"/>
			
				<rect x="70.2" y="45.8" transform="matrix(0.9962 -8.715574e-02 8.715574e-02 0.9962 -3.7871 6.3642)" fill="#00CCFF" width="1.5" height="1.5"/>
			<g>
				
					<rect x="80.5" y="43.4" transform="matrix(0.9962 -8.715574e-02 8.715574e-02 0.9962 -3.5384 7.2533)" fill="#00CCFF" width="1.5" height="1.5"/>
				
					<rect x="82" y="43.3" transform="matrix(0.9962 -8.715574e-02 8.715574e-02 0.9962 -3.5214 7.3827)" fill="#00CCFF" width="1.5" height="1.5"/>
				
					<rect x="83.5" y="43.1" transform="matrix(0.9962 -8.715574e-02 8.715574e-02 0.9962 -3.5043 7.5122)" fill="#00CCFF" width="1.5" height="1.5"/>
				
					<rect x="85" y="43" transform="matrix(0.9962 -8.715574e-02 8.715574e-02 0.9962 -3.4873 7.6416)" fill="#00CCFF" width="1.5" height="1.5"/>
				
					<rect x="80.7" y="44.9" transform="matrix(0.9962 -8.715574e-02 8.715574e-02 0.9962 -3.6679 7.2703)" fill="#00CCFF" width="1.5" height="1.5"/>
				
					<rect x="82.2" y="44.8" transform="matrix(0.9962 -8.715574e-02 8.715574e-02 0.9962 -3.6508 7.3998)" fill="#00CCFF" width="1.5" height="1.5"/>
				
					<rect x="83.7" y="44.6" transform="matrix(0.9962 -8.715574e-02 8.715574e-02 0.9962 -3.6338 7.5292)" fill="#00CCFF" width="1.5" height="1.5"/>
				
					<rect x="85.1" y="44.5" transform="matrix(0.9962 -8.715574e-02 8.715574e-02 0.9962 -3.6167 7.6587)" fill="#00CCFF" width="1.5" height="1.5"/>
			</g>
			
				<rect x="86.5" y="42.9" transform="matrix(0.9962 -8.715574e-02 8.715574e-02 0.9962 -3.4702 7.7711)" fill="#00CCFF" width="1.5" height="1.5"/>
			
				<rect x="88" y="42.7" transform="matrix(0.9962 -8.715574e-02 8.715574e-02 0.9962 -3.4532 7.9005)" fill="#00CCFF" width="1.5" height="1.5"/>
			<g>
				
					<rect x="77.6" y="43.7" transform="matrix(0.9962 -8.715574e-02 8.715574e-02 0.9962 -3.5725 6.9944)" fill="#00CCFF" width="1.5" height="1.5"/>
				
					<rect x="79.1" y="43.5" transform="matrix(0.9962 -8.715574e-02 8.715574e-02 0.9962 -3.5555 7.1238)" fill="#00CCFF" width="1.5" height="1.5"/>
				
					<rect x="77.7" y="45.2" transform="matrix(0.9962 -8.715574e-02 8.715574e-02 0.9962 -3.7019 7.0114)" fill="#00CCFF" width="1.5" height="1.5"/>
				
					<rect x="79.2" y="45" transform="matrix(0.9962 -8.715574e-02 8.715574e-02 0.9962 -3.6849 7.1409)" fill="#00CCFF" width="1.5" height="1.5"/>
			</g>
			
				<rect x="86.6" y="44.4" transform="matrix(0.9962 -8.715574e-02 8.715574e-02 0.9962 -3.5997 7.7881)" fill="#00CCFF" width="1.5" height="1.5"/>
			
				<rect x="88.1" y="44.2" transform="matrix(0.9962 -8.715574e-02 8.715574e-02 0.9962 -3.5826 7.9175)" fill="#00CCFF" width="1.5" height="1.5"/>
		</g>
		<g>
			
				<rect x="86.7" y="62.4" transform="matrix(-0.9962 8.715574e-02 -8.715574e-02 -0.9962 180.0959 118.414)" fill="#00CCFF" width="1.5" height="1.5"/>
			
				<rect x="85.2" y="62.5" transform="matrix(-0.9962 8.715574e-02 -8.715574e-02 -0.9962 177.1311 118.8043)" fill="#00CCFF" width="1.5" height="1.5"/>
			
				<rect x="86.6" y="60.9" transform="matrix(-0.9962 8.715574e-02 -8.715574e-02 -0.9962 179.7056 115.4492)" fill="#00CCFF" width="1.5" height="1.5"/>
			
				<rect x="85.1" y="61" transform="matrix(-0.9962 8.715574e-02 -8.715574e-02 -0.9962 176.7408 115.8395)" fill="#00CCFF" width="1.5" height="1.5"/>
			
				<rect x="83.5" y="59.7" transform="matrix(-0.9962 8.715574e-02 -8.715574e-02 -0.9962 173.3857 113.2651)" fill="#00CCFF" width="1.5" height="1.5"/>
			
				<rect x="82" y="59.8" transform="matrix(-0.9962 8.715574e-02 -8.715574e-02 -0.9962 170.4209 113.6554)" fill="#00CCFF" width="1.5" height="1.5"/>
			
				<rect x="80.5" y="59.9" transform="matrix(-0.9962 8.715574e-02 -8.715574e-02 -0.9962 167.4562 114.0457)" fill="#00CCFF" width="1.5" height="1.5"/>
			
				<rect x="79" y="60.1" transform="matrix(-0.9962 8.715574e-02 -8.715574e-02 -0.9962 164.4914 114.436)" fill="#00CCFF" width="1.5" height="1.5"/>
			
				<rect x="64.4" y="64.3" transform="matrix(0.9962 -8.715574e-02 8.715574e-02 0.9962 -5.4257 5.9215)" fill="#00CCFF" width="1.5" height="1.5"/>
			
				<rect x="65.8" y="64.2" transform="matrix(0.9962 -8.715574e-02 8.715574e-02 0.9962 -5.4086 6.0509)" fill="#00CCFF" width="1.5" height="1.5"/>
			
				<rect x="64.2" y="62.9" transform="matrix(0.9962 -8.715574e-02 8.715574e-02 0.9962 -5.2962 5.9044)" fill="#00CCFF" width="1.5" height="1.5"/>
			
				<rect x="65.7" y="62.7" transform="matrix(0.9962 -8.715574e-02 8.715574e-02 0.9962 -5.2792 6.0339)" fill="#00CCFF" width="1.5" height="1.5"/>
			
				<rect x="73" y="60.6" transform="matrix(0.9962 -8.715574e-02 8.715574e-02 0.9962 -5.0646 6.6641)" fill="#00CCFF" width="1.5" height="1.5"/>
			
				<rect x="74.5" y="60.5" transform="matrix(0.9962 -8.715574e-02 8.715574e-02 0.9962 -5.0475 6.7935)" fill="#00CCFF" width="1.5" height="1.5"/>
			
				<rect x="76" y="60.3" transform="matrix(0.9962 -8.715574e-02 8.715574e-02 0.9962 -5.0305 6.923)" fill="#00CCFF" width="1.5" height="1.5"/>
			
				<rect x="77.5" y="60.2" transform="matrix(0.9962 -8.715574e-02 8.715574e-02 0.9962 -5.0134 7.0524)" fill="#00CCFF" width="1.5" height="1.5"/>
			
				<rect x="83.3" y="58.2" transform="matrix(-0.9962 8.715574e-02 -8.715574e-02 -0.9962 172.9954 110.3003)" fill="#00CCFF" width="1.5" height="1.5"/>
			
				<rect x="81.9" y="58.3" transform="matrix(-0.9962 8.715574e-02 -8.715574e-02 -0.9962 170.0306 110.6906)" fill="#00CCFF" width="1.5" height="1.5"/>
			
				<rect x="80.4" y="58.4" transform="matrix(-0.9962 8.715574e-02 -8.715574e-02 -0.9962 167.0658 111.0809)" fill="#00CCFF" width="1.5" height="1.5"/>
			
				<rect x="78.9" y="58.6" transform="matrix(-0.9962 8.715574e-02 -8.715574e-02 -0.9962 164.1011 111.4713)" fill="#00CCFF" width="1.5" height="1.5"/>
			
				<rect x="72.9" y="59.1" transform="matrix(0.9962 -8.715574e-02 8.715574e-02 0.9962 -4.9351 6.647)" fill="#00CCFF" width="1.5" height="1.5"/>
			
				<rect x="74.4" y="59" transform="matrix(0.9962 -8.715574e-02 8.715574e-02 0.9962 -4.9181 6.7765)" fill="#00CCFF" width="1.5" height="1.5"/>
			
				<rect x="75.9" y="58.8" transform="matrix(0.9962 -8.715574e-02 8.715574e-02 0.9962 -4.901 6.9059)" fill="#00CCFF" width="1.5" height="1.5"/>
			
				<rect x="77.4" y="58.7" transform="matrix(0.9962 -8.715574e-02 8.715574e-02 0.9962 -4.884 7.0354)" fill="#00CCFF" width="1.5" height="1.5"/>
			<g>
				
					<rect x="67.1" y="61.1" transform="matrix(0.9962 -8.715574e-02 8.715574e-02 0.9962 -5.1327 6.1463)" fill="#00CCFF" width="1.5" height="1.5"/>
				
					<rect x="68.6" y="61" transform="matrix(0.9962 -8.715574e-02 8.715574e-02 0.9962 -5.1157 6.2757)" fill="#00CCFF" width="1.5" height="1.5"/>
				
					<rect x="70.1" y="60.8" transform="matrix(0.9962 -8.715574e-02 8.715574e-02 0.9962 -5.0986 6.4052)" fill="#00CCFF" width="1.5" height="1.5"/>
				
					<rect x="71.5" y="60.7" transform="matrix(0.9962 -8.715574e-02 8.715574e-02 0.9962 -5.0816 6.5346)" fill="#00CCFF" width="1.5" height="1.5"/>
				
					<rect x="66.9" y="59.6" transform="matrix(0.9962 -8.715574e-02 8.715574e-02 0.9962 -5.0033 6.1293)" fill="#00CCFF" width="1.5" height="1.5"/>
				
					<rect x="68.4" y="59.5" transform="matrix(0.9962 -8.715574e-02 8.715574e-02 0.9962 -4.9862 6.2587)" fill="#00CCFF" width="1.5" height="1.5"/>
				
					<rect x="69.9" y="59.4" transform="matrix(0.9962 -8.715574e-02 8.715574e-02 0.9962 -4.9692 6.3881)" fill="#00CCFF" width="1.5" height="1.5"/>
				
					<rect x="71.4" y="59.2" transform="matrix(0.9962 -8.715574e-02 8.715574e-02 0.9962 -4.9521 6.5176)" fill="#00CCFF" width="1.5" height="1.5"/>
			</g>
		</g>
	</g>
</g>
</svg>
