<?xml version="1.0" encoding="utf-8"?>
<!-- Generator: Adobe Illustrator 22.0.0, SVG Export Plug-In . SVG Version: 6.00 Build 0)  -->
<svg version="1.1" xmlns="http://www.w3.org/2000/svg" xmlns:xlink="http://www.w3.org/1999/xlink" x="0px" y="0px"
	 viewBox="0 0 150 150" enable-background="new 0 0 150 150" xml:space="preserve">
<g id="BG">
	<radialGradient id="SVGID_1_" cx="72.8693" cy="129.8391" r="102.8698" gradientUnits="userSpaceOnUse">
		<stop  offset="0" style="stop-color:#0095BB"/>
		<stop  offset="1" style="stop-color:#00CCFF"/>
	</radialGradient>
	<circle fill="url(#SVGID_1_)" cx="75" cy="75" r="60"/>
</g>
<g id="Left_Arm">
	<g>
		<g>
			<g>
				<g>
					
						<radialGradient id="SVGID_2_" cx="-1081.1439" cy="79.3362" r="5.1524" gradientTransform="matrix(-1 0 0 1 -948.9401 0)" gradientUnits="userSpaceOnUse">
						<stop  offset="0" style="stop-color:#004A9C"/>
						<stop  offset="1" style="stop-color:#003979"/>
					</radialGradient>
					<path fill="url(#SVGID_2_)" d="M128.7,84.9c0.2,0.3,0.5,0.4,0.8,0.5c0.5,0.1,1,0,1.4-0.3c1.5-1.2,2.6-2.8,3.4-4.3
						c0-0.1,0.1-0.2,0.1-0.2c0.6-1.2,1-2.4,1.2-3.3c0,0,0,0,0,0c0-0.1,0-0.2,0.1-0.2c0.3-1.2,0.4-2,0.4-2.1c0.1-0.9-0.5-1.7-1.4-1.7
						c-0.9-0.1-1.6,0.5-1.7,1.4c0,0-0.1,0.6-0.3,1.4l-0.1,0.3c-0.2,0.8-0.6,1.9-1.1,3c0,0.1-0.1,0.1-0.1,0.2
						c-0.6,1.1-1.4,2.3-2.5,3.2C128.2,83.2,128.1,84.2,128.7,84.9z"/>
				</g>
				<g opacity="0.6">
					<path fill="#FFFFFF" d="M135.6,77.3c-0.1,0-0.3,0-0.5,0c-0.7,0-1.7-0.2-2.5-1l0.1-0.3c1,1.3,2.7,1.1,3,1L135.6,77.3z"/>
					<path fill="none" d="M135.6,77.3C135.6,77.3,135.6,77.3,135.6,77.3L135.6,77.3"/>
				</g>
				<g opacity="0.6">
					<path fill="#FFFFFF" d="M131.4,79.5c1.1,1.2,2.2,1.4,2.7,1.4h0.1c0-0.1,0.1-0.2,0.1-0.2c-0.3,0-1.6,0.1-2.9-1.4
						C131.5,79.3,131.4,79.4,131.4,79.5z"/>
				</g>
			</g>
			<g>
				<g>
					
						<radialGradient id="SVGID_3_" cx="-1013.4724" cy="-52.5373" r="5.1524" gradientTransform="matrix(-0.9587 -0.2845 -0.2845 0.9587 -850.8442 -155.0297)" gradientUnits="userSpaceOnUse">
						<stop  offset="0" style="stop-color:#004A9C"/>
						<stop  offset="1" style="stop-color:#003979"/>
					</radialGradient>
					<path fill="url(#SVGID_3_)" d="M130.7,87.3c0.1,0.3,0.3,0.6,0.6,0.7c0.4,0.3,1,0.3,1.5,0.1c1.8-0.8,3.3-1.9,4.4-3.2
						c0.1-0.1,0.1-0.1,0.2-0.2c0.9-1,1.6-2,2.1-2.8c0,0,0,0,0,0c0-0.1,0.1-0.1,0.1-0.2c0.6-1.1,1-1.8,1-1.9c0.3-0.8,0-1.7-0.9-2.1
						c-0.8-0.3-1.7,0-2.1,0.8c0,0-0.2,0.5-0.7,1.3l-0.1,0.2c-0.5,0.7-1.1,1.6-1.9,2.5c0,0.1-0.1,0.1-0.2,0.2c-0.9,0.9-2,1.8-3.3,2.4
						C130.7,85.6,130.4,86.5,130.7,87.3z"/>
				</g>
				<g opacity="0.6">
					<path fill="#FFFFFF" d="M139.5,82c-0.1,0-0.3-0.1-0.5-0.1c-0.6-0.2-1.6-0.7-2.1-1.7l0.1-0.2c0.6,1.5,2.2,1.8,2.6,1.8L139.5,82z
						"/>
					<path fill="none" d="M139.5,82C139.5,82,139.5,82,139.5,82L139.5,82"/>
				</g>
				<g opacity="0.6">
					<path fill="#FFFFFF" d="M134.9,82.9c0.7,1.5,1.7,2,2.2,2.1l0.1,0c0.1-0.1,0.1-0.1,0.2-0.2c-0.3-0.1-1.5-0.4-2.3-2.1
						C135,82.8,134.9,82.8,134.9,82.9z"/>
				</g>
			</g>
			<g>
				<g>
					
						<radialGradient id="SVGID_4_" cx="-840.6052" cy="-200.6041" r="5.1524" gradientTransform="matrix(-0.7457 -0.6663 -0.6663 0.7457 -623.6447 -322.388)" gradientUnits="userSpaceOnUse">
						<stop  offset="0" style="stop-color:#004A9C"/>
						<stop  offset="1" style="stop-color:#003979"/>
					</radialGradient>
					<path fill="url(#SVGID_4_)" d="M130.5,89.9c0,0.3,0.1,0.7,0.2,0.9c0.3,0.4,0.7,0.7,1.3,0.7c2,0.1,3.8-0.3,5.4-1
						c0.1,0,0.2-0.1,0.2-0.1c1.2-0.5,2.3-1.1,3.2-1.7c0,0,0,0,0,0c0.1,0,0.1-0.1,0.2-0.1c1-0.7,1.6-1.2,1.7-1.3
						c0.6-0.6,0.7-1.6,0.1-2.2c-0.6-0.6-1.6-0.7-2.2-0.1c0,0-0.4,0.4-1.2,0.9l-0.2,0.2c-0.7,0.5-1.7,1-2.8,1.5
						c-0.1,0-0.1,0.1-0.2,0.1c-1.2,0.5-2.6,0.8-4,0.7C131.3,88.3,130.5,89,130.5,89.9z"/>
				</g>
				<g opacity="0.6">
					<path fill="#FFFFFF" d="M140.8,88.8c-0.1-0.1-0.2-0.2-0.4-0.3c-0.5-0.4-1.2-1.3-1.2-2.4l0.2-0.2c-0.1,1.6,1.3,2.6,1.6,2.8
						L140.8,88.8z"/>
					<path fill="none" d="M140.8,88.8C140.8,88.8,140.8,88.8,140.8,88.8L140.8,88.8"/>
				</g>
				<g opacity="0.6">
					<path fill="#FFFFFF" d="M136.2,87.7c0,1.6,0.7,2.5,1.1,2.9l0.1,0.1c0.1,0,0.2-0.1,0.2-0.1c-0.2-0.2-1.2-1-1.2-2.9
						C136.3,87.6,136.3,87.6,136.2,87.7z"/>
				</g>
			</g>
			
				<radialGradient id="SVGID_5_" cx="-1013.8134" cy="-48.0138" r="9.9386" gradientTransform="matrix(-0.9634 -0.2682 -0.2682 0.9634 -856.8568 -145.0485)" gradientUnits="userSpaceOnUse">
				<stop  offset="0" style="stop-color:#002855"/>
				<stop  offset="0.4671" style="stop-color:#002753"/>
				<stop  offset="0.7099" style="stop-color:#00234B"/>
				<stop  offset="0.9004" style="stop-color:#001D3E"/>
				<stop  offset="1" style="stop-color:#001833"/>
			</radialGradient>
			<path fill="url(#SVGID_5_)" d="M126.6,80.6c-2.6,1.2-3.5,4.9-1.9,8.4s4.9,5.3,7.6,4.1s3.5-4.9,1.9-8.4S129.2,79.4,126.6,80.6z"/>
			<g>
				<g>
					
						<radialGradient id="SVGID_6_" cx="-1076.1265" cy="80.5542" r="4.1175" gradientTransform="matrix(-1 0 0 1 -948.9401 0)" gradientUnits="userSpaceOnUse">
						<stop  offset="0" style="stop-color:#004A9C"/>
						<stop  offset="1" style="stop-color:#003979"/>
					</radialGradient>
					<path fill="url(#SVGID_6_)" d="M124.8,81.6c0,0.9,0.1,1.9,0.4,3c0.1,0.6,0.6,1,1.1,1.2c0.3,0.1,0.5,0.1,0.8,0
						c0.8-0.2,1.4-1.1,1.2-1.9c-0.1-0.6-0.2-1.1-0.3-1.7c0-0.1,0-0.2,0-0.2c-0.1-1.1,0.1-2.1,0.5-2.9l0.1-0.2
						c0.2-0.4,0.4-0.7,0.7-1.1c0.5-0.7,0.4-1.7-0.2-2.2c-0.7-0.5-1.7-0.4-2.2,0.2c-0.4,0.6-0.9,1.3-1.3,2.1l-0.1,0.2
						c-0.3,0.9-0.6,1.9-0.6,3.2C124.8,81.4,124.8,81.5,124.8,81.6z"/>
				</g>
				<g opacity="0.6">
					<path fill="#FFFFFF" d="M125.5,77.9c1.4,0.9,2.6,1,3.1,0.9l-0.1,0.2c0,0,0,0-0.1,0c-0.6,0-1.7-0.1-3-1L125.5,77.9z"/>
				</g>
				<g opacity="0.6">
					<path fill="#FFFFFF" d="M124.8,81.6c0.7,0.5,1.6,0.7,2.4,0.7c0.4,0,0.6,0,0.8-0.1c0-0.1,0-0.2,0-0.2c-0.6,0.1-2.3,0.2-3.2-0.7
						C124.8,81.4,124.8,81.5,124.8,81.6z"/>
				</g>
			</g>
		</g>
		<g>
			
				<radialGradient id="SVGID_7_" cx="-1048.9359" cy="96.4049" r="10.1615" gradientTransform="matrix(-1 0 0 1 -948.9401 0)" gradientUnits="userSpaceOnUse">
				<stop  offset="0" style="stop-color:#003978"/>
				<stop  offset="1" style="stop-color:#002855"/>
			</radialGradient>
			<path fill="url(#SVGID_7_)" d="M89.6,99.6c0.1,1.1,0.4,2.1,0.9,2.9c0,0.1,0.1,0.2,0.1,0.2c1.4,0.9,2.9,1.6,4.3,2.2
				c2.7,1.1,5.5,1.6,8.2,1.6c3.2,0,6.4-0.8,9.6-2.3c2.2-1.1,3.2-3.7,2.1-6c-1.1-2.2-3.7-3.2-6-2.1c-2.8,1.3-6.9,2.5-12.6-0.6
				c-1.2-0.6-2.4-1.5-3.8-2.6c0,0-0.1-0.1-0.1-0.1c-0.4,0.1-0.7,0.2-1,0.5C90,94.6,89.3,97,89.6,99.6z"/>
		</g>
		<g>
			
				<linearGradient id="SVGID_8_" gradientUnits="userSpaceOnUse" x1="-1070.4928" y1="106.1678" x2="-1058.2206" y2="88.2085" gradientTransform="matrix(-1 0 0 1 -948.9401 0)">
				<stop  offset="0" style="stop-color:#8BB2C5"/>
				<stop  offset="0.1547" style="stop-color:#9DBECE"/>
				<stop  offset="0.5233" style="stop-color:#C4D7E0"/>
				<stop  offset="0.818" style="stop-color:#DCE6EC"/>
				<stop  offset="1" style="stop-color:#E5ECF0"/>
			</linearGradient>
			<path fill="url(#SVGID_8_)" d="M106.8,106.8c13.7-0.4,19.2-6.1,21.2-9.1c0.7-1.1,0.9-2.5,0.6-3.7c-0.5-1.9-1.8-5-4.9-8
				c-1.3-1.3-3.2-1.6-4.8-1c-2.2,0.9-5.4,2.6-8.4,6c-2.3,2.7-5.5,4.7-7,5.5c-0.5,0.3-0.9,0.8-0.9,1.4c-0.1,1.8,0,5.7,3,8.4
				C105.9,106.7,106.3,106.8,106.8,106.8z"/>
			<g>
				<path fill="#FFFFFF" d="M109.8,93.3c0.2-0.2,0.4-0.4,0.7-0.7c0.3-0.3,0.6-0.6,0.9-0.8l0,0c0.3-0.2,0.7-0.2,1,0.1s0.2,0.7-0.1,1
					c0,0-0.1,0-0.1,0.1c-0.3,0.2-0.6,0.4-0.8,0.6c-0.3,0.2-0.6,0.5-1,0.7c-0.3,0.1-0.6,0-0.7-0.2C109.5,93.7,109.6,93.4,109.8,93.3
					L109.8,93.3z"/>
			</g>
			<g>
				<path fill="#FFFFFF" d="M119,88.1c-0.4,0.2-0.8,0.4-1.2,0.6c-0.4,0.2-0.8,0.5-1.2,0.7c-0.8,0.5-1.6,1-2.3,1.6l0,0
					c-0.3,0.2-0.7,0.2-0.9-0.1c-0.2-0.2-0.2-0.6,0-0.8c0.7-0.7,1.4-1.4,2.2-2c0.4-0.3,0.8-0.6,1.2-0.9c0.4-0.3,0.8-0.6,1.3-0.9
					c0.5-0.3,1.1-0.2,1.4,0.3c0.3,0.5,0.2,1.1-0.3,1.4C119.1,88.1,119.1,88.1,119,88.1L119,88.1z"/>
			</g>
		</g>
	</g>
</g>
<g id="Body">
	<g>
		<defs>
			<circle id="SVGID_201_" cx="75" cy="75" r="60"/>
		</defs>
		<clipPath id="SVGID_9_">
			<use xlink:href="#SVGID_201_"  overflow="visible"/>
		</clipPath>
		<g clip-path="url(#SVGID_9_)">
			<radialGradient id="SVGID_10_" cx="84.4376" cy="98.8531" r="40.314" gradientUnits="userSpaceOnUse">
				<stop  offset="0" style="stop-color:#E5ECF0"/>
				<stop  offset="0.3988" style="stop-color:#E3EBEF"/>
				<stop  offset="0.5758" style="stop-color:#DCE6EC"/>
				<stop  offset="0.7091" style="stop-color:#CFDEE5"/>
				<stop  offset="0.8203" style="stop-color:#BDD2DD"/>
				<stop  offset="0.9168" style="stop-color:#A6C3D2"/>
				<stop  offset="1" style="stop-color:#8BB2C5"/>
			</radialGradient>
			<path fill="url(#SVGID_10_)" d="M101.2,113.2c0,13.4-11.7,24.3-26.1,24.3c-14.4,0-26.1-10.9-26.1-24.3s3.7-29.7,26.1-29.7
				c19.2,0,24.6,11.9,25.8,23.8c0.1,0.7,0.1,1.4,0.2,2.1C101.2,110.6,101.2,111.9,101.2,113.2z"/>
			<path fill="#00CCFF" d="M82.4,105.6c-3.9,0.7-6.9,4.7-6.7,9c0.1,4.3,3.4,7.2,7.2,6.5s6.9-4.7,6.7-9
				C89.5,107.8,86.3,104.9,82.4,105.6"/>
			<path fill="#002855" d="M82.4,106.9c-3.2,0.6-5.7,3.9-5.6,7.5c0.1,3.6,2.8,6,6,5.5c3.2-0.6,5.7-3.9,5.6-7.5
				C88.3,108.7,85.6,106.3,82.4,106.9"/>
			<polyline fill="#FFFFFF" points="85.1,109.2 83.9,109.4 82.5,112.7 81.8,112.8 81.7,109.8 79.5,110.2 79.5,110.9 80.4,110.8 
				80.6,117.4 81.9,117.1 81.8,113.7 82.3,113.6 84.2,116.7 85.8,116.5 83.4,112.4 84.4,110.1 85.1,110 85.1,109.2 			"/>
			<path fill="#FFFFFF" d="M96.4,102.1l0.3,1c0.1,0.3-0.1,0.5-0.3,0.6c-0.3,0.1-0.5-0.1-0.6-0.3c0,0,0-0.1,0-0.1l0,0l0-1l0,0
				c0-0.2,0.2-0.4,0.4-0.4C96.2,101.8,96.4,102,96.4,102.1z"/>
			<path fill="#FFFFFF" d="M93.1,92.5c0.4,0.6,0.7,1.2,1,1.8c0.3,0.6,0.6,1.2,0.8,1.9c0.5,1.3,0.9,2.6,1.2,3.9
				c0,0.2-0.1,0.4-0.3,0.4c-0.2,0-0.3-0.1-0.4-0.2c-0.5-1.2-1.1-2.4-1.8-3.5c-0.3-0.6-0.7-1.1-1.1-1.6c-0.4-0.5-0.8-1-1.2-1.5l0,0
				c-0.4-0.4-0.4-1,0-1.4c0.4-0.4,1-0.4,1.4,0C93,92.4,93,92.5,93.1,92.5z"/>
			<g>
				<path fill="#002855" d="M101.1,109.4c-2.2,1.5-4.8,2.8-7.6,3.7c-0.1,0-0.2,0-0.3,0c-0.4,0-0.7-0.2-0.9-0.6
					c-0.2-0.5,0.1-1,0.6-1.1c3.1-1,5.7-2.4,8-4.1C101,108,101,108.7,101.1,109.4z"/>
			</g>
			<g>
				<path fill="#002855" d="M71.2,115.1C71.1,115.1,71.1,115.1,71.2,115.1c-5.1-0.2-10.5-0.9-16.1-2.1c-0.5-0.1-0.8-0.6-0.7-1.1
					c0.1-0.5,0.6-0.8,1.1-0.7c5.5,1.2,10.9,1.9,15.8,2.1c0.5,0,0.9,0.4,0.9,0.9C72,114.7,71.6,115.1,71.2,115.1z"/>
			</g>
			<radialGradient id="SVGID_11_" cx="79.4288" cy="91.0601" r="8.2444" gradientUnits="userSpaceOnUse">
				<stop  offset="0" style="stop-color:#003978"/>
				<stop  offset="1" style="stop-color:#002855"/>
			</radialGradient>
			<ellipse fill="url(#SVGID_11_)" cx="79.4" cy="91.1" rx="8.9" ry="7.6"/>
		</g>
	</g>
</g>
<g id="Right_Arm">
	<g>
		<g>
			<g>
				<g>
					<radialGradient id="SVGID_12_" cx="17.7961" cy="81.2484" r="5.1524" gradientUnits="userSpaceOnUse">
						<stop  offset="0" style="stop-color:#004A9C"/>
						<stop  offset="1" style="stop-color:#003979"/>
					</radialGradient>
					<path fill="url(#SVGID_12_)" d="M21.3,86.8c-0.2,0.3-0.5,0.4-0.8,0.5c-0.5,0.1-1,0-1.4-0.3c-1.5-1.2-2.6-2.8-3.4-4.3
						c0-0.1-0.1-0.2-0.1-0.2c-0.6-1.2-1-2.4-1.2-3.3c0,0,0,0,0,0c0-0.1,0-0.2-0.1-0.2c-0.3-1.2-0.4-2-0.4-2.1
						c-0.1-0.9,0.5-1.7,1.4-1.7c0.9-0.1,1.6,0.5,1.7,1.4c0,0,0.1,0.6,0.3,1.4l0.1,0.3c0.2,0.8,0.6,1.9,1.1,3c0,0.1,0.1,0.1,0.1,0.2
						c0.6,1.1,1.4,2.3,2.5,3.2C21.8,85.2,21.9,86.1,21.3,86.8z"/>
				</g>
				<g opacity="0.6">
					<path fill="#FFFFFF" d="M14.3,79c0.4,0.1,2,0.2,3-1l0.1,0.3c-0.8,0.9-1.8,1-2.5,1c-0.2,0-0.4,0-0.5,0L14.3,79z"/>
					<path fill="none" d="M14.4,79.2L14.4,79.2C14.4,79.2,14.4,79.2,14.4,79.2"/>
				</g>
				<g opacity="0.6">
					<path fill="#FFFFFF" d="M18.6,81.4c-1.1,1.2-2.2,1.4-2.7,1.4h-0.1c0-0.1-0.1-0.2-0.1-0.2c0.3,0,1.6,0.1,2.9-1.4
						C18.5,81.2,18.6,81.3,18.6,81.4z"/>
				</g>
			</g>
			<g>
				<g>
					
						<radialGradient id="SVGID_13_" cx="39.4989" cy="261.9852" r="5.1524" gradientTransform="matrix(0.9587 -0.2845 0.2845 0.9587 -98.0958 -155.0297)" gradientUnits="userSpaceOnUse">
						<stop  offset="0" style="stop-color:#004A9C"/>
						<stop  offset="1" style="stop-color:#003979"/>
					</radialGradient>
					<path fill="url(#SVGID_13_)" d="M19.3,89.2c-0.1,0.3-0.3,0.6-0.6,0.7c-0.4,0.3-1,0.3-1.5,0.1c-1.8-0.8-3.3-1.9-4.4-3.2
						c-0.1-0.1-0.1-0.1-0.2-0.2c-0.9-1-1.6-2-2.1-2.8c0,0,0,0,0,0c0-0.1-0.1-0.1-0.1-0.2c-0.6-1.1-1-1.8-1-1.9
						C9,81,9.4,80,10.2,79.7c0.8-0.3,1.7,0,2.1,0.8c0,0,0.2,0.5,0.7,1.3l0.1,0.2c0.5,0.7,1.1,1.6,1.9,2.5c0,0.1,0.1,0.1,0.2,0.2
						c0.9,0.9,2,1.8,3.3,2.4C19.3,87.5,19.6,88.4,19.3,89.2z"/>
				</g>
				<g opacity="0.6">
					<path fill="#FFFFFF" d="M10.3,83.7c0.4,0,2-0.3,2.6-1.8l0.1,0.2c-0.5,1-1.5,1.5-2.1,1.7c-0.2,0.1-0.3,0.1-0.5,0.1L10.3,83.7z"
						/>
					<path fill="none" d="M10.5,83.9L10.5,83.9C10.5,83.9,10.5,83.9,10.5,83.9"/>
				</g>
				<g opacity="0.6">
					<path fill="#FFFFFF" d="M15.1,84.8c-0.7,1.5-1.7,2-2.2,2.1l-0.1,0c-0.1-0.1-0.1-0.1-0.2-0.2c0.3-0.1,1.5-0.4,2.3-2.1
						C15,84.7,15.1,84.7,15.1,84.8z"/>
				</g>
			</g>
			<g>
				<g>
					
						<radialGradient id="SVGID_14_" cx="-22.3855" cy="533.0098" r="5.1524" gradientTransform="matrix(0.7457 -0.6663 0.6663 0.7457 -325.2953 -322.388)" gradientUnits="userSpaceOnUse">
						<stop  offset="0" style="stop-color:#004A9C"/>
						<stop  offset="1" style="stop-color:#003979"/>
					</radialGradient>
					<path fill="url(#SVGID_14_)" d="M19.5,91.8c0,0.3-0.1,0.7-0.2,0.9c-0.3,0.4-0.7,0.7-1.3,0.7c-2,0.1-3.8-0.3-5.4-1
						c-0.1,0-0.2-0.1-0.2-0.1c-1.2-0.5-2.3-1.1-3.2-1.7c0,0,0,0,0,0c-0.1,0-0.1-0.1-0.2-0.1c-1-0.7-1.6-1.2-1.7-1.3
						c-0.6-0.6-0.7-1.6-0.1-2.2c0.6-0.6,1.6-0.7,2.2-0.1c0,0,0.4,0.4,1.2,0.9l0.2,0.2c0.7,0.5,1.7,1,2.8,1.5c0.1,0,0.1,0.1,0.2,0.1
						c1.2,0.5,2.6,0.8,4,0.7C18.7,90.2,19.5,90.9,19.5,91.8z"/>
				</g>
				<g opacity="0.6">
					<path fill="#FFFFFF" d="M9,90.6c0.3-0.2,1.6-1.2,1.6-2.8l0.2,0.2c0,1.2-0.7,2-1.2,2.4c-0.1,0.1-0.3,0.2-0.4,0.3L9,90.6z"/>
					<path fill="none" d="M9.2,90.7L9.2,90.7C9.2,90.7,9.2,90.7,9.2,90.7"/>
				</g>
				<g opacity="0.6">
					<path fill="#FFFFFF" d="M13.8,89.6c0,1.6-0.7,2.5-1.1,2.9l-0.1,0.1c-0.1,0-0.2-0.1-0.2-0.1c0.2-0.2,1.2-1,1.2-2.9
						C13.7,89.5,13.7,89.5,13.8,89.6z"/>
				</g>
			</g>
			
				<radialGradient id="SVGID_15_" cx="44.3537" cy="248.5589" r="9.9386" gradientTransform="matrix(0.9634 -0.2682 0.2682 0.9634 -92.0833 -145.0485)" gradientUnits="userSpaceOnUse">
				<stop  offset="0" style="stop-color:#002855"/>
				<stop  offset="0.4671" style="stop-color:#002753"/>
				<stop  offset="0.7099" style="stop-color:#00234B"/>
				<stop  offset="0.9004" style="stop-color:#001D3E"/>
				<stop  offset="1" style="stop-color:#001833"/>
			</radialGradient>
			<path fill="url(#SVGID_15_)" d="M23.4,82.5c2.6,1.2,3.5,4.9,1.9,8.4c-1.6,3.5-4.9,5.3-7.6,4.1s-3.5-4.9-1.9-8.4
				C17.4,83.2,20.8,81.4,23.4,82.5z"/>
			<g>
				<g>
					<radialGradient id="SVGID_16_" cx="22.8136" cy="82.4664" r="4.1175" gradientUnits="userSpaceOnUse">
						<stop  offset="0" style="stop-color:#004A9C"/>
						<stop  offset="1" style="stop-color:#003979"/>
					</radialGradient>
					<path fill="url(#SVGID_16_)" d="M25.2,83.6c0,0.9-0.1,1.9-0.4,3c-0.1,0.6-0.6,1-1.1,1.2c-0.3,0.1-0.5,0.1-0.8,0
						c-0.8-0.2-1.4-1.1-1.2-1.9c0.1-0.6,0.2-1.1,0.3-1.7c0-0.1,0-0.2,0-0.2c0.1-1.1-0.1-2.1-0.5-2.9l-0.1-0.2
						c-0.2-0.4-0.4-0.7-0.7-1.1c-0.5-0.7-0.4-1.7,0.2-2.2c0.7-0.5,1.7-0.4,2.2,0.2c0.4,0.6,0.9,1.3,1.3,2.1l0.1,0.2
						c0.3,0.9,0.6,1.9,0.6,3.2C25.2,83.3,25.2,83.4,25.2,83.6z"/>
				</g>
				<g opacity="0.6">
					<path fill="#FFFFFF" d="M24.6,80.1c-1.3,0.8-2.4,1-3,1c0,0,0,0-0.1,0l-0.1-0.2c0.4,0,1.7,0,3.1-0.9L24.6,80.1z"/>
				</g>
				<g opacity="0.6">
					<path fill="#FFFFFF" d="M25.2,83.6c-0.7,0.5-1.6,0.7-2.4,0.7c-0.4,0-0.6,0-0.8-0.1c0-0.1,0-0.2,0-0.2c0.6,0.1,2.3,0.2,3.2-0.7
						C25.2,83.3,25.2,83.4,25.2,83.6z"/>
				</g>
			</g>
		</g>
		<path opacity="7.000000e-02" fill="#01060A" d="M56.1,108.1c-0.1,0-0.3,0-0.4,0c-0.3,0-0.4-0.1-0.6-0.2c-0.1,0-0.3-0.1-0.4-0.2
			c-2-1-3.1-4-2.7-7.3c0.2-1.2,0.5-2.3,1-3.3c0-0.1,0.1-0.2,0.1-0.3c1-1.8,2.5-2.9,4-2.9c0.1,0,0.3,0,0.4,0c0.1,0,0.2,0,0.3,0.1
			c0.5,0.1,1,0.3,1.4,0.6c1.6,1.3,2.5,4,2.1,6.9c-0.2,1.2-0.5,2.2-1,3.2c0,0.1-0.1,0.1-0.1,0.2C59.2,107,57.7,108.1,56.1,108.1z"/>
		<path d="M60.4,101.5c-0.1,1.1-0.4,2.1-0.9,2.9c0,0.1-0.1,0.2-0.1,0.2c-0.9,1.6-2.2,2.6-3.6,2.5c-0.2,0-0.3-0.1-0.4-0.1
			c-0.1,0-0.2-0.1-0.3-0.1c-1.6-0.8-2.6-3.4-2.2-6.4c0.1-1.1,0.5-2.1,0.9-3c0-0.1,0.1-0.2,0.1-0.2c0.9-1.6,2.2-2.6,3.6-2.4
			c0.1,0,0.1,0,0.2,0c0.4,0.1,0.7,0.2,1,0.5C60,96.5,60.7,98.9,60.4,101.5z"/>
		<g>
			<radialGradient id="SVGID_17_" cx="50.0041" cy="98.3171" r="10.1615" gradientUnits="userSpaceOnUse">
				<stop  offset="0" style="stop-color:#003978"/>
				<stop  offset="1" style="stop-color:#002855"/>
			</radialGradient>
			<path fill="url(#SVGID_17_)" d="M60.4,101.5c-0.1,1.1-0.4,2.1-0.9,2.9c0,0.1-0.1,0.2-0.1,0.2c-1.4,0.9-2.9,1.6-4.3,2.2
				c-2.7,1.1-5.5,1.6-8.2,1.6c-3.2,0-6.4-0.8-9.6-2.3c-2.2-1.1-3.2-3.7-2.1-6c1.1-2.2,3.7-3.2,6-2.1c2.8,1.3,6.9,2.5,12.6-0.6
				c1.2-0.6,2.4-1.5,3.8-2.6c0,0,0.1-0.1,0.1-0.1c0.4,0.1,0.7,0.2,1,0.5C60,96.5,60.7,98.9,60.4,101.5z"/>
		</g>
		<g>
			<linearGradient id="SVGID_18_" gradientUnits="userSpaceOnUse" x1="28.4473" y1="108.08" x2="40.7194" y2="90.1208">
				<stop  offset="0" style="stop-color:#8BB2C5"/>
				<stop  offset="0.1547" style="stop-color:#9DBECE"/>
				<stop  offset="0.5233" style="stop-color:#C4D7E0"/>
				<stop  offset="0.818" style="stop-color:#DCE6EC"/>
				<stop  offset="1" style="stop-color:#E5ECF0"/>
			</linearGradient>
			<path fill="url(#SVGID_18_)" d="M43.2,108.7c-13.7-0.4-19.2-6.1-21.2-9.1c-0.7-1.1-0.9-2.5-0.6-3.7c0.5-1.9,1.8-5,4.9-8
				c1.3-1.3,3.2-1.6,4.8-1c2.2,0.9,5.4,2.6,8.4,6c2.3,2.7,5.5,4.7,7,5.5c0.5,0.3,0.9,0.8,0.9,1.4c0.1,1.8,0,5.7-3,8.4
				C44.1,108.6,43.7,108.8,43.2,108.7z"/>
			<g>
				<path fill="#FFFFFF" d="M39.7,96.1c-0.4-0.2-0.7-0.5-1-0.7c-0.3-0.2-0.5-0.4-0.8-0.6c-0.3-0.2-0.4-0.6-0.2-0.9
					c0.2-0.3,0.6-0.4,0.9-0.2c0,0,0,0,0.1,0.1l0,0c0.3,0.2,0.6,0.5,0.9,0.8c0.3,0.3,0.5,0.5,0.7,0.7l0,0c0.2,0.2,0.3,0.5,0.1,0.7
					C40.2,96.1,39.9,96.2,39.7,96.1z"/>
			</g>
			<g>
				<path fill="#FFFFFF" d="M31.9,88.3c0.5,0.3,0.8,0.6,1.3,0.9c0.4,0.3,0.8,0.6,1.2,0.9c0.8,0.6,1.5,1.3,2.2,2
					c0.2,0.2,0.2,0.6,0,0.9c-0.2,0.2-0.6,0.2-0.8,0l0,0c-0.7-0.6-1.5-1.1-2.3-1.6c-0.4-0.3-0.8-0.5-1.2-0.7
					c-0.4-0.2-0.8-0.5-1.2-0.6l0,0c-0.5-0.2-0.7-0.8-0.5-1.3c0.2-0.5,0.8-0.7,1.3-0.5C31.9,88.2,31.9,88.3,31.9,88.3z"/>
			</g>
		</g>
	</g>
</g>
<g id="Head">
	<g>
		<g>
			
				<radialGradient id="SVGID_19_" cx="-35.0442" cy="-102.4863" r="9.9703" gradientTransform="matrix(0.9659 0.2588 -0.285 1.0637 34.3794 146.5691)" gradientUnits="userSpaceOnUse">
				<stop  offset="0" style="stop-color:#002855"/>
				<stop  offset="0.4671" style="stop-color:#002753"/>
				<stop  offset="0.7099" style="stop-color:#00234B"/>
				<stop  offset="0.9004" style="stop-color:#001D3E"/>
				<stop  offset="1" style="stop-color:#001833"/>
			</radialGradient>
			<polygon fill="url(#SVGID_19_)" points="27.8,43.9 23.7,42.8 33.9,13.7 35.8,14.2 			"/>
			<g>
				
					<linearGradient id="SVGID_20_" gradientUnits="userSpaceOnUse" x1="-36.5409" y1="-154.7778" x2="-31.3857" y2="-163.29" gradientTransform="matrix(0.9659 0.2588 -0.2588 0.9659 27.1667 173.4872)">
					<stop  offset="0" style="stop-color:#8BB2C5"/>
					<stop  offset="0.1599" style="stop-color:#A6C3D2"/>
					<stop  offset="0.3675" style="stop-color:#C1D5DF"/>
					<stop  offset="0.5769" style="stop-color:#D5E2E8"/>
					<stop  offset="0.7872" style="stop-color:#E1E9EE"/>
					<stop  offset="1" style="stop-color:#E5ECF0"/>
				</linearGradient>
				<path fill="url(#SVGID_20_)" d="M34.1,16.7L34.1,16.7c-1.8-0.5-2.8-2.3-2.3-4.1l1.4-5.1c0.5-1.8,2.3-2.8,4.1-2.3l0,0
					c1.8,0.5,2.8,2.3,2.3,4.1l-1.4,5.1C37.7,16.1,35.9,17.2,34.1,16.7z"/>
				<g>
					<path fill="#FFFFFF" d="M38,12.7l-0.3,1.5c-0.1,0.2-0.3,0.4-0.5,0.3c-0.2-0.1-0.4-0.3-0.3-0.5c0,0,0,0,0,0l0.5-1.4
						c0.1-0.2,0.3-0.3,0.5-0.2C37.9,12.4,38,12.5,38,12.7z"/>
				</g>
				<g>
					<path fill="#FFFFFF" d="M38.4,6.9c0.5,0.5,0.7,1.3,0.6,2c-0.1,0.4-0.1,0.6-0.2,1c-0.1,0.3-0.1,0.6-0.2,0.9
						c-0.1,0.2-0.3,0.3-0.5,0.3c-0.2-0.1-0.3-0.3-0.3-0.5c0.1-0.3,0.2-0.6,0.3-0.9l0.3-0.9c0.2-0.5,0.1-1.1-0.2-1.7
						c-0.1-0.1,0-0.2,0.1-0.3C38.2,6.9,38.3,6.9,38.4,6.9z"/>
				</g>
			</g>
			<g>
				
					<linearGradient id="SVGID_21_" gradientUnits="userSpaceOnUse" x1="-1536.8162" y1="96.6676" x2="-1520.377" y2="62.3243" gradientTransform="matrix(-1 0 0 1 -1406.9247 -29.7985)">
					<stop  offset="0" style="stop-color:#8BB2C5"/>
					<stop  offset="0.1599" style="stop-color:#A6C3D2"/>
					<stop  offset="0.3675" style="stop-color:#C1D5DF"/>
					<stop  offset="0.5769" style="stop-color:#D5E2E8"/>
					<stop  offset="0.7872" style="stop-color:#E1E9EE"/>
					<stop  offset="1" style="stop-color:#E5ECF0"/>
				</linearGradient>
				<ellipse fill="url(#SVGID_21_)" cx="123.9" cy="54.4" rx="9.4" ry="15.1"/>
				
					<radialGradient id="SVGID_22_" cx="-1529.8558" cy="84.2469" r="12.825" gradientTransform="matrix(-1 0 0 1 -1406.9247 -29.7985)" gradientUnits="userSpaceOnUse">
					<stop  offset="0" style="stop-color:#003978"/>
					<stop  offset="1" style="stop-color:#002855"/>
				</radialGradient>
				<path fill="url(#SVGID_22_)" d="M123,54.4c0-6.5-1.6-12.4-4.6-17.6c3,0,5.7,1.7,6.6,4.1c1.6,4.2,2.4,8.7,2.4,13.5
					c0,4.7-0.8,9.2-2.4,13.4c-0.9,2.4-3.6,4.1-6.6,4.1C121.4,66.9,123,60.9,123,54.4z"/>
				<g>
					<path fill="#FFFFFF" d="M127.9,42.1c0.3,0.3,0.6,0.7,0.9,1c0.3,0.3,0.5,0.7,0.7,1.1c0.5,0.7,0.9,1.5,1.3,2.2l0,0
						c0.2,0.5,0,1.1-0.5,1.3c-0.5,0.2-1.1,0-1.3-0.5c0,0,0-0.1-0.1-0.2c-0.2-0.8-0.5-1.5-0.8-2.2c-0.2-0.4-0.3-0.7-0.5-1.1
						c-0.2-0.3-0.4-0.7-0.6-1l0,0c-0.2-0.3-0.1-0.6,0.2-0.8C127.4,41.9,127.7,41.9,127.9,42.1z"/>
				</g>
				
					<linearGradient id="SVGID_23_" gradientUnits="userSpaceOnUse" x1="30.9153" y1="96.6676" x2="47.3545" y2="62.3243" gradientTransform="matrix(1 0 0 1 -10.9754 -29.7985)">
					<stop  offset="0" style="stop-color:#8BB2C5"/>
					<stop  offset="0.1599" style="stop-color:#A6C3D2"/>
					<stop  offset="0.3675" style="stop-color:#C1D5DF"/>
					<stop  offset="0.5769" style="stop-color:#D5E2E8"/>
					<stop  offset="0.7872" style="stop-color:#E1E9EE"/>
					<stop  offset="1" style="stop-color:#E5ECF0"/>
				</linearGradient>
				<ellipse fill="url(#SVGID_23_)" cx="25.9" cy="54.4" rx="9.4" ry="15.1"/>
				
					<radialGradient id="SVGID_24_" cx="37.8756" cy="84.2469" r="12.825" gradientTransform="matrix(1 0 0 1 -10.9754 -29.7985)" gradientUnits="userSpaceOnUse">
					<stop  offset="0" style="stop-color:#003978"/>
					<stop  offset="1" style="stop-color:#002855"/>
				</radialGradient>
				<path fill="url(#SVGID_24_)" d="M26.8,54.4c0-6.5,1.6-12.4,4.6-17.6c-3,0-5.7,1.7-6.6,4.1c-1.6,4.2-2.4,8.7-2.4,13.5
					c0,4.7,0.8,9.2,2.4,13.4c0.9,2.4,3.6,4.1,6.6,4.1C28.4,66.9,26.8,60.9,26.8,54.4z"/>
				<g>
					<path fill="#FFFFFF" d="M22.8,42.9c-0.2,0.3-0.4,0.6-0.6,1c-0.2,0.3-0.4,0.7-0.5,1.1c-0.3,0.7-0.6,1.5-0.8,2.2
						c-0.2,0.5-0.7,0.8-1.3,0.7c-0.5-0.2-0.8-0.7-0.7-1.3c0-0.1,0-0.1,0.1-0.2l0,0c0.4-0.8,0.8-1.5,1.3-2.2c0.2-0.4,0.5-0.7,0.7-1.1
						c0.3-0.3,0.5-0.7,0.9-1c0.2-0.2,0.6-0.2,0.8,0C23,42.3,23,42.6,22.8,42.9L22.8,42.9z"/>
				</g>
			</g>
			
				<radialGradient id="SVGID_25_" cx="86.8181" cy="74.0578" r="54.833" gradientTransform="matrix(0.866 0.5 -0.47 0.8141 35.4632 -59.4376)" gradientUnits="userSpaceOnUse">
				<stop  offset="0" style="stop-color:#E5ECF0"/>
				<stop  offset="0.3988" style="stop-color:#E3EBEF"/>
				<stop  offset="0.5758" style="stop-color:#DCE6EC"/>
				<stop  offset="0.7091" style="stop-color:#CFDEE5"/>
				<stop  offset="0.8203" style="stop-color:#BDD2DD"/>
				<stop  offset="0.9168" style="stop-color:#A6C3D2"/>
				<stop  offset="1" style="stop-color:#8BB2C5"/>
			</radialGradient>
			<path fill="url(#SVGID_25_)" d="M74.9,91.9c-13.1,0-24.5-2.8-32.9-8c-10.6-6.6-16.4-17.1-16.4-29.4S31.4,31.6,42,25
				c8.4-5.2,19.8-8,32.9-8s24.5,2.8,32.9,8c10.6,6.6,16.4,17.1,16.4,29.4s-5.8,22.8-16.4,29.4C99.4,89.1,88.1,91.9,74.9,91.9z"/>
			<polygon fill="#A2CFE5" points="76.9,19.9 77.7,19.9 77.7,19.2 76.4,19.2 74.8,22.1 74,22.1 74,19.2 71.6,19.2 71.6,19.9 
				72.5,19.9 72.5,26.3 74,26.3 74,22.9 74.5,22.9 76.5,26.3 78.2,26.3 75.8,22 			"/>
			<g>
				<path fill="#FFFFFF" d="M89.7,21.3c5.7,1.3,11.3,3.4,16.3,6.7c0.4,0.3,0.5,0.9,0.3,1.3c-0.3,0.4-0.8,0.5-1.2,0.3l0,0
					c-4.9-2.8-10.3-4.4-15.9-5.3c-0.8-0.1-1.4-0.9-1.2-1.7c0.1-0.8,0.9-1.4,1.7-1.2C89.7,21.3,89.7,21.3,89.7,21.3z"/>
			</g>
			<g>
				<path fill="#FFFFFF" d="M111.1,31.9l1.9,1.5c0.5,0.4,0.6,1.1,0.2,1.6c-0.4,0.5-1.1,0.6-1.6,0.2c-0.1-0.1-0.1-0.1-0.2-0.2
					l-0.1-0.1l-1.4-1.8l0-0.1c-0.3-0.4-0.3-1,0.1-1.3C110.3,31.6,110.8,31.6,111.1,31.9z"/>
			</g>
		</g>
		
			<linearGradient id="SVGID_26_" gradientUnits="userSpaceOnUse" x1="85.8911" y1="110.1754" x2="85.8911" y2="58.3188" gradientTransform="matrix(1 0 0 1 -10.9754 -29.7985)">
			<stop  offset="0" style="stop-color:#04070A"/>
			<stop  offset="1" style="stop-color:#102B41"/>
		</linearGradient>
		<path fill="url(#SVGID_26_)" d="M104.8,70.6c3.9-4,6.1-9.4,6.1-16.2c0-18.1-16.1-25.9-36-25.9c-19.9,0-36,7.8-36,25.9
			s16.1,25.9,36,25.9c6.2,0,12.1-0.8,17.2-2.4l10.4,2.4L104.8,70.6z"/>
	</g>
</g>
<g id="Face">
	<g>
		<g id="eyes2">
			<g>
				<rect x="62.9" y="41" fill="#31E205" width="1.5" height="1.5"/>
				<rect x="64.4" y="41" fill="#31E205" width="1.5" height="1.5"/>
				<rect x="65.9" y="41" fill="#31E205" width="1.5" height="1.5"/>
				<rect x="67.4" y="41" fill="#31E205" width="1.5" height="1.5"/>
				<rect x="62.9" y="42.5" fill="#31E205" width="1.5" height="1.5"/>
				<rect x="64.4" y="42.5" fill="#31E205" width="1.5" height="1.5"/>
				<rect x="65.9" y="42.5" fill="#31E205" width="1.5" height="1.5"/>
				<rect x="67.4" y="42.5" fill="#31E205" width="1.5" height="1.5"/>
				<rect x="59.9" y="44" fill="#31E205" width="1.5" height="1.5"/>
				<rect x="61.4" y="44" fill="#31E205" width="1.5" height="1.5"/>
				<rect x="68.9" y="44" fill="#31E205" width="1.5" height="1.5"/>
				<rect x="70.4" y="44" fill="#31E205" width="1.5" height="1.5"/>
				<rect x="59.9" y="45.5" fill="#31E205" width="1.5" height="1.5"/>
				<rect x="61.4" y="45.5" fill="#31E205" width="1.5" height="1.5"/>
				<rect x="68.9" y="45.5" fill="#31E205" width="1.5" height="1.5"/>
				<rect x="70.4" y="45.5" fill="#31E205" width="1.5" height="1.5"/>
			</g>
			<g>
				<rect x="80.9" y="41" fill="#31E205" width="1.5" height="1.5"/>
				<rect x="82.4" y="41" fill="#31E205" width="1.5" height="1.5"/>
				<rect x="83.9" y="41" fill="#31E205" width="1.5" height="1.5"/>
				<rect x="85.4" y="41" fill="#31E205" width="1.5" height="1.5"/>
				<rect x="80.9" y="42.5" fill="#31E205" width="1.5" height="1.5"/>
				<rect x="82.4" y="42.5" fill="#31E205" width="1.5" height="1.5"/>
				<rect x="83.9" y="42.5" fill="#31E205" width="1.5" height="1.5"/>
				<rect x="85.4" y="42.5" fill="#31E205" width="1.5" height="1.5"/>
				<rect x="77.9" y="44" fill="#31E205" width="1.5" height="1.5"/>
				<rect x="79.4" y="44" fill="#31E205" width="1.5" height="1.5"/>
				<rect x="86.9" y="44" fill="#31E205" width="1.5" height="1.5"/>
				<rect x="88.4" y="44" fill="#31E205" width="1.5" height="1.5"/>
				<rect x="77.9" y="45.5" fill="#31E205" width="1.5" height="1.5"/>
				<rect x="79.4" y="45.5" fill="#31E205" width="1.5" height="1.5"/>
				<rect x="86.9" y="45.5" fill="#31E205" width="1.5" height="1.5"/>
				<rect x="88.4" y="45.5" fill="#31E205" width="1.5" height="1.5"/>
			</g>
		</g>
		<g>
			<rect x="62.9" y="55.9" fill="#31E205" width="1.5" height="1.5"/>
			<rect x="64.4" y="55.9" fill="#31E205" width="1.5" height="1.5"/>
			<rect x="65.9" y="55.9" fill="#31E205" width="1.5" height="1.5"/>
			<rect x="67.4" y="55.9" fill="#31E205" width="1.5" height="1.5"/>
			<rect x="68.9" y="55.9" fill="#31E205" width="1.5" height="1.5"/>
			<rect x="70.4" y="55.9" fill="#31E205" width="1.5" height="1.5"/>
			<rect x="71.9" y="55.9" fill="#31E205" width="1.5" height="1.5"/>
			<rect x="73.4" y="55.9" fill="#31E205" width="1.5" height="1.5"/>
			
				<rect x="85.4" y="55.9" transform="matrix(-1 -4.314738e-11 4.314738e-11 -1 172.2803 113.3869)" fill="#31E205" width="1.5" height="1.5"/>
			
				<rect x="83.9" y="55.9" transform="matrix(-1 -4.618584e-11 4.618584e-11 -1 169.2871 113.3869)" fill="#31E205" width="1.5" height="1.5"/>
			
				<rect x="82.4" y="55.9" transform="matrix(-1 -4.375490e-11 4.375490e-11 -1 166.2939 113.3869)" fill="#31E205" width="1.5" height="1.5"/>
			
				<rect x="80.9" y="55.9" transform="matrix(-1 -4.497037e-11 4.497037e-11 -1 163.3007 113.3869)" fill="#31E205" width="1.5" height="1.5"/>
			
				<rect x="79.4" y="55.9" transform="matrix(-1 -4.497037e-11 4.497037e-11 -1 160.3075 113.3869)" fill="#31E205" width="1.5" height="1.5"/>
			
				<rect x="77.9" y="55.9" transform="matrix(-1 -4.375490e-11 4.375490e-11 -1 157.3143 113.3869)" fill="#31E205" width="1.5" height="1.5"/>
			
				<rect x="76.4" y="55.9" transform="matrix(-1 -4.679336e-11 4.679336e-11 -1 154.3211 113.3869)" fill="#31E205" width="1.5" height="1.5"/>
			
				<rect x="74.9" y="55.9" transform="matrix(-1 -4.314738e-11 4.314738e-11 -1 151.3279 113.3869)" fill="#31E205" width="1.5" height="1.5"/>
			<rect x="62.9" y="57.4" fill="#31E205" width="1.5" height="1.5"/>
			<rect x="64.4" y="57.4" fill="#31E205" width="1.5" height="1.5"/>
			<rect x="65.9" y="57.4" fill="#31E205" width="1.5" height="1.5"/>
			<rect x="67.4" y="57.4" fill="#31E205" width="1.5" height="1.5"/>
			<rect x="68.9" y="57.4" fill="#31E205" width="1.5" height="1.5"/>
			<rect x="70.4" y="57.4" fill="#31E205" width="1.5" height="1.5"/>
			<rect x="71.9" y="57.4" fill="#31E205" width="1.5" height="1.5"/>
			<rect x="73.4" y="57.4" fill="#31E205" width="1.5" height="1.5"/>
			<rect x="62.9" y="58.9" fill="#31E205" width="1.5" height="1.5"/>
			<rect x="64.4" y="58.9" fill="#31E205" width="1.5" height="1.5"/>
			<rect x="65.9" y="58.9" fill="#31E205" width="1.5" height="1.5"/>
			<rect x="67.4" y="58.9" fill="#31E205" width="1.5" height="1.5"/>
			<rect x="68.9" y="58.9" fill="#31E205" width="1.5" height="1.5"/>
			<rect x="70.4" y="58.9" fill="#31E205" width="1.5" height="1.5"/>
			<rect x="71.9" y="58.9" fill="#31E205" width="1.5" height="1.5"/>
			<rect x="73.4" y="58.9" fill="#31E205" width="1.5" height="1.5"/>
			
				<rect x="85.4" y="57.4" transform="matrix(-1 -4.497037e-11 4.497037e-11 -1 172.2803 116.3801)" fill="#31E205" width="1.5" height="1.5"/>
			
				<rect x="83.9" y="57.4" transform="matrix(-1 -4.375490e-11 4.375490e-11 -1 169.2871 116.3801)" fill="#31E205" width="1.5" height="1.5"/>
			
				<rect x="82.4" y="57.4" transform="matrix(-1 -4.679336e-11 4.679336e-11 -1 166.2939 116.3801)" fill="#31E205" width="1.5" height="1.5"/>
			
				<rect x="80.9" y="57.4" transform="matrix(-1 -4.314738e-11 4.314738e-11 -1 163.3007 116.3801)" fill="#31E205" width="1.5" height="1.5"/>
			
				<rect x="79.4" y="57.4" transform="matrix(-1 -4.679336e-11 4.679336e-11 -1 160.3075 116.3801)" fill="#31E205" width="1.5" height="1.5"/>
			
				<rect x="77.9" y="57.4" transform="matrix(-1 -4.557833e-11 4.557833e-11 -1 157.3143 116.3801)" fill="#31E205" width="1.5" height="1.5"/>
			
				<rect x="76.4" y="57.4" transform="matrix(-1 -4.436286e-11 4.436286e-11 -1 154.3211 116.3801)" fill="#31E205" width="1.5" height="1.5"/>
			
				<rect x="74.9" y="57.4" transform="matrix(-1 -4.436286e-11 4.436286e-11 -1 151.3279 116.3801)" fill="#31E205" width="1.5" height="1.5"/>
			
				<rect x="85.4" y="58.9" transform="matrix(-1 -4.436286e-11 4.436286e-11 -1 172.2803 119.3733)" fill="#31E205" width="1.5" height="1.5"/>
			
				<rect x="83.9" y="58.9" transform="matrix(-1 -4.557833e-11 4.557833e-11 -1 169.2871 119.3733)" fill="#31E205" width="1.5" height="1.5"/>
			
				<rect x="82.4" y="58.9" transform="matrix(-1 -4.314738e-11 4.314738e-11 -1 166.2939 119.3733)" fill="#31E205" width="1.5" height="1.5"/>
			
				<rect x="80.9" y="58.9" transform="matrix(-1 -4.557833e-11 4.557833e-11 -1 163.3007 119.3733)" fill="#31E205" width="1.5" height="1.5"/>
			
				<rect x="79.4" y="58.9" transform="matrix(-1 -4.679336e-11 4.679336e-11 -1 160.3075 119.3733)" fill="#31E205" width="1.5" height="1.5"/>
			
				<rect x="77.9" y="58.9" transform="matrix(-1 -4.193191e-11 4.193191e-11 -1 157.3143 119.3733)" fill="#31E205" width="1.5" height="1.5"/>
			
				<rect x="76.4" y="58.9" transform="matrix(-1 -4.618584e-11 4.618584e-11 -1 154.3211 119.3733)" fill="#31E205" width="1.5" height="1.5"/>
			
				<rect x="74.9" y="58.9" transform="matrix(-1 -4.375490e-11 4.375490e-11 -1 151.3279 119.3733)" fill="#31E205" width="1.5" height="1.5"/>
			<rect x="62.9" y="60.4" fill="#31E205" width="1.5" height="1.5"/>
			<rect x="64.4" y="60.4" fill="#31E205" width="1.5" height="1.5"/>
			<rect x="65.9" y="60.4" fill="#31E205" width="1.5" height="1.5"/>
			<rect x="67.4" y="60.4" fill="#31E205" width="1.5" height="1.5"/>
			<rect x="68.9" y="60.4" fill="#31E205" width="1.5" height="1.5"/>
			<rect x="70.4" y="60.4" fill="#31E205" width="1.5" height="1.5"/>
			<rect x="71.9" y="60.4" fill="#31E205" width="1.5" height="1.5"/>
			<rect x="73.4" y="60.4" fill="#31E205" width="1.5" height="1.5"/>
			<rect x="65.9" y="61.9" fill="#31E205" width="1.5" height="1.5"/>
			<rect x="67.4" y="61.9" fill="#31E205" width="1.5" height="1.5"/>
			<rect x="68.9" y="61.9" fill="#31E205" width="1.5" height="1.5"/>
			<rect x="70.4" y="61.9" fill="#31E205" width="1.5" height="1.5"/>
			<rect x="71.9" y="61.9" fill="#31E205" width="1.5" height="1.5"/>
			<rect x="73.4" y="61.9" fill="#31E205" width="1.5" height="1.5"/>
			
				<rect x="85.4" y="60.4" transform="matrix(-1 -4.618584e-11 4.618584e-11 -1 172.2803 122.3665)" fill="#31E205" width="1.5" height="1.5"/>
			
				<rect x="83.9" y="60.4" transform="matrix(-1 -4.375490e-11 4.375490e-11 -1 169.2871 122.3665)" fill="#31E205" width="1.5" height="1.5"/>
			
				<rect x="82.4" y="60.4" transform="matrix(-1 -4.618584e-11 4.618584e-11 -1 166.2939 122.3665)" fill="#31E205" width="1.5" height="1.5"/>
			
				<rect x="80.9" y="60.4" transform="matrix(-1 -4.436286e-11 4.436286e-11 -1 163.3007 122.3665)" fill="#31E205" width="1.5" height="1.5"/>
			
				<rect x="79.4" y="60.4" transform="matrix(-1 -4.557833e-11 4.557833e-11 -1 160.3075 122.3665)" fill="#31E205" width="1.5" height="1.5"/>
			
				<rect x="77.9" y="60.4" transform="matrix(-1 -4.679336e-11 4.679336e-11 -1 157.3143 122.3665)" fill="#31E205" width="1.5" height="1.5"/>
			
				<rect x="76.4" y="60.4" transform="matrix(-1 -4.193191e-11 4.193191e-11 -1 154.3211 122.3665)" fill="#31E205" width="1.5" height="1.5"/>
			
				<rect x="74.9" y="60.4" transform="matrix(-1 -4.679336e-11 4.679336e-11 -1 151.3279 122.3665)" fill="#31E205" width="1.5" height="1.5"/>
			
				<rect x="82.4" y="61.9" transform="matrix(-1 -4.193191e-11 4.193191e-11 -1 166.2939 125.3597)" fill="#31E205" width="1.5" height="1.5"/>
			
				<rect x="80.9" y="61.9" transform="matrix(-1 -4.679336e-11 4.679336e-11 -1 163.3007 125.3597)" fill="#31E205" width="1.5" height="1.5"/>
			
				<rect x="79.4" y="61.9" transform="matrix(-1 -4.436286e-11 4.436286e-11 -1 160.3075 125.3597)" fill="#31E205" width="1.5" height="1.5"/>
			
				<rect x="77.9" y="61.9" transform="matrix(-1 -4.436286e-11 4.436286e-11 -1 157.3143 125.3597)" fill="#31E205" width="1.5" height="1.5"/>
			
				<rect x="76.4" y="61.9" transform="matrix(-1 -4.557833e-11 4.557833e-11 -1 154.3211 125.3597)" fill="#31E205" width="1.5" height="1.5"/>
			
				<rect x="74.9" y="61.9" transform="matrix(-1 -4.436286e-11 4.436286e-11 -1 151.3279 125.3597)" fill="#31E205" width="1.5" height="1.5"/>
			<rect x="65.9" y="63.4" fill="#31E205" width="1.5" height="1.5"/>
			<rect x="67.4" y="63.4" fill="#31E205" width="1.5" height="1.5"/>
			<rect x="68.9" y="63.4" fill="#31E205" width="1.5" height="1.5"/>
			<rect x="70.4" y="63.4" fill="#31E205" width="1.5" height="1.5"/>
			<rect x="71.9" y="63.4" fill="#31E205" width="1.5" height="1.5"/>
			<rect x="73.4" y="63.4" fill="#31E205" width="1.5" height="1.5"/>
			<rect x="68.9" y="64.9" fill="#31E205" width="1.5" height="1.5"/>
			<rect x="70.4" y="64.9" fill="#31E205" width="1.5" height="1.5"/>
			<rect x="71.9" y="64.9" fill="#31E205" width="1.5" height="1.5"/>
			<rect x="73.4" y="64.9" fill="#31E205" width="1.5" height="1.5"/>
			
				<rect x="82.4" y="63.4" transform="matrix(-1 -4.679336e-11 4.679336e-11 -1 166.2939 128.3529)" fill="#31E205" width="1.5" height="1.5"/>
			
				<rect x="80.9" y="63.4" transform="matrix(-1 -4.314738e-11 4.314738e-11 -1 163.3007 128.3529)" fill="#31E205" width="1.5" height="1.5"/>
			
				<rect x="79.4" y="63.4" transform="matrix(-1 -4.618584e-11 4.618584e-11 -1 160.3075 128.3529)" fill="#31E205" width="1.5" height="1.5"/>
			
				<rect x="77.9" y="63.4" transform="matrix(-1 -4.618584e-11 4.618584e-11 -1 157.3143 128.3529)" fill="#31E205" width="1.5" height="1.5"/>
			
				<rect x="76.4" y="63.4" transform="matrix(-1 -4.436286e-11 4.436286e-11 -1 154.3211 128.3529)" fill="#31E205" width="1.5" height="1.5"/>
			
				<rect x="74.9" y="63.4" transform="matrix(-1 -4.436286e-11 4.436286e-11 -1 151.3279 128.3529)" fill="#31E205" width="1.5" height="1.5"/>
			
				<rect x="79.4" y="64.9" transform="matrix(-1 -4.557833e-11 4.557833e-11 -1 160.3075 131.3461)" fill="#31E205" width="1.5" height="1.5"/>
			
				<rect x="77.9" y="64.9" transform="matrix(-1 -4.314738e-11 4.314738e-11 -1 157.3143 131.3461)" fill="#31E205" width="1.5" height="1.5"/>
			
				<rect x="76.4" y="64.9" transform="matrix(-1 -4.679336e-11 4.679336e-11 -1 154.3211 131.3461)" fill="#31E205" width="1.5" height="1.5"/>
			
				<rect x="74.9" y="64.9" transform="matrix(-1 -4.314738e-11 4.314738e-11 -1 151.3279 131.3461)" fill="#31E205" width="1.5" height="1.5"/>
			<rect x="68.9" y="66.4" fill="#31E205" width="1.5" height="1.5"/>
			<rect x="70.4" y="66.4" fill="#31E205" width="1.5" height="1.5"/>
			<rect x="71.9" y="66.4" fill="#31E205" width="1.5" height="1.5"/>
			<rect x="73.4" y="66.4" fill="#31E205" width="1.5" height="1.5"/>
			
				<rect x="79.4" y="66.4" transform="matrix(-1 -4.618584e-11 4.618584e-11 -1 160.3075 134.3393)" fill="#31E205" width="1.5" height="1.5"/>
			
				<rect x="77.9" y="66.4" transform="matrix(-1 -4.618584e-11 4.618584e-11 -1 157.3143 134.3393)" fill="#31E205" width="1.5" height="1.5"/>
			
				<rect x="76.4" y="66.4" transform="matrix(-1 -4.253943e-11 4.253943e-11 -1 154.3211 134.3393)" fill="#31E205" width="1.5" height="1.5"/>
			
				<rect x="74.9" y="66.4" transform="matrix(-1 -4.618584e-11 4.618584e-11 -1 151.3279 134.3393)" fill="#31E205" width="1.5" height="1.5"/>
		</g>
	</g>
</g>
</svg>
